<?xml version="1.0" encoding="UTF-8"?>
<svg xmlns="http://www.w3.org/2000/svg" xmlns:xlink="http://www.w3.org/1999/xlink" viewBox="0 0 489.63 405.78">
  <defs>
    <style>
      .cls-1 {
        fill: #fff;
      }

      .cls-2 {
        fill: #bcbeff;
      }

      .cls-3 {
        fill: #0f054c;
      }

      .cls-4 {
        fill: url(#_Áåçûìÿííûé_ãðàäèåíò_128);
      }

      .cls-4, .cls-5 {
        mix-blend-mode: lighten;
      }

      .cls-5, .cls-6, .cls-7, .cls-8, .cls-9, .cls-10 {
        fill: #42e8e0;
      }

      .cls-11 {
        fill: url(#_Áåçûìÿííûé_ãðàäèåíò_18);
      }

      .cls-12 {
        fill: url(#_Áåçûìÿííûé_ãðàäèåíò_15-2);
      }

      .cls-12, .cls-13, .cls-14, .cls-15, .cls-16, .cls-17, .cls-10 {
        opacity: .5;
      }

      .cls-18 {
        isolation: isolate;
      }

      .cls-19, .cls-6 {
        opacity: .2;
      }

      .cls-20 {
        fill: url(#_Áåçûìÿííûé_ãðàäèåíò_18-2);
      }

      .cls-13 {
        fill: url(#_Áåçûìÿííûé_ãðàäèåíò_15-6);
      }

      .cls-14 {
        fill: url(#_Áåçûìÿííûé_ãðàäèåíò_15-3);
      }

      .cls-15 {
        fill: url(#_Áåçûìÿííûé_ãðàäèåíò_15-4);
      }

      .cls-7, .cls-21 {
        opacity: .4;
      }

      .cls-22 {
        opacity: .3;
      }

      .cls-8 {
        opacity: .8;
      }

      .cls-23 {
        fill: #18b2a3;
        opacity: .7;
      }

      .cls-24 {
        opacity: .1;
      }

      .cls-21 {
        fill: #03002d;
      }

      .cls-25 {
        fill: #2fd3c7;
      }

      .cls-16 {
        fill: url(#_Áåçûìÿííûé_ãðàäèåíò_15);
      }

      .cls-17 {
        fill: url(#_Áåçûìÿííûé_ãðàäèåíò_15-5);
      }
    </style>
    <linearGradient id="_Áåçûìÿííûé_ãðàäèåíò_18" data-name="Áåçûìÿííûé ãðàäèåíò 18" x1="41.19" y1="257.49" x2="355.79" y2="257.49" gradientUnits="userSpaceOnUse">
      <stop offset="0" stop-color="#5761d7"/>
      <stop offset=".16" stop-color="#5e67d9"/>
      <stop offset=".41" stop-color="#7179e1"/>
      <stop offset=".69" stop-color="#9197ee"/>
      <stop offset="1" stop-color="#bcbeff"/>
    </linearGradient>
    <linearGradient id="_Áåçûìÿííûé_ãðàäèåíò_18-2" data-name="Áåçûìÿííûé ãðàäèåíò 18" y1="227.51" y2="227.51" xlink:href="#_Áåçûìÿííûé_ãðàäèåíò_18"/>
    <linearGradient id="_Áåçûìÿííûé_ãðàäèåíò_15" data-name="Áåçûìÿííûé ãðàäèåíò 15" x1="130.22" y1="185" x2="319.06" y2="185" gradientUnits="userSpaceOnUse">
      <stop offset="0" stop-color="#42e8e0"/>
      <stop offset=".15" stop-color="#42e3df"/>
      <stop offset=".33" stop-color="#44d4de"/>
      <stop offset=".52" stop-color="#48bddd"/>
      <stop offset=".72" stop-color="#4d9bda"/>
      <stop offset=".93" stop-color="#5471d8"/>
      <stop offset="1" stop-color="#5761d7"/>
    </linearGradient>
    <linearGradient id="_Áåçûìÿííûé_ãðàäèåíò_15-2" data-name="Áåçûìÿííûé ãðàäèåíò 15" x1="224.64" y1="150.87" y2="150.87" xlink:href="#_Áåçûìÿííûé_ãðàäèåíò_15"/>
    <linearGradient id="_Áåçûìÿííûé_ãðàäèåíò_15-3" data-name="Áåçûìÿííûé ãðàäèåíò 15" y1="150.87" x2="224.64" y2="150.87" xlink:href="#_Áåçûìÿííûé_ãðàäèåíò_15"/>
    <linearGradient id="_Áåçûìÿííûé_ãðàäèåíò_15-4" data-name="Áåçûìÿííûé ãðàäèåíò 15" y1="171.26" y2="171.26" xlink:href="#_Áåçûìÿííûé_ãðàäèåíò_15"/>
    <linearGradient id="_Áåçûìÿííûé_ãðàäèåíò_15-5" data-name="Áåçûìÿííûé ãðàäèåíò 15" x1="224.64" y1="205.38" y2="205.38" xlink:href="#_Áåçûìÿííûé_ãðàäèåíò_15"/>
    <linearGradient id="_Áåçûìÿííûé_ãðàäèåíò_15-6" data-name="Áåçûìÿííûé ãðàäèåíò 15" y1="205.38" x2="224.64" y2="205.38" xlink:href="#_Áåçûìÿííûé_ãðàäèåíò_15"/>
    <linearGradient id="_Áåçûìÿííûé_ãðàäèåíò_128" data-name="Áåçûìÿííûé ãðàäèåíò 128" x1="224.57" y1="225.77" x2="224.57" y2="0" gradientUnits="userSpaceOnUse">
      <stop offset="0" stop-color="#42e8e0"/>
      <stop offset=".11" stop-color="#36b5bf"/>
      <stop offset=".22" stop-color="#2c87a0"/>
      <stop offset=".34" stop-color="#235f86"/>
      <stop offset=".46" stop-color="#1b3e71"/>
      <stop offset=".58" stop-color="#162560"/>
      <stop offset=".71" stop-color="#121355"/>
      <stop offset=".85" stop-color="#0f084e"/>
      <stop offset="1" stop-color="#0f054c"/>
    </linearGradient>
  </defs>
  <g class="cls-18">
    <g id="Layer_2" data-name="Layer 2">
      <g id="Layer_1-2" data-name="Layer 1">
        <g class="cls-22">
          <polygon class="cls-9" points="279.35 129.13 279.1 128.72 332.07 97.91 332.19 97.97 386.91 128 386.68 128.42 332.08 98.46 279.35 129.13"/>
          <g class="cls-24">
            <g>
              <polygon class="cls-9" points="224.64 275.59 201.74 262.37 201.74 288.81 224.64 302.03 247.54 288.81 247.54 262.37 224.64 275.59"/>
              <polygon class="cls-9" points="224.64 302.03 201.74 288.81 201.74 262.37 224.64 275.59 224.64 302.03"/>
              <polygon class="cls-25" points="247.54 288.81 224.64 302.03 224.64 275.59 247.54 262.37 247.54 288.81"/>
              <polygon class="cls-9" points="224.64 275.59 201.74 262.37 224.64 249.14 247.54 262.37 224.64 275.59"/>
              <polygon class="cls-1" points="224.64 275.59 202.73 262.94 201.74 263.51 224.64 276.73 247.54 263.51 246.55 262.94 224.64 275.59"/>
            </g>
            <g>
              <polygon class="cls-9" points="254.39 292.56 231.49 279.34 231.49 305.78 254.39 319 277.29 305.78 277.29 279.34 254.39 292.56"/>
              <polygon class="cls-9" points="254.39 319 231.49 305.78 231.49 279.34 254.39 292.56 254.39 319"/>
              <polygon class="cls-25" points="277.29 305.78 254.39 319 254.39 292.56 277.29 279.34 277.29 305.78"/>
              <polygon class="cls-9" points="254.39 292.56 231.49 279.34 254.39 266.12 277.29 279.34 254.39 292.56"/>
              <polygon class="cls-1" points="254.39 292.56 232.48 279.91 231.49 280.49 254.39 293.71 277.29 280.49 276.29 279.91 254.39 292.56"/>
            </g>
            <g>
              <polygon class="cls-9" points="284.13 309.53 261.23 296.31 261.23 322.75 284.13 335.98 307.04 322.75 307.04 296.31 284.13 309.53"/>
              <polygon class="cls-9" points="284.13 335.98 261.23 322.75 261.23 296.31 284.13 309.53 284.13 335.98"/>
              <polygon class="cls-25" points="307.04 322.75 284.13 335.98 284.13 309.53 307.04 296.31 307.04 322.75"/>
              <polygon class="cls-9" points="284.13 309.53 261.23 296.31 284.13 283.09 307.03 296.31 284.13 309.53"/>
              <polygon class="cls-1" points="284.13 309.53 262.23 296.88 261.23 297.46 284.13 310.68 307.03 297.46 307.04 296.31 284.13 309.53"/>
            </g>
            <g>
              <polygon class="cls-9" points="194.89 293.71 171.99 280.49 171.99 306.93 194.89 320.15 217.79 306.93 217.79 280.49 194.89 293.71"/>
              <polygon class="cls-9" points="194.89 320.15 171.99 306.93 171.99 280.49 194.89 293.71 194.89 320.15"/>
              <polygon class="cls-25" points="217.79 306.93 194.89 320.15 194.89 293.71 217.79 280.49 217.79 306.93"/>
              <polygon class="cls-9" points="194.89 293.71 171.99 280.49 194.89 267.26 217.79 280.49 194.89 293.71"/>
              <polygon class="cls-1" points="194.89 293.71 172.99 281.06 171.99 281.63 194.89 294.85 217.79 281.63 216.8 281.06 194.89 293.71"/>
            </g>
            <g>
              <polygon class="cls-9" points="224.64 310.68 201.74 297.46 201.74 323.9 224.64 337.12 247.54 323.9 247.54 297.46 224.64 310.68"/>
              <polygon class="cls-9" points="224.64 337.12 201.74 323.9 201.74 297.46 224.64 310.68 224.64 337.12"/>
              <polygon class="cls-25" points="247.54 323.9 224.64 337.12 224.64 310.68 247.54 297.46 247.54 323.9"/>
              <polygon class="cls-9" points="224.64 310.68 201.74 297.46 224.64 284.24 247.54 297.46 224.64 310.68"/>
              <polygon class="cls-1" points="224.64 310.68 202.73 298.03 201.74 298.61 224.64 311.83 247.54 298.61 246.55 298.03 224.64 310.68"/>
            </g>
            <g>
              <polygon class="cls-9" points="254.39 327.65 231.49 314.43 231.49 340.87 254.39 354.1 277.29 340.87 277.29 314.43 254.39 327.65"/>
              <polygon class="cls-9" points="254.39 354.1 231.49 340.87 231.49 314.43 254.39 327.65 254.39 354.1"/>
              <polygon class="cls-25" points="277.29 340.87 254.39 354.1 254.39 327.65 277.29 314.43 277.29 340.87"/>
              <polygon class="cls-9" points="254.39 327.65 231.49 314.43 254.39 301.21 277.29 314.43 254.39 327.65"/>
              <polygon class="cls-1" points="254.39 327.65 232.48 315 231.49 315.58 254.39 328.8 277.29 315.58 277.29 314.43 254.39 327.65"/>
            </g>
            <g>
              <polygon class="cls-9" points="165.15 311.83 142.25 298.61 142.25 325.05 165.15 338.27 188.05 325.05 188.05 298.61 165.15 311.83"/>
              <polygon class="cls-9" points="165.15 338.27 142.25 325.05 142.25 298.61 165.15 311.83 165.15 338.27"/>
              <polygon class="cls-25" points="188.05 325.05 165.15 338.27 165.15 311.83 188.05 298.61 188.05 325.05"/>
              <polygon class="cls-9" points="165.15 311.83 142.25 298.61 165.15 285.38 188.05 298.61 165.15 311.83"/>
              <polygon class="cls-1" points="165.15 311.83 142.25 298.61 142.25 299.75 165.15 312.97 188.05 299.75 187.05 299.18 165.15 311.83"/>
            </g>
            <g>
              <polygon class="cls-9" points="194.89 328.8 171.99 315.58 171.99 342.02 194.89 355.24 217.79 342.02 217.79 315.58 194.89 328.8"/>
              <polygon class="cls-9" points="194.89 355.24 171.99 342.02 171.99 315.58 194.89 328.8 194.89 355.24"/>
              <polygon class="cls-25" points="217.79 342.02 194.89 355.24 194.89 328.8 217.79 315.58 217.79 342.02"/>
              <polygon class="cls-9" points="194.89 328.8 171.99 315.58 194.89 302.36 217.79 315.58 194.89 328.8"/>
              <polygon class="cls-1" points="194.89 328.8 171.99 315.58 171.99 316.73 194.89 329.95 217.79 316.73 216.8 316.15 194.89 328.8"/>
            </g>
            <g>
              <polygon class="cls-9" points="224.64 345.77 201.74 332.55 201.74 358.99 224.64 372.22 247.54 358.99 247.54 332.55 224.64 345.77"/>
              <polygon class="cls-9" points="224.64 372.22 201.74 358.99 201.74 332.55 224.64 345.77 224.64 372.22"/>
              <polygon class="cls-25" points="247.54 358.99 224.64 372.22 224.64 345.77 247.54 332.55 247.54 358.99"/>
              <polygon class="cls-9" points="224.64 345.77 201.74 332.55 224.64 319.33 247.54 332.55 224.64 345.77"/>
              <polygon class="cls-1" points="224.64 345.77 201.74 332.55 201.74 333.7 224.64 346.92 247.54 333.7 247.54 332.55 224.64 345.77"/>
            </g>
            <g>
              <polygon class="cls-9" points="224.64 240.5 201.74 227.27 201.74 253.72 224.64 266.94 247.54 253.72 247.54 227.27 224.64 240.5"/>
              <polygon class="cls-9" points="224.64 266.94 201.74 253.72 201.74 227.27 224.64 240.5 224.64 266.94"/>
              <polygon class="cls-25" points="247.54 253.72 224.64 266.94 224.64 240.5 247.54 227.27 247.54 253.72"/>
              <polygon class="cls-9" points="224.64 240.5 201.74 227.27 224.64 214.05 247.54 227.27 224.64 240.5"/>
              <polygon class="cls-1" points="224.64 240.5 202.73 227.85 201.74 228.42 224.64 241.64 247.54 228.42 246.55 227.85 224.64 240.5"/>
            </g>
            <g>
              <polygon class="cls-23" points="224.64 341.47 209.02 332.45 224.64 323.43 240.26 332.45 224.64 341.47"/>
              <polygon class="cls-23" points="194.89 324.49 179.27 315.47 194.89 306.46 210.52 315.47 194.89 324.49"/>
              <polygon class="cls-23" points="254.39 323.35 238.76 314.33 254.39 305.31 270.01 314.33 254.39 323.35"/>
              <polygon class="cls-23" points="284.19 305.43 268.57 296.42 284.19 287.4 299.81 296.42 284.19 305.43"/>
              <polygon class="cls-23" points="165.15 307.52 149.52 298.5 165.15 289.48 180.77 298.5 165.15 307.52"/>
            </g>
            <g>
              <polygon class="cls-9" points="254.39 257.47 231.49 244.25 231.49 270.69 254.39 283.91 277.29 270.69 277.29 244.25 254.39 257.47"/>
              <polygon class="cls-9" points="254.39 283.91 231.49 270.69 231.49 244.25 254.39 257.47 254.39 283.91"/>
              <polygon class="cls-25" points="277.29 270.69 254.39 283.91 254.39 257.47 277.29 244.25 277.29 270.69"/>
              <polygon class="cls-9" points="254.39 257.47 231.49 244.25 254.39 231.02 277.29 244.25 254.39 257.47"/>
              <polygon class="cls-1" points="254.39 257.47 232.48 244.82 231.49 245.39 254.39 258.61 277.29 245.39 276.29 244.82 254.39 257.47"/>
            </g>
            <g>
              <polygon class="cls-9" points="284.13 274.44 261.23 261.22 261.23 287.66 284.13 300.88 307.04 287.66 307.04 261.22 284.13 274.44"/>
              <polygon class="cls-9" points="284.13 300.88 261.23 287.66 261.23 261.22 284.13 274.44 284.13 300.88"/>
              <polygon class="cls-25" points="307.04 287.66 284.13 300.88 284.13 274.44 307.04 261.22 307.04 287.66"/>
              <polygon class="cls-9" points="284.13 274.44 261.23 261.22 284.13 248 307.03 261.22 284.13 274.44"/>
              <polygon class="cls-1" points="284.13 274.44 262.23 261.79 261.23 262.37 284.13 275.59 307.03 262.37 307.04 261.22 284.13 274.44"/>
            </g>
            <g>
              <polygon class="cls-9" points="194.89 258.62 171.99 245.39 171.99 271.84 194.89 285.06 217.79 271.84 217.79 245.39 194.89 258.62"/>
              <polygon class="cls-9" points="194.89 285.06 171.99 271.84 171.99 245.39 194.89 258.61 194.89 285.06"/>
              <polygon class="cls-25" points="217.79 271.84 194.89 285.06 194.89 258.61 217.79 245.39 217.79 271.84"/>
              <polygon class="cls-9" points="194.89 258.61 171.99 245.39 194.89 232.17 217.79 245.39 194.89 258.61"/>
              <polygon class="cls-1" points="194.89 258.62 172.99 245.97 171.99 246.54 194.89 259.76 217.79 246.54 216.8 245.97 194.89 258.62"/>
            </g>
            <g>
              <polygon class="cls-9" points="224.64 275.59 201.74 262.37 201.74 288.81 224.64 302.03 247.54 288.81 247.54 262.37 224.64 275.59"/>
              <polygon class="cls-9" points="224.64 302.03 201.74 288.81 201.74 262.37 224.64 275.59 224.64 302.03"/>
              <polygon class="cls-25" points="247.54 288.81 224.64 302.03 224.64 275.59 247.54 262.37 247.54 288.81"/>
              <polygon class="cls-9" points="224.64 275.59 201.74 262.37 224.64 249.14 247.54 262.37 224.64 275.59"/>
              <polygon class="cls-1" points="224.64 275.59 202.73 262.94 201.74 263.51 224.64 276.73 247.54 263.51 246.55 262.94 224.64 275.59"/>
            </g>
            <g>
              <polygon class="cls-9" points="254.39 292.56 231.49 279.34 231.49 305.78 254.39 319 277.29 305.78 277.29 279.34 254.39 292.56"/>
              <polygon class="cls-9" points="254.39 319 231.49 305.78 231.49 279.34 254.39 292.56 254.39 319"/>
              <polygon class="cls-25" points="277.29 305.78 254.39 319 254.39 292.56 277.29 279.34 277.29 305.78"/>
              <polygon class="cls-9" points="254.39 292.56 231.49 279.34 254.39 266.12 277.29 279.34 254.39 292.56"/>
              <polygon class="cls-1" points="254.39 292.56 232.48 279.91 231.49 280.49 254.39 293.71 277.29 280.49 277.29 279.34 254.39 292.56"/>
            </g>
            <g>
              <polygon class="cls-9" points="165.15 276.74 142.25 263.51 142.25 289.96 165.15 303.18 188.05 289.96 188.05 263.51 165.15 276.74"/>
              <polygon class="cls-9" points="165.15 303.18 142.25 289.96 142.25 263.51 165.15 276.74 165.15 303.18"/>
              <polygon class="cls-25" points="188.05 289.96 165.15 303.18 165.15 276.74 188.05 263.51 188.05 289.96"/>
              <polygon class="cls-9" points="165.15 276.74 142.25 263.51 165.15 250.29 188.05 263.51 165.15 276.74"/>
              <polygon class="cls-1" points="165.15 276.74 143.24 264.09 142.25 264.66 165.15 277.88 188.05 264.66 187.05 264.09 165.15 276.74"/>
            </g>
            <g>
              <polygon class="cls-9" points="194.89 293.71 171.99 280.49 171.99 306.93 194.89 320.15 217.79 306.93 217.79 280.49 194.89 293.71"/>
              <polygon class="cls-9" points="194.89 320.15 171.99 306.93 171.99 280.49 194.89 293.71 194.89 320.15"/>
              <polygon class="cls-25" points="217.79 306.93 194.89 320.15 194.89 293.71 217.79 280.49 217.79 306.93"/>
              <polygon class="cls-9" points="194.89 293.71 171.99 280.49 194.89 267.26 217.79 280.49 194.89 293.71"/>
              <polygon class="cls-1" points="194.89 293.71 171.99 280.49 171.99 281.63 194.89 294.85 217.79 281.63 216.8 281.06 194.89 293.71"/>
            </g>
            <g>
              <polygon class="cls-9" points="224.64 310.68 201.74 297.46 201.74 323.9 224.64 337.12 247.54 323.9 247.54 297.46 224.64 310.68"/>
              <polygon class="cls-9" points="224.64 337.12 201.74 323.9 201.74 297.46 224.64 310.68 224.64 337.12"/>
              <polygon class="cls-25" points="247.54 323.9 224.64 337.12 224.64 310.68 247.54 297.46 247.54 323.9"/>
              <polygon class="cls-9" points="224.64 310.68 201.74 297.46 224.64 284.24 247.54 297.46 224.64 310.68"/>
              <polygon class="cls-1" points="224.64 310.68 201.74 297.46 201.74 298.61 224.64 311.83 247.54 298.61 247.54 297.46 224.64 310.68"/>
            </g>
            <g>
              <polygon class="cls-23" points="284.19 270.5 268.57 261.48 284.19 252.46 299.81 261.48 284.19 270.5"/>
              <polygon class="cls-23" points="165.15 272.58 149.52 263.56 165.15 254.55 180.77 263.56 165.15 272.58"/>
            </g>
            <g>
              <polygon class="cls-9" points="224.64 205.4 201.74 192.18 201.74 218.62 224.64 231.85 247.54 218.62 247.54 192.18 224.64 205.4"/>
              <polygon class="cls-9" points="224.64 231.85 201.74 218.62 201.74 192.18 224.64 205.4 224.64 231.85"/>
              <polygon class="cls-25" points="247.54 218.62 224.64 231.85 224.64 205.4 247.54 192.18 247.54 218.62"/>
              <polygon class="cls-9" points="224.64 205.4 201.74 192.18 224.64 178.96 247.54 192.18 224.64 205.4"/>
              <polygon class="cls-1" points="224.64 205.4 201.74 192.18 201.74 193.33 224.64 206.55 247.54 193.33 247.54 192.18 224.64 205.4"/>
            </g>
            <g>
              <polygon class="cls-9" points="254.39 222.38 231.49 209.15 231.49 235.6 254.39 248.82 277.29 235.6 277.29 209.15 254.39 222.38"/>
              <polygon class="cls-9" points="254.39 248.82 231.49 235.6 231.49 209.15 254.39 222.38 254.39 248.82"/>
              <polygon class="cls-25" points="277.29 235.6 254.39 248.82 254.39 222.38 277.29 209.15 277.29 235.6"/>
              <polygon class="cls-9" points="254.39 222.38 231.49 209.15 254.39 195.93 277.29 209.15 254.39 222.38"/>
              <polygon class="cls-1" points="254.39 222.38 231.49 209.15 231.49 210.3 254.39 223.52 277.29 210.3 277.29 209.15 254.39 222.38"/>
            </g>
            <g>
              <polygon class="cls-9" points="284.13 239.35 261.23 226.13 261.23 252.57 284.13 265.79 307.04 252.57 307.04 226.13 284.13 239.35"/>
              <polygon class="cls-9" points="284.13 265.79 261.23 252.57 261.23 226.13 284.13 239.35 284.13 265.79"/>
              <polygon class="cls-25" points="307.04 252.57 284.13 265.79 284.13 239.35 307.04 226.13 307.04 252.57"/>
              <polygon class="cls-9" points="284.13 239.35 261.23 226.13 284.13 212.9 307.03 226.13 284.13 239.35"/>
              <polygon class="cls-1" points="284.13 239.35 261.23 226.13 261.23 227.27 284.13 240.5 307.03 227.27 307.04 226.13 284.13 239.35"/>
            </g>
            <g>
              <polygon class="cls-9" points="194.89 223.52 171.99 210.3 171.99 236.74 194.89 249.97 217.79 236.74 217.79 210.3 194.89 223.52"/>
              <polygon class="cls-9" points="194.89 249.97 171.99 236.74 171.99 210.3 194.89 223.52 194.89 249.97"/>
              <polygon class="cls-25" points="217.79 236.74 194.89 249.97 194.89 223.52 217.79 210.3 217.79 236.74"/>
              <polygon class="cls-9" points="194.89 223.52 171.99 210.3 194.89 197.08 217.79 210.3 194.89 223.52"/>
              <polygon class="cls-1" points="194.89 223.52 171.99 210.3 171.99 211.45 194.89 224.67 217.79 211.45 217.79 210.3 194.89 223.52"/>
            </g>
            <g>
              <polygon class="cls-9" points="165.15 241.64 142.25 228.42 142.25 254.86 165.15 268.09 188.05 254.86 188.05 228.42 165.15 241.64"/>
              <polygon class="cls-9" points="165.15 268.09 142.25 254.86 142.25 228.42 165.15 241.64 165.15 268.09"/>
              <polygon class="cls-25" points="188.05 254.86 165.15 268.09 165.15 241.64 188.05 228.42 188.05 254.86"/>
              <polygon class="cls-9" points="165.15 241.64 142.25 228.42 165.15 215.2 188.05 228.42 165.15 241.64"/>
              <polygon class="cls-1" points="165.15 241.64 142.25 228.42 142.25 229.57 165.15 242.79 188.05 229.57 188.05 228.42 165.15 241.64"/>
            </g>
          </g>
          <g class="cls-19">
            <g>
              <path class="cls-5" d="M255.34,309.11l-15.97-9.22c-2.74-1.58-4.97-5.45-4.97-8.61v-3.85c0-3.01-2.12-6.69-4.73-8.2l-3.34-1.93,.24-.42,3.34,1.93c2.74,1.58,4.97,5.45,4.97,8.61v3.85c0,3.01,2.12,6.69,4.73,8.2l15.97,9.22-.24,.42Z"/>
              <path class="cls-5" d="M261.55,305.53l-15.98-9.22c-2.74-1.58-4.97-5.45-4.97-8.61v-3.85c0-3.01-2.12-6.69-4.73-8.2l-3.34-1.93,.24-.42,3.34,1.93c2.74,1.58,4.97,5.45,4.97,8.61v3.85c0,3.01,2.12,6.69,4.73,8.2l15.98,9.22-.24,.42Z"/>
              <path class="cls-5" d="M267.77,301.95l-15.97-9.22c-2.74-1.58-4.97-5.45-4.97-8.61v-3.85c0-3.01-2.12-6.69-4.73-8.2l-3.34-1.93,.24-.42,3.34,1.93c2.74,1.58,4.97,5.45,4.97,8.61v3.85c0,3.01,2.12,6.69,4.73,8.2l15.97,9.22-.24,.42Z"/>
              <path class="cls-5" d="M273.98,298.36l-15.98-9.22c-2.74-1.58-4.97-5.45-4.97-8.61v-3.85c0-3.01-2.12-6.69-4.73-8.2l-3.34-1.93,.24-.42,3.34,1.93c2.74,1.58,4.97,5.45,4.97,8.61v3.85c0,3.01,2.12,6.69,4.73,8.2l15.98,9.22-.24,.42Z"/>
              <path class="cls-5" d="M280.19,294.78l-15.97-9.22c-2.74-1.58-4.97-5.45-4.97-8.61v-3.85c0-3.01-2.12-6.69-4.73-8.2l-3.34-1.93,.24-.42,3.34,1.93c2.74,1.58,4.97,5.45,4.97,8.61v3.85c0,3.01,2.12,6.69,4.73,8.2l15.97,9.22-.24,.42Z"/>
              <path class="cls-5" d="M286.41,291.2l-15.98-9.22c-2.74-1.58-4.97-5.45-4.97-8.61v-3.85c0-3.01-2.12-6.69-4.73-8.2l-3.34-1.93,.24-.42,3.34,1.93c2.74,1.58,4.97,5.45,4.97,8.61v3.85c0,3.01,2.12,6.69,4.73,8.2l15.98,9.22-.24,.42Z"/>
              <path class="cls-5" d="M292.62,287.62l-15.97-9.22c-2.74-1.58-4.97-5.45-4.97-8.61v-3.85c0-3.01-2.12-6.69-4.73-8.2l-3.34-1.93,.24-.42,3.34,1.93c2.74,1.58,4.97,5.45,4.97,8.61v3.85c0,3.01,2.12,6.69,4.73,8.2l15.97,9.22-.24,.42Z"/>
              <path class="cls-5" d="M298.84,284.04l-15.98-9.22c-2.74-1.58-4.97-5.45-4.97-8.61v-3.85c0-3.01-2.12-6.69-4.73-8.2l-3.34-1.93,.24-.42,3.34,1.93c2.74,1.58,4.97,5.45,4.97,8.61v3.85c0,3.01,2.12,6.69,4.73,8.2l15.98,9.22-.24,.42Z"/>
              <path class="cls-5" d="M305.05,280.46l-15.97-9.22c-2.74-1.58-4.97-5.45-4.97-8.61v-3.85c0-3.01-2.12-6.69-4.73-8.2l-3.34-1.93,.24-.42,3.34,1.93c2.74,1.58,4.97,5.45,4.97,8.61v3.85c0,3.01,2.12,6.69,4.73,8.2l15.97,9.22-.24,.42Z"/>
              <path class="cls-5" d="M311.26,276.88l-15.98-9.22c-2.74-1.58-4.97-5.45-4.97-8.61v-3.85c0-3.01-2.12-6.69-4.73-8.2l-3.34-1.93,.24-.42,3.34,1.93c2.74,1.58,4.97,5.45,4.97,8.61v3.85c0,3.01,2.12,6.69,4.73,8.2l15.98,9.22-.24,.42Z"/>
              <path class="cls-5" d="M317.48,273.3l-15.97-9.22c-2.74-1.58-4.97-5.45-4.97-8.61v-3.85c0-3.01-2.12-6.69-4.73-8.2l-3.34-1.93,.24-.42,3.34,1.93c2.74,1.58,4.97,5.45,4.97,8.61v3.85c0,3.01,2.12,6.69,4.73,8.2l15.97,9.22-.24,.42Z"/>
              <path class="cls-5" d="M323.69,269.72l-15.98-9.22c-2.74-1.58-4.97-5.45-4.97-8.61v-3.85c0-3.01-2.12-6.69-4.73-8.2l-3.34-1.93,.24-.42,3.34,1.93c2.74,1.58,4.97,5.45,4.97,8.61v3.85c0,3.01,2.12,6.69,4.73,8.2l15.98,9.22-.24,.42Z"/>
              <path class="cls-5" d="M329.9,266.14l-15.97-9.22c-2.74-1.58-4.97-5.45-4.97-8.61v-3.85c0-3.01-2.12-6.69-4.73-8.2l-3.34-1.93,.24-.42,3.34,1.93c2.74,1.58,4.97,5.45,4.97,8.61v3.85c0,3.01,2.12,6.69,4.73,8.2l15.97,9.22-.24,.42Z"/>
              <path class="cls-5" d="M336.12,262.56l-15.98-9.22c-2.74-1.58-4.97-5.45-4.97-8.61v-3.85c0-3.01-2.12-6.69-4.73-8.2l-3.34-1.93,.24-.42,3.34,1.93c2.74,1.58,4.97,5.45,4.97,8.61v3.85c0,3.01,2.12,6.69,4.73,8.2l15.98,9.22-.24,.42Z"/>
              <path class="cls-5" d="M342.33,258.98l-15.97-9.22c-2.74-1.58-4.97-5.45-4.97-8.61v-3.85c0-3.01-2.12-6.69-4.73-8.2l-3.34-1.93,.24-.42,3.34,1.93c2.74,1.58,4.97,5.45,4.97,8.61v3.85c0,3.01,2.12,6.69,4.73,8.2l15.97,9.22-.24,.42Z"/>
              <path class="cls-5" d="M348.54,255.4l-15.98-9.22c-2.74-1.58-4.97-5.45-4.97-8.61v-3.85c0-3.01-2.12-6.69-4.73-8.2l-3.34-1.93,.24-.42,3.34,1.93c2.74,1.58,4.97,5.45,4.97,8.61v3.85c0,3.01,2.12,6.69,4.73,8.2l15.98,9.22-.24,.42Z"/>
              <path class="cls-5" d="M354.76,251.82l-15.97-9.22c-2.74-1.58-4.97-5.45-4.97-8.61v-3.85c0-3.01-2.12-6.69-4.73-8.2l-3.34-1.93,.24-.42,3.34,1.93c2.74,1.58,4.97,5.45,4.97,8.61v3.85c0,3.01,2.12,6.69,4.73,8.2l15.97,9.22-.24,.42Z"/>
              <path class="cls-5" d="M360.97,248.24l-15.98-9.22c-2.74-1.58-4.97-5.45-4.97-8.61v-3.85c0-3.01-2.12-6.69-4.73-8.2l-3.34-1.93,.24-.42,3.34,1.93c2.74,1.58,4.97,5.45,4.97,8.61v3.85c0,3.01,2.12,6.69,4.73,8.2l15.98,9.22-.24,.42Z"/>
              <path class="cls-5" d="M367.18,244.66l-15.97-9.22c-2.74-1.58-4.97-5.45-4.97-8.61v-3.85c0-3.01-2.12-6.69-4.73-8.2l-3.34-1.93,.24-.42,3.34,1.93c2.74,1.58,4.97,5.45,4.97,8.61v3.85c0,3.01,2.12,6.69,4.73,8.2l15.97,9.22-.24,.42Z"/>
              <path class="cls-5" d="M373.4,241.08l-15.98-9.22c-2.74-1.58-4.97-5.45-4.97-8.61v-3.85c0-3.01-2.12-6.69-4.73-8.2l-3.34-1.93,.24-.42,3.34,1.93c2.74,1.58,4.97,5.45,4.97,8.61v3.85c0,3.01,2.12,6.69,4.73,8.2l15.98,9.22-.24,.42Z"/>
            </g>
            <g>
              <path class="cls-5" d="M193.5,309.11l-.24-.42,15.98-9.22c2.61-1.51,4.73-5.18,4.73-8.2v-3.85c0-3.17,2.23-7.03,4.97-8.61l3.34-1.93,.24,.42-3.34,1.93c-2.61,1.51-4.73,5.19-4.73,8.2v3.85c0,3.17-2.23,7.03-4.97,8.61l-15.98,9.22Z"/>
              <path class="cls-5" d="M187.29,305.53l-.24-.42,15.98-9.22c2.61-1.51,4.73-5.18,4.73-8.2v-3.85c0-3.17,2.23-7.03,4.97-8.61l3.34-1.93,.24,.42-3.34,1.93c-2.61,1.51-4.73,5.18-4.73,8.2v3.85c0,3.17-2.23,7.03-4.97,8.61l-15.98,9.22Z"/>
              <path class="cls-5" d="M181.07,301.95l-.24-.42,15.98-9.22c2.61-1.51,4.73-5.18,4.73-8.2v-3.85c0-3.17,2.23-7.03,4.97-8.61l3.34-1.93,.24,.42-3.34,1.93c-2.61,1.51-4.73,5.18-4.73,8.2v3.85c0,3.17-2.23,7.03-4.97,8.61l-15.98,9.22Z"/>
              <path class="cls-5" d="M174.86,298.36l-.24-.42,15.98-9.22c2.61-1.51,4.73-5.18,4.73-8.2v-3.85c0-3.17,2.23-7.03,4.97-8.61l3.34-1.93,.24,.42-3.34,1.93c-2.61,1.51-4.73,5.19-4.73,8.2v3.85c0,3.17-2.23,7.03-4.97,8.61l-15.98,9.22Z"/>
              <path class="cls-5" d="M168.65,294.78l-.24-.42,15.98-9.22c2.61-1.51,4.73-5.18,4.73-8.2v-3.85c0-3.17,2.23-7.03,4.97-8.61l3.34-1.93,.24,.42-3.34,1.93c-2.61,1.51-4.73,5.18-4.73,8.2v3.85c0,3.17-2.23,7.03-4.97,8.61l-15.98,9.22Z"/>
              <path class="cls-5" d="M162.43,291.2l-.24-.42,15.98-9.22c2.61-1.51,4.73-5.18,4.73-8.2v-3.85c0-3.17,2.23-7.03,4.97-8.61l3.34-1.93,.24,.42-3.34,1.93c-2.61,1.51-4.73,5.18-4.73,8.2v3.85c0,3.17-2.23,7.03-4.97,8.61l-15.98,9.22Z"/>
              <path class="cls-5" d="M156.22,287.62l-.24-.42,15.98-9.22c2.61-1.51,4.73-5.18,4.73-8.2v-3.85c0-3.17,2.23-7.03,4.97-8.61l3.34-1.93,.24,.42-3.34,1.93c-2.61,1.51-4.73,5.19-4.73,8.2v3.85c0,3.17-2.23,7.03-4.97,8.61l-15.98,9.22Z"/>
              <path class="cls-5" d="M150.01,284.04l-.24-.42,15.98-9.22c2.61-1.51,4.73-5.18,4.73-8.2v-3.85c0-3.17,2.23-7.03,4.97-8.61l3.34-1.93,.24,.42-3.34,1.93c-2.61,1.51-4.73,5.18-4.73,8.2v3.85c0,3.17-2.23,7.03-4.97,8.61l-15.98,9.22Z"/>
              <path class="cls-5" d="M143.79,280.46l-.24-.42,15.98-9.22c2.61-1.51,4.73-5.18,4.73-8.2v-3.85c0-3.17,2.23-7.03,4.97-8.61l3.34-1.93,.24,.42-3.34,1.93c-2.61,1.51-4.73,5.18-4.73,8.2v3.85c0,3.17-2.23,7.03-4.97,8.61l-15.98,9.22Z"/>
              <path class="cls-5" d="M137.58,276.88l-.24-.42,15.98-9.22c2.61-1.51,4.73-5.18,4.73-8.2v-3.85c0-3.17,2.23-7.03,4.97-8.61l3.34-1.93,.24,.42-3.34,1.93c-2.61,1.51-4.73,5.19-4.73,8.2v3.85c0,3.17-2.23,7.03-4.97,8.61l-15.98,9.22Z"/>
              <path class="cls-5" d="M131.37,273.3l-.24-.42,15.98-9.22c2.61-1.51,4.73-5.18,4.73-8.2v-3.85c0-3.17,2.23-7.03,4.97-8.61l3.34-1.93,.24,.42-3.34,1.93c-2.61,1.51-4.73,5.18-4.73,8.2v3.85c0,3.17-2.23,7.03-4.97,8.61l-15.98,9.22Z"/>
              <path class="cls-5" d="M125.15,269.72l-.24-.42,15.98-9.22c2.61-1.51,4.73-5.19,4.73-8.2v-3.85c0-3.17,2.23-7.03,4.97-8.61l3.34-1.93,.24,.42-3.34,1.93c-2.61,1.51-4.73,5.18-4.73,8.2v3.85c0,3.17-2.23,7.03-4.97,8.61l-15.98,9.22Z"/>
              <path class="cls-5" d="M118.94,266.14l-.24-.42,15.98-9.22c2.61-1.51,4.73-5.18,4.73-8.2v-3.85c0-3.17,2.23-7.03,4.97-8.61l3.34-1.93,.24,.42-3.34,1.93c-2.61,1.51-4.73,5.19-4.73,8.2v3.85c0,3.17-2.23,7.03-4.97,8.61l-15.98,9.22Z"/>
              <path class="cls-5" d="M112.73,262.56l-.24-.42,15.98-9.22c2.61-1.51,4.73-5.18,4.73-8.2v-3.85c0-3.17,2.23-7.03,4.97-8.61l3.34-1.93,.24,.42-3.34,1.93c-2.61,1.51-4.73,5.18-4.73,8.2v3.85c0,3.17-2.23,7.03-4.97,8.61l-15.98,9.22Z"/>
              <path class="cls-5" d="M106.51,258.98l-.24-.42,15.98-9.22c2.61-1.51,4.73-5.19,4.73-8.2v-3.85c0-3.17,2.23-7.03,4.97-8.61l3.34-1.93,.24,.42-3.34,1.93c-2.61,1.51-4.73,5.18-4.73,8.2v3.85c0,3.17-2.23,7.03-4.97,8.61l-15.98,9.22Z"/>
              <path class="cls-5" d="M100.3,255.4l-.24-.42,15.98-9.22c2.61-1.51,4.73-5.18,4.73-8.2v-3.85c0-3.17,2.23-7.03,4.97-8.61l3.34-1.93,.24,.42-3.34,1.93c-2.61,1.51-4.73,5.18-4.73,8.2v3.85c0,3.17-2.23,7.03-4.97,8.61l-15.98,9.22Z"/>
              <path class="cls-5" d="M94.09,251.82l-.24-.42,15.98-9.22c2.61-1.51,4.73-5.18,4.73-8.2v-3.85c0-3.17,2.23-7.03,4.97-8.61l3.34-1.93,.24,.42-3.34,1.93c-2.61,1.51-4.73,5.18-4.73,8.2v3.85c0,3.17-2.23,7.03-4.97,8.61l-15.98,9.22Z"/>
              <path class="cls-5" d="M87.87,248.24l-.24-.42,15.98-9.22c2.61-1.51,4.73-5.19,4.73-8.2v-3.85c0-3.17,2.23-7.03,4.97-8.61l3.34-1.93,.24,.42-3.34,1.93c-2.61,1.51-4.73,5.18-4.73,8.2v3.85c0,3.17-2.23,7.03-4.97,8.61l-15.98,9.22Z"/>
              <path class="cls-5" d="M81.66,244.66l-.24-.42,15.98-9.22c2.61-1.51,4.73-5.18,4.73-8.2v-3.85c0-3.17,2.23-7.03,4.97-8.61l3.34-1.93,.24,.42-3.34,1.93c-2.61,1.51-4.73,5.18-4.73,8.2v3.85c0,3.17-2.23,7.03-4.97,8.61l-15.98,9.22Z"/>
              <path class="cls-5" d="M75.45,241.08l-.24-.42,15.98-9.22c2.61-1.51,4.73-5.18,4.73-8.2v-3.85c0-3.17,2.23-7.03,4.97-8.61l3.34-1.93,.24,.42-3.34,1.93c-2.61,1.51-4.73,5.18-4.73,8.2v3.85c0,3.17-2.23,7.03-4.97,8.61l-15.98,9.22Z"/>
            </g>
            <g>
              <polygon class="cls-11" points="347.4 214.96 347.4 229.15 224.64 300.02 101.88 229.14 101.88 214.96 347.4 214.96"/>
              <polygon class="cls-2" points="224.64 285.83 101.88 214.96 224.64 144.09 347.4 214.96 224.64 285.83"/>
              <polygon class="cls-1" points="224.64 284.18 103.32 214.13 101.88 214.96 224.64 285.83 347.4 214.96 345.96 214.13 224.64 284.18"/>
            </g>
          </g>
          <g>
            <g>
              <path class="cls-5" d="M211.86,123.83c-.71,0-1.49-.23-2.29-.7l-15.98-9.22,.24-.42,15.98,9.22c1.22,.71,2.35,.82,3.19,.34,.84-.49,1.3-1.53,1.3-2.93v-3.85c0-1.59,.55-2.78,1.54-3.35,.99-.57,2.3-.45,3.67,.34l3.34,1.93-.24,.42-3.34-1.93c-1.22-.7-2.35-.82-3.19-.34-.84,.49-1.3,1.53-1.3,2.93v3.85c0,1.59-.55,2.78-1.54,3.35-.41,.24-.88,.36-1.38,.36Z"/>
              <path class="cls-5" d="M205.64,127.41c-.71,0-1.49-.23-2.29-.7l-15.98-9.22,.24-.42,15.98,9.22c1.22,.7,2.35,.83,3.19,.34,.84-.48,1.3-1.53,1.3-2.93v-3.85c0-1.59,.55-2.78,1.54-3.35,.99-.58,2.3-.45,3.67,.34l3.34,1.93-.24,.42-3.34-1.93c-1.22-.7-2.35-.82-3.19-.34-.84,.48-1.3,1.53-1.3,2.93v3.85c0,1.59-.55,2.78-1.54,3.35-.41,.24-.88,.36-1.38,.36Z"/>
              <path class="cls-5" d="M199.43,130.98c-.71,0-1.49-.23-2.29-.7l-15.97-9.22,.24-.42,15.97,9.22c1.22,.7,2.35,.83,3.19,.34,.84-.48,1.3-1.53,1.3-2.93v-3.85c0-1.59,.55-2.78,1.54-3.35,.99-.58,2.3-.45,3.67,.34l3.34,1.93-.24,.42-3.34-1.93c-1.22-.7-2.35-.82-3.19-.34-.84,.48-1.3,1.53-1.3,2.93v3.85c0,1.59-.55,2.78-1.54,3.35-.41,.24-.88,.36-1.38,.36Z"/>
              <path class="cls-5" d="M193.22,134.56c-.71,0-1.49-.23-2.29-.7l-15.98-9.22,.24-.42,15.98,9.22c1.22,.7,2.35,.83,3.19,.34,.84-.48,1.3-1.53,1.3-2.93v-3.85c0-1.59,.55-2.78,1.54-3.35,.99-.58,2.3-.45,3.67,.34l3.34,1.93-.24,.42-3.34-1.93c-1.22-.7-2.35-.82-3.19-.34-.84,.48-1.3,1.53-1.3,2.93v3.85c0,1.59-.55,2.78-1.54,3.35-.41,.24-.88,.36-1.38,.36Z"/>
              <path class="cls-5" d="M187,138.13c-.71,0-1.49-.23-2.29-.7l-15.97-9.22,.24-.42,15.97,9.22c1.22,.71,2.35,.83,3.19,.34,.84-.48,1.3-1.53,1.3-2.93v-3.85c0-1.59,.55-2.78,1.54-3.35,.99-.58,2.3-.45,3.67,.34l3.34,1.93-.24,.42-3.34-1.93c-1.22-.7-2.35-.82-3.19-.34-.84,.48-1.3,1.53-1.3,2.93v3.85c0,1.59-.55,2.78-1.54,3.35-.41,.24-.88,.36-1.38,.36Z"/>
              <path class="cls-5" d="M180.79,141.71c-.71,0-1.48-.23-2.29-.7l-15.98-9.22,.24-.42,15.98,9.22c1.22,.7,2.35,.83,3.19,.34,.84-.48,1.3-1.53,1.3-2.93v-3.85c0-1.59,.55-2.78,1.54-3.35,.99-.57,2.3-.45,3.67,.34l3.34,1.93-.24,.42-3.34-1.93c-1.22-.7-2.35-.82-3.19-.34-.84,.48-1.3,1.53-1.3,2.93v3.85c0,1.59-.55,2.78-1.54,3.35-.41,.24-.88,.36-1.38,.36Z"/>
              <path class="cls-5" d="M174.58,145.28c-.71,0-1.49-.23-2.29-.7l-15.97-9.22,.24-.42,15.97,9.22c1.22,.7,2.35,.83,3.19,.34,.84-.48,1.3-1.53,1.3-2.93v-3.85c0-1.59,.55-2.78,1.54-3.35,.99-.57,2.3-.45,3.67,.34l3.34,1.93-.24,.42-3.34-1.93c-1.22-.7-2.35-.83-3.19-.34-.84,.48-1.3,1.53-1.3,2.93v3.85c0,1.59-.55,2.78-1.54,3.35-.41,.24-.88,.36-1.38,.36Z"/>
              <path class="cls-5" d="M168.36,148.85c-.71,0-1.48-.23-2.29-.7l-15.98-9.22,.24-.42,15.98,9.22c1.22,.7,2.35,.83,3.19,.34,.84-.48,1.3-1.53,1.3-2.93v-3.85c0-1.59,.55-2.78,1.54-3.35,.99-.57,2.3-.45,3.67,.34l3.34,1.93-.24,.42-3.34-1.93c-1.22-.7-2.35-.83-3.19-.34-.84,.48-1.3,1.53-1.3,2.93v3.85c0,1.59-.55,2.78-1.54,3.35-.41,.24-.88,.36-1.38,.36Z"/>
              <path class="cls-5" d="M162.15,152.43c-.71,0-1.49-.23-2.29-.7l-15.97-9.22,.24-.42,15.97,9.22c1.22,.71,2.35,.82,3.19,.34,.84-.49,1.3-1.53,1.3-2.93v-3.85c0-1.59,.55-2.78,1.54-3.35,.99-.57,2.3-.45,3.67,.34l3.34,1.93-.24,.42-3.34-1.93c-1.22-.71-2.35-.82-3.19-.34-.84,.49-1.3,1.53-1.3,2.93v3.85c0,1.59-.55,2.78-1.54,3.35-.41,.24-.88,.36-1.38,.36Z"/>
              <path class="cls-5" d="M155.94,156c-.71,0-1.49-.23-2.29-.7l-15.98-9.22,.24-.42,15.98,9.22c1.22,.7,2.35,.83,3.19,.34,.84-.48,1.3-1.53,1.3-2.93v-3.85c0-1.59,.55-2.78,1.54-3.35,.99-.58,2.3-.45,3.67,.34l3.34,1.93-.24,.42-3.34-1.93c-1.22-.7-2.35-.82-3.19-.34-.84,.48-1.3,1.53-1.3,2.93v3.85c0,1.59-.55,2.78-1.54,3.35-.41,.24-.88,.36-1.38,.36Z"/>
              <path class="cls-5" d="M149.72,159.58c-.71,0-1.49-.23-2.29-.7l-15.97-9.22,.24-.42,15.97,9.22c1.22,.71,2.35,.83,3.19,.34,.84-.48,1.3-1.53,1.3-2.93v-3.85c0-1.59,.55-2.78,1.54-3.35,.99-.57,2.3-.45,3.67,.34l3.34,1.93-.24,.42-3.34-1.93c-1.22-.7-2.35-.82-3.19-.34-.84,.48-1.3,1.53-1.3,2.93v3.85c0,1.59-.55,2.78-1.54,3.35-.41,.24-.88,.36-1.38,.36Z"/>
              <path class="cls-5" d="M143.51,163.15c-.71,0-1.49-.23-2.29-.7l-15.98-9.22,.24-.42,15.98,9.22c1.22,.7,2.35,.83,3.19,.34,.84-.48,1.3-1.53,1.3-2.93v-3.85c0-1.59,.55-2.78,1.54-3.35,.99-.58,2.3-.45,3.67,.34l3.34,1.93-.24,.42-3.34-1.93c-1.22-.7-2.35-.82-3.19-.34-.84,.48-1.3,1.53-1.3,2.93v3.85c0,1.59-.55,2.78-1.54,3.35-.41,.24-.88,.36-1.38,.36Z"/>
              <path class="cls-5" d="M137.3,166.73c-.71,0-1.49-.23-2.29-.7l-15.97-9.22,.24-.42,15.97,9.22c1.22,.7,2.35,.83,3.19,.34,.84-.48,1.3-1.53,1.3-2.93v-3.85c0-1.59,.55-2.78,1.54-3.35,.99-.58,2.3-.45,3.67,.34l3.34,1.93-.24,.42-3.34-1.93c-1.22-.7-2.35-.83-3.19-.34-.84,.48-1.3,1.53-1.3,2.93v3.85c0,1.59-.55,2.78-1.54,3.35-.41,.24-.88,.36-1.38,.36Z"/>
              <path class="cls-5" d="M131.08,170.3c-.71,0-1.49-.23-2.29-.7l-15.98-9.22,.24-.42,15.98,9.22c1.22,.7,2.35,.83,3.19,.34,.84-.48,1.3-1.53,1.3-2.93v-3.85c0-1.59,.55-2.78,1.54-3.35,.99-.58,2.3-.45,3.67,.34l3.34,1.93-.24,.42-3.34-1.93c-1.22-.71-2.35-.83-3.19-.34-.84,.48-1.3,1.53-1.3,2.93v3.85c0,1.59-.55,2.78-1.54,3.35-.41,.24-.88,.36-1.38,.36Z"/>
              <path class="cls-5" d="M124.87,173.87c-.71,0-1.49-.23-2.29-.7l-15.97-9.22,.24-.42,15.97,9.22c1.22,.7,2.35,.83,3.19,.34,.84-.48,1.3-1.53,1.3-2.93v-3.85c0-1.59,.55-2.78,1.54-3.35,.99-.58,2.3-.45,3.67,.34l3.34,1.93-.24,.42-3.34-1.93c-1.22-.7-2.35-.83-3.19-.34-.84,.48-1.3,1.53-1.3,2.93v3.85c0,1.59-.55,2.78-1.54,3.35-.41,.24-.88,.36-1.38,.36Z"/>
              <path class="cls-5" d="M118.66,177.45c-.71,0-1.49-.23-2.29-.7l-15.98-9.22,.24-.42,15.98,9.22c1.22,.7,2.35,.82,3.19,.34,.84-.49,1.3-1.53,1.3-2.93v-3.85c0-1.59,.55-2.78,1.54-3.35,.99-.58,2.3-.45,3.67,.34l3.34,1.93-.24,.42-3.34-1.93c-1.22-.7-2.35-.83-3.19-.34-.84,.48-1.3,1.53-1.3,2.93v3.85c0,1.59-.55,2.78-1.54,3.35-.41,.24-.88,.36-1.38,.36Z"/>
              <path class="cls-5" d="M112.44,181.02c-.71,0-1.49-.23-2.29-.7l-15.97-9.22,.24-.42,15.97,9.22c1.22,.71,2.35,.82,3.19,.34,.84-.49,1.3-1.53,1.3-2.93v-3.85c0-1.59,.55-2.78,1.54-3.35,.99-.57,2.3-.45,3.67,.34l3.34,1.93-.24,.42-3.34-1.93c-1.22-.7-2.35-.82-3.19-.34-.84,.49-1.3,1.53-1.3,2.93v3.85c0,1.59-.55,2.78-1.54,3.35-.41,.24-.88,.36-1.38,.36Z"/>
              <path class="cls-5" d="M106.23,184.6c-.71,0-1.49-.23-2.29-.7l-15.98-9.22,.24-.42,15.98,9.22c1.22,.7,2.35,.83,3.19,.34,.84-.48,1.3-1.53,1.3-2.93v-3.85c0-1.59,.55-2.78,1.54-3.35,.99-.58,2.3-.45,3.67,.34l3.34,1.93-.24,.42-3.34-1.93c-1.22-.7-2.35-.82-3.19-.34-.84,.48-1.3,1.53-1.3,2.93v3.85c0,1.59-.55,2.78-1.54,3.35-.41,.24-.88,.36-1.38,.36Z"/>
              <path class="cls-5" d="M100.02,188.17c-.71,0-1.49-.23-2.29-.7l-15.97-9.22,.24-.42,15.97,9.22c1.22,.7,2.35,.83,3.19,.34,.84-.48,1.3-1.53,1.3-2.93v-3.85c0-1.59,.55-2.78,1.54-3.35,.99-.58,2.3-.45,3.67,.34l3.34,1.93-.24,.42-3.34-1.93c-1.22-.7-2.35-.82-3.19-.34-.84,.48-1.3,1.53-1.3,2.93v3.85c0,1.59-.55,2.78-1.54,3.35-.41,.24-.88,.36-1.38,.36Z"/>
              <path class="cls-5" d="M93.8,191.75c-.71,0-1.49-.23-2.29-.7l-15.98-9.22,.24-.42,15.98,9.22c1.22,.7,2.35,.83,3.19,.34,.84-.48,1.3-1.53,1.3-2.93v-3.85c0-1.59,.55-2.78,1.54-3.35,.99-.58,2.3-.45,3.67,.34l3.34,1.93-.24,.42-3.34-1.93c-1.22-.7-2.35-.82-3.19-.34-.84,.48-1.3,1.53-1.3,2.93v3.85c0,1.59-.55,2.78-1.54,3.35-.41,.24-.88,.36-1.38,.36Z"/>
            </g>
            <g>
              <path class="cls-5" d="M237.32,124.13c-.5,0-.97-.12-1.38-.36-.99-.57-1.54-1.76-1.54-3.35v-3.85c0-1.41-.46-2.45-1.3-2.93-.84-.49-1.97-.36-3.19,.34l-3.34,1.93-.24-.42,3.34-1.93c1.37-.8,2.68-.91,3.67-.34,.99,.57,1.54,1.76,1.54,3.35v3.85c0,1.41,.46,2.45,1.3,2.93,.84,.49,1.97,.36,3.19-.34l15.97-9.22,.24,.42-15.97,9.22c-.8,.46-1.58,.7-2.29,.7Z"/>
              <path class="cls-5" d="M243.53,127.7c-.5,0-.97-.12-1.38-.36-.99-.57-1.54-1.76-1.54-3.35v-3.85c0-1.41-.46-2.45-1.3-2.93-.84-.48-1.97-.36-3.19,.34l-3.34,1.93-.24-.42,3.34-1.93c1.38-.8,2.68-.91,3.67-.34,.99,.57,1.54,1.76,1.54,3.35v3.85c0,1.41,.46,2.45,1.3,2.93,.84,.49,1.97,.36,3.19-.34l15.98-9.22,.24,.42-15.98,9.22c-.8,.46-1.58,.7-2.29,.7Z"/>
              <path class="cls-5" d="M249.75,131.28c-.5,0-.97-.12-1.38-.36-.99-.57-1.54-1.76-1.54-3.35v-3.85c0-1.41-.46-2.45-1.3-2.93-.84-.49-1.97-.36-3.19,.34l-3.34,1.93-.24-.42,3.34-1.93c1.37-.8,2.68-.91,3.67-.34,.99,.57,1.54,1.76,1.54,3.35v3.85c0,1.41,.46,2.45,1.3,2.93,.84,.49,1.97,.36,3.19-.34l15.97-9.22,.24,.42-15.97,9.22c-.8,.46-1.58,.7-2.29,.7Z"/>
              <path class="cls-5" d="M255.96,134.85c-.5,0-.97-.12-1.38-.36-.99-.57-1.54-1.76-1.54-3.35v-3.85c0-1.41-.46-2.45-1.3-2.93-.84-.48-1.97-.37-3.19,.34l-3.34,1.93-.24-.42,3.34-1.93c1.37-.8,2.68-.91,3.67-.34,.99,.57,1.54,1.76,1.54,3.35v3.85c0,1.41,.46,2.45,1.3,2.93,.84,.48,1.97,.36,3.19-.34l15.98-9.22,.24,.42-15.98,9.22c-.8,.46-1.58,.7-2.29,.7Z"/>
              <path class="cls-5" d="M262.17,138.42c-.5,0-.97-.12-1.38-.36-.99-.57-1.54-1.76-1.54-3.35v-3.85c0-1.41-.46-2.45-1.3-2.93-.84-.49-1.97-.36-3.19,.34l-3.34,1.93-.24-.42,3.34-1.93c1.37-.79,2.68-.91,3.67-.34,.99,.57,1.54,1.76,1.54,3.35v3.85c0,1.41,.46,2.45,1.3,2.93,.84,.49,1.97,.36,3.19-.34l15.97-9.22,.24,.42-15.97,9.22c-.8,.46-1.58,.7-2.29,.7Z"/>
              <path class="cls-5" d="M268.38,142c-.5,0-.97-.12-1.38-.36-.99-.57-1.54-1.76-1.54-3.35v-3.85c0-1.41-.46-2.45-1.3-2.93-.84-.48-1.97-.36-3.19,.34l-3.34,1.93-.24-.42,3.34-1.93c1.37-.79,2.68-.91,3.67-.34,.99,.57,1.54,1.76,1.54,3.35v3.85c0,1.41,.46,2.45,1.3,2.93,.84,.48,1.97,.36,3.19-.34l15.98-9.22,.24,.42-15.98,9.22c-.8,.46-1.58,.7-2.29,.7Z"/>
              <path class="cls-5" d="M274.6,145.57c-.5,0-.97-.12-1.38-.36-.99-.57-1.54-1.76-1.54-3.35v-3.85c0-1.41-.46-2.45-1.3-2.93-.84-.48-1.97-.36-3.19,.34l-3.34,1.93-.24-.42,3.34-1.93c1.37-.79,2.68-.91,3.67-.34,.99,.57,1.54,1.76,1.54,3.35v3.85c0,1.41,.46,2.45,1.3,2.93,.84,.49,1.97,.37,3.19-.34l15.97-9.22,.24,.42-15.97,9.22c-.8,.46-1.58,.7-2.29,.7Z"/>
              <path class="cls-5" d="M280.81,149.15c-.5,0-.97-.12-1.38-.36-.99-.57-1.54-1.76-1.54-3.35v-3.85c0-1.41-.46-2.45-1.3-2.93-.84-.49-1.97-.36-3.19,.34l-3.34,1.93-.24-.42,3.34-1.93c1.38-.79,2.68-.92,3.67-.34,.99,.57,1.54,1.76,1.54,3.35v3.85c0,1.41,.46,2.45,1.3,2.93,.84,.48,1.97,.36,3.19-.34l15.98-9.22,.24,.42-15.98,9.22c-.8,.46-1.58,.7-2.29,.7Z"/>
              <path class="cls-5" d="M287.03,152.72c-.5,0-.97-.12-1.38-.36-.99-.57-1.54-1.76-1.54-3.35v-3.85c0-1.41-.46-2.45-1.3-2.93-.84-.49-1.97-.36-3.19,.34l-3.34,1.93-.24-.42,3.34-1.93c1.37-.79,2.68-.92,3.67-.34,.99,.57,1.54,1.76,1.54,3.35v3.85c0,1.41,.46,2.45,1.3,2.93,.84,.49,1.97,.36,3.19-.34l15.97-9.22,.24,.42-15.97,9.22c-.8,.46-1.58,.7-2.29,.7Z"/>
              <path class="cls-5" d="M293.24,156.3c-.5,0-.97-.12-1.38-.36-.99-.57-1.54-1.76-1.54-3.35v-3.85c0-1.41-.46-2.45-1.3-2.93-.84-.49-1.97-.36-3.19,.34l-3.34,1.93-.24-.42,3.34-1.93c1.38-.79,2.68-.91,3.67-.34,.99,.57,1.54,1.76,1.54,3.35v3.85c0,1.41,.46,2.45,1.3,2.93,.84,.48,1.97,.36,3.19-.34l15.98-9.22,.24,.42-15.98,9.22c-.8,.46-1.58,.7-2.29,.7Z"/>
              <path class="cls-5" d="M299.45,159.87c-.5,0-.97-.12-1.38-.36-.99-.57-1.54-1.76-1.54-3.35v-3.85c0-1.41-.46-2.45-1.3-2.93-.84-.49-1.97-.36-3.19,.34l-3.34,1.93-.24-.42,3.34-1.93c1.37-.8,2.68-.92,3.67-.34,.99,.57,1.54,1.76,1.54,3.35v3.85c0,1.41,.46,2.45,1.3,2.93,.84,.49,1.97,.36,3.19-.34l15.97-9.22,.24,.42-15.97,9.22c-.8,.46-1.58,.7-2.29,.7Z"/>
              <path class="cls-5" d="M305.67,163.44c-.5,0-.97-.12-1.38-.36-.99-.57-1.54-1.76-1.54-3.35v-3.85c0-1.41-.46-2.45-1.3-2.93-.84-.48-1.97-.36-3.19,.34l-3.34,1.93-.24-.42,3.34-1.93c1.37-.8,2.68-.91,3.67-.34,.99,.57,1.54,1.76,1.54,3.35v3.85c0,1.41,.46,2.45,1.3,2.93,.84,.48,1.97,.36,3.19-.34l15.98-9.22,.24,.42-15.98,9.22c-.8,.46-1.58,.7-2.29,.7Z"/>
              <path class="cls-5" d="M311.88,167.02c-.5,0-.97-.12-1.38-.36-.99-.57-1.54-1.76-1.54-3.35v-3.85c0-1.41-.46-2.45-1.3-2.93-.84-.48-1.97-.36-3.19,.34l-3.34,1.93-.24-.42,3.34-1.93c1.37-.79,2.68-.91,3.67-.34,.99,.57,1.54,1.76,1.54,3.35v3.85c0,1.41,.46,2.45,1.3,2.93,.84,.49,1.97,.36,3.19-.34l15.97-9.22,.24,.42-15.97,9.22c-.8,.46-1.58,.7-2.29,.7Z"/>
              <path class="cls-5" d="M318.09,170.59c-.5,0-.97-.12-1.38-.36-.99-.57-1.54-1.76-1.54-3.35v-3.85c0-1.41-.46-2.45-1.3-2.93-.84-.49-1.97-.36-3.19,.34l-3.34,1.93-.24-.42,3.34-1.93c1.37-.79,2.68-.91,3.67-.34,.99,.57,1.54,1.76,1.54,3.35v3.85c0,1.41,.46,2.45,1.3,2.93,.84,.49,1.97,.36,3.19-.34l15.98-9.22,.24,.42-15.98,9.22c-.8,.46-1.58,.7-2.29,.7Z"/>
              <path class="cls-5" d="M324.31,174.17c-.5,0-.97-.12-1.38-.36-.99-.57-1.54-1.76-1.54-3.35v-3.85c0-1.41-.46-2.45-1.3-2.93-.84-.48-1.97-.36-3.19,.34l-3.34,1.93-.24-.42,3.34-1.93c1.37-.79,2.68-.91,3.67-.34,.99,.57,1.54,1.76,1.54,3.35v3.85c0,1.41,.46,2.45,1.3,2.93,.84,.49,1.97,.36,3.19-.34l15.97-9.22,.24,.42-15.97,9.22c-.8,.46-1.58,.7-2.29,.7Z"/>
              <path class="cls-5" d="M330.52,177.74c-.5,0-.97-.12-1.38-.36-.99-.57-1.54-1.76-1.54-3.35v-3.85c0-1.41-.46-2.45-1.3-2.93-.84-.49-1.97-.36-3.19,.34l-3.34,1.93-.24-.42,3.34-1.93c1.38-.8,2.68-.91,3.67-.34,.99,.57,1.54,1.76,1.54,3.35v3.85c0,1.41,.46,2.45,1.3,2.93,.84,.49,1.97,.36,3.19-.34l15.98-9.22,.24,.42-15.98,9.22c-.8,.46-1.58,.7-2.29,.7Z"/>
              <path class="cls-5" d="M336.73,181.32c-.5,0-.97-.12-1.38-.36-.99-.57-1.54-1.76-1.54-3.35v-3.85c0-1.41-.46-2.45-1.3-2.93-.84-.49-1.97-.36-3.19,.34l-3.34,1.93-.24-.42,3.34-1.93c1.37-.79,2.68-.92,3.67-.34s1.54,1.76,1.54,3.35v3.85c0,1.41,.46,2.45,1.3,2.93,.84,.49,1.97,.36,3.19-.34l15.97-9.22,.24,.42-15.97,9.22c-.8,.46-1.58,.7-2.29,.7Z"/>
              <path class="cls-5" d="M342.95,184.89c-.5,0-.97-.12-1.38-.36-.99-.57-1.54-1.76-1.54-3.35v-3.85c0-1.41-.46-2.45-1.3-2.93-.84-.49-1.97-.37-3.19,.34l-3.34,1.93-.24-.42,3.34-1.93c1.37-.79,2.68-.92,3.67-.34,.99,.57,1.54,1.76,1.54,3.35v3.85c0,1.41,.46,2.45,1.3,2.93,.84,.49,1.97,.36,3.19-.34l15.98-9.22,.24,.42-15.98,9.22c-.8,.46-1.58,.7-2.29,.7Z"/>
              <path class="cls-5" d="M349.16,188.46c-.5,0-.97-.12-1.38-.36-.99-.57-1.54-1.76-1.54-3.35v-3.85c0-1.41-.46-2.45-1.3-2.93-.84-.48-1.97-.37-3.19,.34l-3.34,1.93-.24-.42,3.34-1.93c1.37-.79,2.68-.91,3.67-.34,.99,.57,1.54,1.76,1.54,3.35v3.85c0,1.41,.46,2.45,1.3,2.93,.84,.48,1.97,.37,3.19-.34l15.97-9.22,.24,.42-15.97,9.22c-.8,.46-1.58,.7-2.29,.7Z"/>
              <path class="cls-5" d="M355.37,192.04c-.5,0-.97-.12-1.38-.36-.99-.57-1.54-1.76-1.54-3.35v-3.85c0-1.41-.46-2.45-1.3-2.93-.84-.49-1.97-.36-3.19,.34l-3.34,1.93-.24-.42,3.34-1.93c1.37-.79,2.68-.91,3.67-.34,.99,.57,1.54,1.76,1.54,3.35v3.85c0,1.41,.46,2.45,1.3,2.93,.84,.49,1.97,.36,3.19-.34l15.98-9.22,.24,.42-15.98,9.22c-.8,.46-1.58,.7-2.29,.7Z"/>
            </g>
            <g>
              <g>
                <polygon class="cls-20" points="347.4 184.99 347.4 199.17 224.64 270.04 101.88 199.17 101.88 184.98 347.4 184.99"/>
                <polygon class="cls-2" points="224.64 255.86 101.88 184.98 224.64 114.11 347.4 184.99 224.64 255.86"/>
                <polygon class="cls-1" points="224.64 254.2 103.32 184.16 101.88 184.98 224.64 255.86 347.4 184.99 345.96 184.16 224.64 254.2"/>
              </g>
              <g>
                <polygon class="cls-3" points="224.64 239.51 130.22 185 224.64 130.49 319.06 185 224.64 239.51"/>
                <g>
                  <polygon class="cls-16" points="224.64 239.51 130.22 185 224.64 130.49 319.06 185 224.64 239.51"/>
                  <g>
                    <polygon class="cls-12" points="224.64 116.74 319.06 171.26 319.06 185 224.64 130.49 224.64 116.74"/>
                    <polygon class="cls-14" points="224.64 130.49 130.22 185 130.22 171.25 224.64 116.74 224.64 130.49"/>
                    <polygon class="cls-15" points="224.64 225.77 130.22 171.25 224.64 116.74 319.06 171.26 224.64 225.77"/>
                    <polygon class="cls-10" points="224.64 193.04 186.91 171.26 224.64 149.47 262.37 171.26 224.64 193.04"/>
                    <polygon class="cls-10" points="224.64 151.48 260.63 172.26 262.37 171.26 224.64 149.47 186.91 171.26 188.65 172.26 224.64 151.48"/>
                    <polygon class="cls-17" points="224.64 225.77 224.64 239.51 319.06 185 319.06 171.26 224.64 225.77"/>
                  </g>
                  <polygon class="cls-13" points="130.22 171.25 130.22 185 224.64 239.51 224.64 225.77 130.22 171.25"/>
                </g>
                <polygon class="cls-8" points="224.64 224.27 131.52 170.5 130.22 171.25 224.64 225.77 319.06 171.26 317.76 170.51 224.64 224.27"/>
              </g>
            </g>
            <g>
              <path class="cls-5" d="M255.34,286.71l-15.97-9.22c-2.74-1.58-4.97-5.45-4.97-8.61v-3.85c0-3.01-2.12-6.69-4.73-8.2l-3.34-1.93,.24-.42,3.34,1.93c2.74,1.58,4.97,5.45,4.97,8.61v3.85c0,3.01,2.12,6.69,4.73,8.2l15.97,9.22-.24,.42Z"/>
              <path class="cls-5" d="M261.55,283.13l-15.98-9.22c-2.74-1.58-4.97-5.45-4.97-8.61v-3.85c0-3.01-2.12-6.69-4.73-8.2l-3.34-1.93,.24-.42,3.34,1.93c2.74,1.58,4.97,5.45,4.97,8.61v3.85c0,3.01,2.12,6.69,4.73,8.2l15.98,9.22-.24,.42Z"/>
              <path class="cls-5" d="M267.77,279.55l-15.97-9.22c-2.74-1.58-4.97-5.45-4.97-8.61v-3.85c0-3.01-2.12-6.69-4.73-8.2l-3.34-1.93,.24-.42,3.34,1.93c2.74,1.58,4.97,5.45,4.97,8.61v3.85c0,3.01,2.12,6.69,4.73,8.2l15.97,9.22-.24,.42Z"/>
              <path class="cls-5" d="M273.98,275.97l-15.98-9.22c-2.74-1.58-4.97-5.45-4.97-8.61v-3.85c0-3.01-2.12-6.69-4.73-8.2l-3.34-1.93,.24-.42,3.34,1.93c2.74,1.58,4.97,5.45,4.97,8.61v3.85c0,3.01,2.12,6.69,4.73,8.2l15.98,9.22-.24,.42Z"/>
              <path class="cls-5" d="M280.19,272.39l-15.97-9.22c-2.74-1.58-4.97-5.45-4.97-8.61v-3.85c0-3.01-2.12-6.69-4.73-8.2l-3.34-1.93,.24-.42,3.34,1.93c2.74,1.58,4.97,5.45,4.97,8.61v3.85c0,3.01,2.12,6.69,4.73,8.2l15.97,9.22-.24,.42Z"/>
              <path class="cls-5" d="M286.41,268.81l-15.98-9.22c-2.74-1.58-4.97-5.45-4.97-8.61v-3.85c0-3.01-2.12-6.69-4.73-8.2l-3.34-1.93,.24-.42,3.34,1.93c2.74,1.58,4.97,5.45,4.97,8.61v3.85c0,3.01,2.12,6.69,4.73,8.2l15.98,9.22-.24,.42Z"/>
              <path class="cls-5" d="M292.62,265.23l-15.97-9.22c-2.74-1.58-4.97-5.45-4.97-8.61v-3.85c0-3.01-2.12-6.69-4.73-8.2l-3.34-1.93,.24-.42,3.34,1.93c2.74,1.58,4.97,5.45,4.97,8.61v3.85c0,3.01,2.12,6.69,4.73,8.2l15.97,9.22-.24,.42Z"/>
              <path class="cls-5" d="M298.84,261.65l-15.98-9.22c-2.74-1.58-4.97-5.45-4.97-8.61v-3.85c0-3.01-2.12-6.69-4.73-8.2l-3.34-1.93,.24-.42,3.34,1.93c2.74,1.58,4.97,5.45,4.97,8.61v3.85c0,3.01,2.12,6.69,4.73,8.2l15.98,9.22-.24,.42Z"/>
              <path class="cls-5" d="M305.05,258.06l-15.97-9.22c-2.74-1.58-4.97-5.45-4.97-8.61v-3.85c0-3.01-2.12-6.69-4.73-8.2l-3.34-1.93,.24-.42,3.34,1.93c2.74,1.58,4.97,5.45,4.97,8.61v3.85c0,3.01,2.12,6.69,4.73,8.2l15.97,9.22-.24,.42Z"/>
              <path class="cls-5" d="M311.26,254.48l-15.98-9.22c-2.74-1.58-4.97-5.45-4.97-8.61v-3.85c0-3.01-2.12-6.69-4.73-8.2l-3.34-1.93,.24-.42,3.34,1.93c2.74,1.58,4.97,5.45,4.97,8.61v3.85c0,3.01,2.12,6.69,4.73,8.2l15.98,9.22-.24,.42Z"/>
              <path class="cls-5" d="M317.48,250.9l-15.97-9.22c-2.74-1.58-4.97-5.45-4.97-8.61v-3.85c0-3.01-2.12-6.69-4.73-8.2l-3.34-1.93,.24-.42,3.34,1.93c2.74,1.58,4.97,5.45,4.97,8.61v3.85c0,3.01,2.12,6.69,4.73,8.2l15.97,9.22-.24,.42Z"/>
              <path class="cls-5" d="M323.69,247.32l-15.98-9.22c-2.74-1.58-4.97-5.45-4.97-8.61v-3.85c0-3.01-2.12-6.69-4.73-8.2l-3.34-1.93,.24-.42,3.34,1.93c2.74,1.58,4.97,5.45,4.97,8.61v3.85c0,3.01,2.12,6.69,4.73,8.2l15.98,9.22-.24,.42Z"/>
              <path class="cls-5" d="M329.9,243.74l-15.97-9.22c-2.74-1.58-4.97-5.45-4.97-8.61v-3.85c0-3.01-2.12-6.69-4.73-8.2l-3.34-1.93,.24-.42,3.34,1.93c2.74,1.58,4.97,5.45,4.97,8.61v3.85c0,3.01,2.12,6.69,4.73,8.2l15.97,9.22-.24,.42Z"/>
              <path class="cls-5" d="M336.12,240.16l-15.98-9.22c-2.74-1.58-4.97-5.45-4.97-8.61v-3.85c0-3.01-2.12-6.69-4.73-8.2l-3.34-1.93,.24-.42,3.34,1.93c2.74,1.58,4.97,5.45,4.97,8.61v3.85c0,3.01,2.12,6.69,4.73,8.2l15.98,9.22-.24,.42Z"/>
              <path class="cls-5" d="M342.33,236.58l-15.97-9.22c-2.74-1.58-4.97-5.45-4.97-8.61v-3.85c0-3.01-2.12-6.69-4.73-8.2l-3.34-1.93,.24-.42,3.34,1.93c2.74,1.58,4.97,5.45,4.97,8.61v3.85c0,3.01,2.12,6.69,4.73,8.2l15.97,9.22-.24,.42Z"/>
              <path class="cls-5" d="M348.54,233l-15.98-9.22c-2.74-1.58-4.97-5.45-4.97-8.61v-3.85c0-3.01-2.12-6.69-4.73-8.2l-3.34-1.93,.24-.42,3.34,1.93c2.74,1.58,4.97,5.45,4.97,8.61v3.85c0,3.01,2.12,6.69,4.73,8.2l15.98,9.22-.24,.42Z"/>
              <path class="cls-5" d="M354.76,229.42l-15.97-9.22c-2.74-1.58-4.97-5.45-4.97-8.61v-3.85c0-3.01-2.12-6.69-4.73-8.2l-3.34-1.93,.24-.42,3.34,1.93c2.74,1.58,4.97,5.45,4.97,8.61v3.85c0,3.01,2.12,6.69,4.73,8.2l15.97,9.22-.24,.42Z"/>
              <path class="cls-5" d="M360.97,225.84l-15.98-9.22c-2.74-1.58-4.97-5.45-4.97-8.61v-3.85c0-3.01-2.12-6.69-4.73-8.2l-3.34-1.93,.24-.42,3.34,1.93c2.74,1.58,4.97,5.45,4.97,8.61v3.85c0,3.01,2.12,6.69,4.73,8.2l15.98,9.22-.24,.42Z"/>
              <path class="cls-5" d="M367.18,222.26l-15.97-9.22c-2.74-1.58-4.97-5.45-4.97-8.61v-3.85c0-3.01-2.12-6.69-4.73-8.2l-3.34-1.93,.24-.42,3.34,1.93c2.74,1.58,4.97,5.45,4.97,8.61v3.85c0,3.01,2.12,6.69,4.73,8.2l15.97,9.22-.24,.42Z"/>
              <path class="cls-5" d="M373.4,218.68l-15.98-9.22c-2.74-1.58-4.97-5.45-4.97-8.61v-3.85c0-3.01-2.12-6.69-4.73-8.2l-3.34-1.93,.24-.42,3.34,1.93c2.74,1.58,4.97,5.45,4.97,8.61v3.85c0,3.01,2.12,6.69,4.73,8.2l15.98,9.22-.24,.42Z"/>
            </g>
            <g>
              <path class="cls-5" d="M193.5,286.71l-.24-.42,15.98-9.22c2.61-1.51,4.73-5.18,4.73-8.2v-3.85c0-3.17,2.23-7.03,4.97-8.61l3.34-1.93,.24,.42-3.34,1.93c-2.61,1.51-4.73,5.18-4.73,8.2v3.85c0,3.17-2.23,7.03-4.97,8.61l-15.98,9.22Z"/>
              <path class="cls-5" d="M187.29,283.13l-.24-.42,15.98-9.22c2.61-1.51,4.73-5.18,4.73-8.2v-3.85c0-3.17,2.23-7.03,4.97-8.61l3.34-1.93,.24,.42-3.34,1.93c-2.61,1.51-4.73,5.18-4.73,8.2v3.85c0,3.17-2.23,7.03-4.97,8.61l-15.98,9.22Z"/>
              <path class="cls-5" d="M181.07,279.55l-.24-.42,15.98-9.22c2.61-1.51,4.73-5.19,4.73-8.2v-3.85c0-3.17,2.23-7.03,4.97-8.61l3.34-1.93,.24,.42-3.34,1.93c-2.61,1.51-4.73,5.19-4.73,8.2v3.85c0,3.17-2.23,7.03-4.97,8.61l-15.98,9.22Z"/>
              <path class="cls-5" d="M174.86,275.97l-.24-.42,15.98-9.22c2.61-1.51,4.73-5.18,4.73-8.2v-3.85c0-3.17,2.23-7.03,4.97-8.61l3.34-1.93,.24,.42-3.34,1.93c-2.61,1.51-4.73,5.18-4.73,8.2v3.85c0,3.17-2.23,7.03-4.97,8.61l-15.98,9.22Z"/>
              <path class="cls-5" d="M168.65,272.39l-.24-.42,15.98-9.22c2.61-1.51,4.73-5.18,4.73-8.2v-3.85c0-3.17,2.23-7.03,4.97-8.61l3.34-1.93,.24,.42-3.34,1.93c-2.61,1.51-4.73,5.18-4.73,8.2v3.85c0,3.17-2.23,7.03-4.97,8.61l-15.98,9.22Z"/>
              <path class="cls-5" d="M162.43,268.81l-.24-.42,15.98-9.22c2.61-1.51,4.73-5.19,4.73-8.2v-3.85c0-3.17,2.23-7.03,4.97-8.61l3.34-1.93,.24,.42-3.34,1.93c-2.61,1.51-4.73,5.19-4.73,8.2v3.85c0,3.17-2.23,7.03-4.97,8.61l-15.98,9.22Z"/>
              <path class="cls-5" d="M156.22,265.23l-.24-.42,15.98-9.22c2.61-1.51,4.73-5.18,4.73-8.2v-3.85c0-3.17,2.23-7.03,4.97-8.61l3.34-1.93,.24,.42-3.34,1.93c-2.61,1.51-4.73,5.18-4.73,8.2v3.85c0,3.17-2.23,7.03-4.97,8.61l-15.98,9.22Z"/>
              <path class="cls-5" d="M150.01,261.65l-.24-.42,15.98-9.22c2.61-1.51,4.73-5.18,4.73-8.2v-3.85c0-3.17,2.23-7.03,4.97-8.61l3.34-1.93,.24,.42-3.34,1.93c-2.61,1.51-4.73,5.18-4.73,8.2v3.85c0,3.17-2.23,7.03-4.97,8.61l-15.98,9.22Z"/>
              <path class="cls-5" d="M118.02,272.59l-.12-.07-67.95-39.01,.24-.42,67.83,38.94,25.54-14.39,15.97-9.22c2.61-1.51,4.73-5.19,4.73-8.2v-3.85c0-3.17,2.23-7.03,4.97-8.61l3.34-1.93,.24,.42-3.34,1.93c-2.61,1.51-4.73,5.19-4.73,8.2v3.85c0,3.17-2.23,7.03-4.97,8.61l-15.98,9.22-25.78,14.53Z"/>
              <path class="cls-5" d="M137.58,254.48l-.24-.42,15.98-9.22c2.61-1.51,4.73-5.18,4.73-8.2v-3.85c0-3.17,2.23-7.03,4.97-8.61l3.34-1.93,.24,.42-3.34,1.93c-2.61,1.51-4.73,5.18-4.73,8.2v3.85c0,3.17-2.23,7.03-4.97,8.61l-15.98,9.22Z"/>
              <path class="cls-5" d="M131.37,250.9l-.24-.42,15.98-9.22c2.61-1.51,4.73-5.18,4.73-8.2v-3.85c0-3.17,2.23-7.03,4.97-8.61l3.34-1.93,.24,.42-3.34,1.93c-2.61,1.51-4.73,5.18-4.73,8.2v3.85c0,3.17-2.23,7.03-4.97,8.61l-15.98,9.22Z"/>
              <path class="cls-5" d="M125.15,247.32l-.24-.42,15.98-9.22c2.61-1.51,4.73-5.18,4.73-8.2v-3.85c0-3.17,2.23-7.03,4.97-8.61l3.34-1.93,.24,.42-3.34,1.93c-2.61,1.51-4.73,5.19-4.73,8.2v3.85c0,3.17-2.23,7.03-4.97,8.61l-15.98,9.22Z"/>
              <path class="cls-5" d="M118.94,243.74l-.24-.42,15.98-9.22c2.61-1.51,4.73-5.18,4.73-8.2v-3.85c0-3.17,2.23-7.03,4.97-8.61l3.34-1.93,.24,.42-3.34,1.93c-2.61,1.51-4.73,5.18-4.73,8.2v3.85c0,3.17-2.23,7.03-4.97,8.61l-15.98,9.22Z"/>
              <path class="cls-5" d="M112.73,240.16l-.24-.42,15.98-9.22c2.61-1.51,4.73-5.18,4.73-8.2v-3.85c0-3.17,2.23-7.03,4.97-8.61l3.34-1.93,.24,.42-3.34,1.93c-2.61,1.51-4.73,5.18-4.73,8.2v3.85c0,3.17-2.23,7.03-4.97,8.61l-15.98,9.22Z"/>
              <path class="cls-5" d="M106.51,236.58l-.24-.42,15.98-9.22c2.61-1.51,4.73-5.18,4.73-8.2v-3.85c0-3.17,2.23-7.03,4.97-8.61l3.34-1.93,.24,.42-3.34,1.93c-2.61,1.51-4.73,5.19-4.73,8.2v3.85c0,3.17-2.23,7.03-4.97,8.61l-15.98,9.22Z"/>
              <path class="cls-5" d="M100.3,233l-.24-.42,15.98-9.22c2.61-1.51,4.73-5.18,4.73-8.2v-3.85c0-3.17,2.23-7.03,4.97-8.61l3.34-1.93,.24,.42-3.34,1.93c-2.61,1.51-4.73,5.18-4.73,8.2v3.85c0,3.17-2.23,7.03-4.97,8.61l-15.98,9.22Z"/>
              <path class="cls-5" d="M94.09,229.42l-.24-.42,15.98-9.22c2.61-1.51,4.73-5.18,4.73-8.2v-3.85c0-3.17,2.23-7.03,4.97-8.61l3.34-1.93,.24,.42-3.34,1.93c-2.61,1.51-4.73,5.18-4.73,8.2v3.85c0,3.17-2.23,7.03-4.97,8.61l-15.98,9.22Z"/>
              <path class="cls-5" d="M87.87,225.84l-.24-.42,15.98-9.22c2.61-1.51,4.73-5.18,4.73-8.2v-3.85c0-3.17,2.23-7.03,4.97-8.61l3.34-1.93,.24,.42-3.34,1.93c-2.61,1.51-4.73,5.19-4.73,8.2v3.85c0,3.17-2.23,7.03-4.97,8.61l-15.98,9.22Z"/>
              <path class="cls-5" d="M81.66,222.26l-.24-.42,15.98-9.22c2.61-1.51,4.73-5.18,4.73-8.2v-3.85c0-3.17,2.23-7.03,4.97-8.61l3.34-1.93,.24,.42-3.34,1.93c-2.61,1.51-4.73,5.18-4.73,8.2v3.85c0,3.17-2.23,7.03-4.97,8.61l-15.98,9.22Z"/>
              <path class="cls-5" d="M75.45,218.68l-.24-.42,15.98-9.22c2.61-1.51,4.73-5.18,4.73-8.2v-3.85c0-3.17,2.23-7.03,4.97-8.61l3.34-1.93,.24,.42-3.34,1.93c-2.61,1.51-4.73,5.18-4.73,8.2v3.85c0,3.17-2.23,7.03-4.97,8.61l-15.98,9.22Z"/>
            </g>
          </g>
          <g>
            <g class="cls-24">
              <polygon class="cls-9" points="101.88 151.5 78.98 138.28 78.98 164.72 101.88 177.94 124.78 164.72 124.78 138.28 101.88 151.5"/>
              <polygon class="cls-9" points="101.88 177.94 78.98 164.72 78.98 138.28 101.88 151.5 101.88 177.94"/>
              <polygon class="cls-25" points="124.78 164.72 101.88 177.94 101.88 151.5 124.78 138.28 124.78 164.72"/>
              <polygon class="cls-9" points="101.88 151.5 78.98 138.28 101.88 125.06 124.78 138.28 101.88 151.5"/>
              <polygon class="cls-1" points="101.88 151.5 78.98 138.28 78.98 139.43 101.88 152.65 124.78 139.43 124.78 138.28 101.88 151.5"/>
            </g>
            <polygon class="cls-21" points="101.88 135.47 78.98 122.25 101.88 109.03 124.78 122.25 101.88 135.47"/>
            <polygon class="cls-9" points="101.88 89 78.98 75.78 78.98 102.22 101.88 115.44 124.78 102.22 124.78 75.78 101.88 89"/>
            <polygon class="cls-9" points="101.88 115.44 78.98 102.22 78.98 75.78 101.88 89 101.88 115.44"/>
            <polygon class="cls-25" points="124.78 102.22 101.88 115.44 101.88 89 124.78 75.78 124.78 102.22"/>
            <polygon class="cls-9" points="101.88 89 78.98 75.78 101.88 62.56 124.78 75.78 101.88 89"/>
            <polygon class="cls-25" points="101.88 85.75 84.61 75.78 101.88 65.81 119.15 75.78 101.88 85.75"/>
            <polygon class="cls-1" points="101.88 89 78.98 75.78 78.98 76.93 101.88 90.15 124.78 76.93 124.78 75.78 101.88 89"/>
            <polygon class="cls-9" points="101.88 49.34 78.98 36.11 78.98 62.56 101.88 75.78 124.78 62.56 124.78 36.11 101.88 49.34"/>
            <polygon class="cls-9" points="101.88 75.78 78.98 62.56 78.98 36.11 101.88 49.34 101.88 75.78"/>
            <polygon class="cls-25" points="124.78 62.56 101.88 75.78 101.88 49.34 124.78 36.11 124.78 62.56"/>
            <polygon class="cls-9" points="101.88 49.34 78.98 36.11 101.88 22.89 124.78 36.11 101.88 49.34"/>
            <polygon class="cls-1" points="101.88 49.34 78.98 36.11 78.98 37.26 101.88 50.48 124.78 37.26 124.78 36.11 101.88 49.34"/>
          </g>
          <g>
            <g class="cls-24">
              <polygon class="cls-9" points="403.32 166.72 380.41 153.5 380.41 179.94 403.32 193.17 426.22 179.94 426.22 153.5 403.32 166.72"/>
              <polygon class="cls-9" points="403.32 193.17 380.41 179.94 380.41 153.5 403.32 166.72 403.32 193.17"/>
              <polygon class="cls-25" points="426.22 179.94 403.32 193.17 403.32 166.72 426.22 153.5 426.22 179.94"/>
              <polygon class="cls-9" points="403.32 166.72 380.41 153.5 403.31 140.28 426.22 153.5 403.32 166.72"/>
              <polygon class="cls-1" points="403.32 166.72 380.41 153.5 380.41 154.65 403.32 167.87 426.22 154.65 426.22 153.5 403.32 166.72"/>
            </g>
            <path class="cls-5" d="M403.92,156.9l-.12-.07-33.52-19.35,.36-.21,33.28-19.22,.12,.07,33.53,19.35-.36,.21-33.28,19.22Zm-32.68-19.42l32.68,18.87,32.68-18.87-32.68-18.87-32.68,18.87Z"/>
            <polygon class="cls-21" points="403.32 150.69 380.41 137.47 403.31 124.25 426.22 137.47 403.32 150.69"/>
            <polygon class="cls-9" points="403.32 104.22 380.41 91 380.41 117.44 403.32 130.66 426.22 117.44 426.22 91 403.32 104.22"/>
            <polygon class="cls-9" points="403.32 130.66 380.41 117.44 380.41 91 403.32 104.22 403.32 130.66"/>
            <polygon class="cls-25" points="426.22 117.44 403.32 130.66 403.32 104.22 426.22 91 426.22 117.44"/>
            <polygon class="cls-9" points="403.32 104.22 380.41 91 403.31 77.78 426.22 91 403.32 104.22"/>
            <polygon class="cls-1" points="403.32 104.22 380.41 91 380.41 92.15 403.32 105.37 426.22 92.15 426.22 91 403.32 104.22"/>
          </g>
          <g>
            <path class="cls-5" d="M33.65,243.06l-.12-.07L0,223.64l.36-.21,33.28-19.22,.12,.07,33.53,19.36-.36,.21-33.28,19.22ZM.96,223.64l32.68,18.87,32.68-18.87-32.68-18.87L.96,223.64Z"/>
            <g class="cls-24">
              <polygon class="cls-9" points="33.65 253.3 10.74 240.08 10.74 266.52 33.65 279.75 56.55 266.52 56.55 240.08 33.65 253.3"/>
              <polygon class="cls-9" points="33.65 279.75 10.74 266.52 10.74 240.08 33.65 253.3 33.65 279.75"/>
              <polygon class="cls-25" points="56.55 266.52 33.65 279.75 33.65 253.3 56.55 240.08 56.55 266.52"/>
              <polygon class="cls-9" points="33.65 253.3 10.74 240.08 33.64 226.86 56.55 240.08 33.65 253.3"/>
              <polygon class="cls-1" points="33.65 253.3 10.74 240.08 10.74 241.23 33.65 254.45 56.55 241.23 56.55 240.08 33.65 253.3"/>
            </g>
            <polygon class="cls-21" points="33.65 237.27 10.74 224.05 33.64 210.83 56.55 224.05 33.65 237.27"/>
            <polygon class="cls-9" points="33.65 190.8 10.74 177.58 10.74 204.02 33.65 217.25 56.55 204.02 56.55 177.58 33.65 190.8"/>
            <polygon class="cls-9" points="33.65 217.25 10.74 204.02 10.74 177.58 33.65 190.8 33.65 217.25"/>
            <polygon class="cls-25" points="56.55 204.02 33.65 217.25 33.65 190.8 56.55 177.58 56.55 204.02"/>
            <polygon class="cls-9" points="33.65 190.8 10.74 177.58 33.64 164.36 56.55 177.58 33.65 190.8"/>
            <polygon class="cls-1" points="33.65 190.8 10.74 177.58 10.74 178.73 33.65 191.95 56.55 178.73 56.55 177.58 33.65 190.8"/>
          </g>
          <g>
            <g class="cls-24">
              <polygon class="cls-9" points="222.4 379.33 199.5 366.11 199.5 392.55 222.4 405.78 245.3 392.55 245.3 366.11 222.4 379.33"/>
              <polygon class="cls-9" points="222.4 405.78 199.5 392.55 199.5 366.11 222.4 379.33 222.4 405.78"/>
              <polygon class="cls-25" points="245.3 392.55 222.4 405.78 222.4 379.33 245.3 366.11 245.3 392.55"/>
              <polygon class="cls-9" points="222.4 379.33 199.5 366.11 222.4 352.89 245.3 366.11 222.4 379.33"/>
              <polygon class="cls-1" points="222.4 379.33 199.5 366.11 199.5 367.26 222.4 380.48 245.3 367.26 245.3 366.11 222.4 379.33"/>
            </g>
            <polygon class="cls-21" points="222.4 363.3 199.5 350.08 222.4 336.86 245.3 350.08 222.4 363.3"/>
            <polygon class="cls-9" points="222.4 316.83 199.5 303.61 199.5 330.05 222.4 343.27 245.3 330.05 245.3 303.61 222.4 316.83"/>
            <polygon class="cls-9" points="222.4 343.27 199.5 330.05 199.5 303.61 222.4 316.83 222.4 343.27"/>
            <polygon class="cls-25" points="245.3 330.05 222.4 343.27 222.4 316.83 245.3 303.61 245.3 330.05"/>
            <polygon class="cls-9" points="222.4 316.83 199.5 303.61 222.4 290.39 245.3 303.61 222.4 316.83"/>
            <polygon class="cls-1" points="222.4 316.83 199.5 303.61 199.5 304.76 222.4 317.98 245.3 304.76 245.3 303.61 222.4 316.83"/>
          </g>
          <g>
            <g class="cls-24">
              <polygon class="cls-9" points="410.71 317.41 430.52 334.92 435.78 309.01 415.97 291.5 390.9 299.9 385.64 325.81 410.71 317.41"/>
              <polygon class="cls-9" points="415.97 291.5 435.78 309.01 430.52 334.92 410.71 317.41 415.97 291.5"/>
              <polygon class="cls-25" points="390.9 299.9 415.97 291.5 410.71 317.41 385.64 325.81 390.9 299.9"/>
              <polygon class="cls-9" points="410.71 317.41 430.52 334.92 405.45 343.33 385.64 325.81 410.71 317.41"/>
              <polygon class="cls-1" points="410.71 317.41 430.52 334.92 430.75 333.8 410.94 316.29 385.86 324.69 385.64 325.81 410.71 317.41"/>
            </g>
            <polygon class="cls-21" points="414.77 307.34 391.86 294.11 414.77 280.89 437.67 294.12 414.77 307.34"/>
            <g>
              <path class="cls-7" d="M414.77,330.3c-15.09,0-30.19-3.32-41.68-9.95-11.18-6.45-17.34-15.05-17.34-24.2s6.16-17.75,17.33-24.2c22.98-13.27,60.38-13.27,83.36,0,11.18,6.45,17.34,15.05,17.34,24.2s-6.16,17.75-17.33,24.2c-11.49,6.63-26.58,9.95-41.68,9.95Zm0-67.83c-15.01,0-30.01,3.3-41.44,9.89-11.02,6.36-17.09,14.81-17.09,23.79s6.07,17.42,17.09,23.79c22.85,13.19,60.03,13.19,82.88,0,11.02-6.36,17.09-14.81,17.09-23.79s-6.07-17.42-17.1-23.79c-11.43-6.6-26.43-9.89-41.44-9.89Z"/>
              <path class="cls-6" d="M414.77,339.45c-19.15,0-38.31-4.21-52.89-12.63-14.17-8.18-21.98-19.08-21.98-30.67s7.81-22.49,21.98-30.67c29.16-16.84,76.61-16.84,105.78,0,14.17,8.18,21.98,19.08,21.98,30.67s-7.8,22.49-21.98,30.67l-.12-.21,.12,.21c-14.58,8.42-33.73,12.63-52.89,12.63Zm0-86.13c-19.07,0-38.13,4.19-52.65,12.57-14.02,8.09-21.74,18.84-21.74,30.26s7.72,22.16,21.74,30.26c29.03,16.76,76.27,16.76,105.29,0h0c14.02-8.09,21.74-18.84,21.74-30.26s-7.72-22.16-21.74-30.26c-14.51-8.38-33.58-12.57-52.65-12.57Z"/>
              <path class="cls-9" d="M414.77,323.09c-11.9,0-23.79-2.61-32.85-7.84-8.82-5.09-13.68-11.88-13.68-19.1s4.86-14.01,13.68-19.1c18.11-10.46,47.58-10.46,65.7,0,8.82,5.09,13.68,11.88,13.68,19.11,0,7.23-4.86,14.01-13.68,19.1-9.06,5.23-20.95,7.84-32.85,7.84Zm0-53.42c-11.81,0-23.62,2.59-32.61,7.78-8.66,5-13.44,11.64-13.44,18.69s4.77,13.68,13.44,18.69c17.98,10.38,47.24,10.38,65.22,0l.12,.21-.12-.21c8.66-5,13.44-11.64,13.44-18.69s-4.77-13.69-13.44-18.69c-8.99-5.19-20.8-7.78-32.61-7.78Z"/>
            </g>
            <g>
              <polygon class="cls-9" points="412.13 270.85 409.51 244.54 388.03 259.97 390.65 286.28 414.75 297.17 436.23 281.74 412.13 270.85"/>
              <polygon class="cls-9" points="390.65 286.28 388.03 259.97 409.51 244.54 412.13 270.85 390.65 286.28"/>
              <polygon class="cls-25" points="414.75 297.17 390.65 286.28 412.13 270.85 436.23 281.74 414.75 297.17"/>
              <polygon class="cls-9" points="412.13 270.85 409.51 244.54 433.6 255.43 436.23 281.74 412.13 270.85"/>
              <polygon class="cls-1" points="412.13 270.85 409.51 244.54 408.57 245.21 411.2 271.52 435.29 282.41 436.23 281.74 412.13 270.85"/>
            </g>
            <polygon class="cls-21" points="401.24 291.06 423.25 291.06 414.75 297.17 401.24 291.06"/>
          </g>
          <g>
            <g>
              <polygon class="cls-9" points="224.64 123.31 201.74 110.09 201.74 136.53 224.64 149.76 247.54 136.53 247.54 110.09 224.64 123.31"/>
              <polygon class="cls-9" points="224.64 149.76 201.74 136.53 201.74 110.09 224.64 123.31 224.64 149.76"/>
              <polygon class="cls-25" points="247.54 136.53 224.64 149.76 224.64 123.31 247.54 110.09 247.54 136.53"/>
              <polygon class="cls-9" points="224.64 123.31 201.74 110.09 224.64 96.87 247.54 110.09 224.64 123.31"/>
              <polygon class="cls-1" points="224.64 123.31 202.73 110.66 201.74 111.24 224.64 124.46 247.54 111.24 246.55 110.67 224.64 123.31"/>
            </g>
            <g>
              <polygon class="cls-9" points="254.39 140.29 231.49 127.06 231.49 153.51 254.39 166.73 277.29 153.51 277.29 127.06 254.39 140.29"/>
              <polygon class="cls-9" points="254.39 166.73 231.49 153.51 231.49 127.06 254.39 140.29 254.39 166.73"/>
              <polygon class="cls-25" points="277.29 153.51 254.39 166.73 254.39 140.29 277.29 127.06 277.29 153.51"/>
              <polygon class="cls-9" points="254.39 140.29 231.49 127.06 254.39 113.84 277.29 127.06 254.39 140.29"/>
              <polygon class="cls-1" points="254.39 140.29 232.48 127.64 231.49 128.21 254.39 141.43 277.29 128.21 276.29 127.64 254.39 140.29"/>
            </g>
            <g>
              <polygon class="cls-9" points="284.13 157.26 261.23 144.04 261.23 170.48 284.13 183.7 307.04 170.48 307.04 144.04 284.13 157.26"/>
              <polygon class="cls-9" points="284.13 183.7 261.23 170.48 261.23 144.04 284.13 157.26 284.13 183.7"/>
              <polygon class="cls-25" points="307.04 170.48 284.13 183.7 284.13 157.26 307.04 144.04 307.04 170.48"/>
              <polygon class="cls-9" points="284.13 157.26 261.23 144.04 284.13 130.82 307.03 144.04 284.13 157.26"/>
              <polygon class="cls-1" points="284.13 157.26 262.23 144.61 261.23 145.18 284.13 158.41 307.03 145.18 307.04 144.04 284.13 157.26"/>
            </g>
            <g>
              <polygon class="cls-9" points="194.89 141.43 171.99 128.21 171.99 154.65 194.89 167.88 217.79 154.65 217.79 128.21 194.89 141.43"/>
              <polygon class="cls-9" points="194.89 167.88 171.99 154.65 171.99 128.21 194.89 141.43 194.89 167.88"/>
              <polygon class="cls-25" points="217.79 154.65 194.89 167.88 194.89 141.43 217.79 128.21 217.79 154.65"/>
              <polygon class="cls-9" points="194.89 141.43 171.99 128.21 194.89 114.99 217.79 128.21 194.89 141.43"/>
              <polygon class="cls-1" points="194.89 141.43 172.99 128.78 171.99 129.36 194.89 142.58 217.79 129.36 216.8 128.79 194.89 141.43"/>
            </g>
            <g>
              <polygon class="cls-9" points="224.64 158.41 201.74 145.18 201.74 171.63 224.64 184.85 247.54 171.63 247.54 145.18 224.64 158.41"/>
              <polygon class="cls-9" points="224.64 184.85 201.74 171.63 201.74 145.18 224.64 158.41 224.64 184.85"/>
              <polygon class="cls-25" points="247.54 171.63 224.64 184.85 224.64 158.41 247.54 145.18 247.54 171.63"/>
              <polygon class="cls-9" points="224.64 158.41 201.74 145.18 224.64 131.96 247.54 145.18 224.64 158.41"/>
              <polygon class="cls-1" points="224.64 158.41 202.73 145.76 201.74 146.33 224.64 159.55 247.54 146.33 246.55 145.76 224.64 158.41"/>
            </g>
            <g>
              <polygon class="cls-9" points="254.39 175.38 231.49 162.16 231.49 188.6 254.39 201.82 277.29 188.6 277.29 162.16 254.39 175.38"/>
              <polygon class="cls-9" points="254.39 201.82 231.49 188.6 231.49 162.16 254.39 175.38 254.39 201.82"/>
              <polygon class="cls-25" points="277.29 188.6 254.39 201.82 254.39 175.38 277.29 162.16 277.29 188.6"/>
              <polygon class="cls-9" points="254.39 175.38 231.49 162.16 254.39 148.94 277.29 162.16 254.39 175.38"/>
              <polygon class="cls-1" points="254.39 175.38 232.48 162.73 231.49 163.3 254.39 176.53 277.29 163.3 277.29 162.16 254.39 175.38"/>
            </g>
            <g>
              <polygon class="cls-9" points="165.15 159.55 142.25 146.33 142.25 172.77 165.15 186 188.05 172.77 188.05 146.33 165.15 159.55"/>
              <polygon class="cls-9" points="165.15 186 142.25 172.77 142.25 146.33 165.15 159.55 165.15 186"/>
              <polygon class="cls-25" points="188.05 172.77 165.15 186 165.15 159.55 188.05 146.33 188.05 172.77"/>
              <polygon class="cls-9" points="165.15 159.55 142.25 146.33 165.15 133.11 188.05 146.33 165.15 159.55"/>
              <polygon class="cls-1" points="165.15 159.55 142.25 146.33 142.25 147.48 165.15 160.7 188.05 147.48 187.05 146.91 165.15 159.55"/>
            </g>
            <g>
              <polygon class="cls-9" points="194.89 176.53 171.99 163.3 171.99 189.75 194.89 202.97 217.79 189.75 217.79 163.3 194.89 176.53"/>
              <polygon class="cls-9" points="194.89 202.97 171.99 189.75 171.99 163.3 194.89 176.53 194.89 202.97"/>
              <polygon class="cls-25" points="217.79 189.75 194.89 202.97 194.89 176.53 217.79 163.3 217.79 189.75"/>
              <polygon class="cls-9" points="194.89 176.53 171.99 163.3 194.89 150.08 217.79 163.3 194.89 176.53"/>
              <polygon class="cls-1" points="194.89 176.53 171.99 163.3 171.99 164.45 194.89 177.67 217.79 164.45 216.8 163.88 194.89 176.53"/>
            </g>
            <g>
              <polygon class="cls-9" points="224.64 193.5 201.74 180.28 201.74 206.72 224.64 219.94 247.54 206.72 247.54 180.28 224.64 193.5"/>
              <polygon class="cls-9" points="224.64 219.94 201.74 206.72 201.74 180.28 224.64 193.5 224.64 219.94"/>
              <polygon class="cls-25" points="247.54 206.72 224.64 219.94 224.64 193.5 247.54 180.28 247.54 206.72"/>
              <polygon class="cls-9" points="224.64 193.5 201.74 180.28 224.64 167.06 247.54 180.28 224.64 193.5"/>
              <polygon class="cls-1" points="224.64 193.5 201.74 180.28 201.74 181.42 224.64 194.65 247.54 181.42 247.54 180.28 224.64 193.5"/>
            </g>
            <g>
              <polygon class="cls-9" points="224.64 88.22 201.74 75 201.74 101.44 224.64 114.66 247.54 101.44 247.54 75 224.64 88.22"/>
              <polygon class="cls-9" points="224.64 114.66 201.74 101.44 201.74 75 224.64 88.22 224.64 114.66"/>
              <polygon class="cls-25" points="247.54 101.44 224.64 114.66 224.64 88.22 247.54 75 247.54 101.44"/>
              <polygon class="cls-9" points="224.64 88.22 201.74 75 224.64 61.78 247.54 75 224.64 88.22"/>
              <polygon class="cls-1" points="224.64 88.22 202.73 75.57 201.74 76.15 224.64 89.37 247.54 76.15 246.55 75.57 224.64 88.22"/>
            </g>
            <g>
              <polygon class="cls-23" points="224.64 189.19 209.02 180.17 224.64 171.15 240.26 180.17 224.64 189.19"/>
              <polygon class="cls-23" points="194.89 172.22 179.27 163.2 194.89 154.18 210.52 163.2 194.89 172.22"/>
              <polygon class="cls-23" points="254.39 171.07 238.76 162.05 254.39 153.03 270.01 162.05 254.39 171.07"/>
              <polygon class="cls-23" points="284.19 153.16 268.57 144.14 284.19 135.12 299.81 144.14 284.19 153.16"/>
              <polygon class="cls-23" points="165.15 155.25 149.52 146.23 165.15 137.21 180.77 146.23 165.15 155.25"/>
            </g>
            <g>
              <polygon class="cls-9" points="254.39 105.19 231.49 91.97 231.49 118.41 254.39 131.64 277.29 118.41 277.29 91.97 254.39 105.19"/>
              <polygon class="cls-9" points="254.39 131.64 231.49 118.41 231.49 91.97 254.39 105.19 254.39 131.64"/>
              <polygon class="cls-25" points="277.29 118.41 254.39 131.64 254.39 105.19 277.29 91.97 277.29 118.41"/>
              <polygon class="cls-9" points="254.39 105.19 231.49 91.97 254.39 78.75 277.29 91.97 254.39 105.19"/>
              <polygon class="cls-1" points="254.39 105.19 232.48 92.55 231.49 93.12 254.39 106.34 277.29 93.12 276.29 92.55 254.39 105.19"/>
            </g>
            <g>
              <polygon class="cls-9" points="284.13 122.17 261.23 108.94 261.23 135.39 284.13 148.61 307.04 135.39 307.04 108.94 284.13 122.17"/>
              <polygon class="cls-9" points="284.13 148.61 261.23 135.39 261.23 108.94 284.13 122.17 284.13 148.61"/>
              <polygon class="cls-25" points="307.04 135.39 284.13 148.61 284.13 122.17 307.04 108.94 307.04 135.39"/>
              <polygon class="cls-9" points="284.13 122.17 261.23 108.94 284.13 95.72 307.03 108.94 284.13 122.17"/>
              <polygon class="cls-1" points="284.13 122.17 262.23 109.52 261.23 110.09 284.13 123.31 307.03 110.09 307.04 108.94 284.13 122.17"/>
            </g>
            <g>
              <polygon class="cls-9" points="194.89 106.34 171.99 93.12 171.99 119.56 194.89 132.78 217.79 119.56 217.79 93.12 194.89 106.34"/>
              <polygon class="cls-9" points="194.89 132.78 171.99 119.56 171.99 93.12 194.89 106.34 194.89 132.78"/>
              <polygon class="cls-25" points="217.79 119.56 194.89 132.78 194.89 106.34 217.79 93.12 217.79 119.56"/>
              <polygon class="cls-9" points="194.89 106.34 171.99 93.12 194.89 79.9 217.79 93.12 194.89 106.34"/>
              <polygon class="cls-1" points="194.89 106.34 172.99 93.69 171.99 94.27 194.89 107.49 217.79 94.27 216.8 93.69 194.89 106.34"/>
            </g>
            <g>
              <polygon class="cls-9" points="224.64 123.31 201.74 110.09 201.74 136.53 224.64 149.76 247.54 136.53 247.54 110.09 224.64 123.31"/>
              <polygon class="cls-9" points="224.64 149.76 201.74 136.53 201.74 110.09 224.64 123.31 224.64 149.76"/>
              <polygon class="cls-25" points="247.54 136.53 224.64 149.76 224.64 123.31 247.54 110.09 247.54 136.53"/>
              <polygon class="cls-9" points="224.64 123.31 201.74 110.09 224.64 96.87 247.54 110.09 224.64 123.31"/>
              <polygon class="cls-1" points="224.64 123.31 202.73 110.67 201.74 111.24 224.64 124.46 247.54 111.24 246.55 110.67 224.64 123.31"/>
            </g>
            <g>
              <polygon class="cls-9" points="254.39 140.29 231.49 127.06 231.49 153.51 254.39 166.73 277.29 153.51 277.29 127.06 254.39 140.29"/>
              <polygon class="cls-9" points="254.39 166.73 231.49 153.51 231.49 127.06 254.39 140.29 254.39 166.73"/>
              <polygon class="cls-25" points="277.29 153.51 254.39 166.73 254.39 140.29 277.29 127.06 277.29 153.51"/>
              <polygon class="cls-9" points="254.39 140.29 231.49 127.06 254.39 113.84 277.29 127.06 254.39 140.29"/>
              <polygon class="cls-1" points="254.39 140.29 232.48 127.64 231.49 128.21 254.39 141.43 277.29 128.21 277.29 127.06 254.39 140.29"/>
            </g>
            <g>
              <polygon class="cls-9" points="165.15 124.46 142.25 111.24 142.25 137.68 165.15 150.9 188.05 137.68 188.05 111.24 165.15 124.46"/>
              <polygon class="cls-9" points="165.15 150.9 142.25 137.68 142.25 111.24 165.15 124.46 165.15 150.9"/>
              <polygon class="cls-25" points="188.05 137.68 165.15 150.9 165.15 124.46 188.05 111.24 188.05 137.68"/>
              <polygon class="cls-9" points="165.15 124.46 142.25 111.24 165.15 98.02 188.05 111.24 165.15 124.46"/>
              <polygon class="cls-1" points="165.15 124.46 143.24 111.81 142.25 112.39 165.15 125.61 188.05 112.39 187.05 111.81 165.15 124.46"/>
            </g>
            <g>
              <polygon class="cls-9" points="194.89 141.43 171.99 128.21 171.99 154.65 194.89 167.88 217.79 154.65 217.79 128.21 194.89 141.43"/>
              <polygon class="cls-9" points="194.89 167.88 171.99 154.65 171.99 128.21 194.89 141.43 194.89 167.88"/>
              <polygon class="cls-25" points="217.79 154.65 194.89 167.88 194.89 141.43 217.79 128.21 217.79 154.65"/>
              <polygon class="cls-9" points="194.89 141.43 171.99 128.21 194.89 114.99 217.79 128.21 194.89 141.43"/>
              <polygon class="cls-1" points="194.89 141.43 171.99 128.21 171.99 129.36 194.89 142.58 217.79 129.36 216.8 128.79 194.89 141.43"/>
            </g>
            <g>
              <polygon class="cls-9" points="224.64 158.41 201.74 145.18 201.74 171.63 224.64 184.85 247.54 171.63 247.54 145.18 224.64 158.41"/>
              <polygon class="cls-9" points="224.64 184.85 201.74 171.63 201.74 145.18 224.64 158.41 224.64 184.85"/>
              <polygon class="cls-25" points="247.54 171.63 224.64 184.85 224.64 158.41 247.54 145.18 247.54 171.63"/>
              <polygon class="cls-9" points="224.64 158.41 201.74 145.18 224.64 131.96 247.54 145.18 224.64 158.41"/>
              <polygon class="cls-1" points="224.64 158.41 201.74 145.18 201.74 146.33 224.64 159.55 247.54 146.33 247.54 145.18 224.64 158.41"/>
            </g>
            <g>
              <polygon class="cls-23" points="284.19 118.22 268.57 109.2 284.19 100.18 299.81 109.2 284.19 118.22"/>
              <polygon class="cls-23" points="165.15 120.31 149.52 111.29 165.15 102.27 180.77 111.29 165.15 120.31"/>
            </g>
            <g>
              <polygon class="cls-9" points="224.64 53.13 201.74 39.91 201.74 66.35 224.64 79.57 247.54 66.35 247.54 39.91 224.64 53.13"/>
              <polygon class="cls-9" points="224.64 79.57 201.74 66.35 201.74 39.91 224.64 53.13 224.64 79.57"/>
              <polygon class="cls-25" points="247.54 66.35 224.64 79.57 224.64 53.13 247.54 39.91 247.54 66.35"/>
              <polygon class="cls-9" points="224.64 53.13 201.74 39.91 224.64 26.68 247.54 39.91 224.64 53.13"/>
              <polygon class="cls-1" points="224.64 53.13 201.74 39.91 201.74 41.05 224.64 54.28 247.54 41.05 247.54 39.91 224.64 53.13"/>
            </g>
            <g>
              <polygon class="cls-9" points="254.39 70.1 231.49 56.88 231.49 83.32 254.39 96.54 277.29 83.32 277.29 56.88 254.39 70.1"/>
              <polygon class="cls-9" points="254.39 96.54 231.49 83.32 231.49 56.88 254.39 70.1 254.39 96.54"/>
              <polygon class="cls-25" points="277.29 83.32 254.39 96.54 254.39 70.1 277.29 56.88 277.29 83.32"/>
              <polygon class="cls-9" points="254.39 70.1 231.49 56.88 254.39 43.66 277.29 56.88 254.39 70.1"/>
              <polygon class="cls-1" points="254.39 70.1 231.49 56.88 231.49 58.03 254.39 71.25 277.29 58.03 277.29 56.88 254.39 70.1"/>
            </g>
            <g>
              <polygon class="cls-9" points="284.13 87.07 261.23 73.85 261.23 100.29 284.13 113.52 307.04 100.29 307.04 73.85 284.13 87.07"/>
              <polygon class="cls-9" points="284.13 113.52 261.23 100.3 261.23 73.85 284.13 87.07 284.13 113.52"/>
              <polygon class="cls-25" points="307.04 100.3 284.13 113.52 284.13 87.07 307.04 73.85 307.04 100.3"/>
              <polygon class="cls-9" points="284.13 87.07 261.23 73.85 284.13 60.63 307.03 73.85 284.13 87.07"/>
              <polygon class="cls-1" points="284.13 87.07 261.23 73.85 261.23 75 284.13 88.22 307.03 75 307.04 73.85 284.13 87.07"/>
            </g>
            <g>
              <polygon class="cls-9" points="194.89 71.25 171.99 58.03 171.99 84.47 194.89 97.69 217.79 84.47 217.79 58.03 194.89 71.25"/>
              <polygon class="cls-9" points="194.89 97.69 171.99 84.47 171.99 58.03 194.89 71.25 194.89 97.69"/>
              <polygon class="cls-25" points="217.79 84.47 194.89 97.69 194.89 71.25 217.79 58.03 217.79 84.47"/>
              <polygon class="cls-9" points="194.89 71.25 171.99 58.03 194.89 44.8 217.79 58.03 194.89 71.25"/>
              <polygon class="cls-1" points="194.89 71.25 171.99 58.03 171.99 59.17 194.89 72.4 217.79 59.17 217.79 58.03 194.89 71.25"/>
            </g>
            <g>
              <polygon class="cls-9" points="165.15 89.37 142.25 76.15 142.25 102.59 165.15 115.81 188.05 102.59 188.05 76.15 165.15 89.37"/>
              <polygon class="cls-9" points="165.15 115.81 142.25 102.59 142.25 76.15 165.15 89.37 165.15 115.81"/>
              <polygon class="cls-25" points="188.05 102.59 165.15 115.81 165.15 89.37 188.05 76.15 188.05 102.59"/>
              <polygon class="cls-9" points="165.15 89.37 142.25 76.15 165.15 62.92 188.05 76.15 165.15 89.37"/>
              <polygon class="cls-1" points="165.15 89.37 142.25 76.15 142.25 77.29 165.15 90.51 188.05 77.29 188.05 76.15 165.15 89.37"/>
            </g>
          </g>
          <polygon class="cls-4" points="319.06 171.26 319.06 0 130.08 0 130.22 171.25 224.64 225.77 319.06 171.26"/>
          <g>
            <path class="cls-7" d="M88.37,256.92c0,1.71,1.38,3.09,3.09,3.09s3.09-1.38,3.09-3.09-1.38-3.09-3.09-3.09-3.09,1.38-3.09,3.09Z"/>
            <circle class="cls-5" cx="91.46" cy="256.92" r="1.34"/>
          </g>
          <g>
            <path class="cls-7" d="M361.76,116.01c0,1.71,1.38,3.09,3.09,3.09s3.09-1.38,3.09-3.09-1.38-3.09-3.09-3.09-3.09,1.38-3.09,3.09Z"/>
            <path class="cls-5" d="M363.51,116.01c0,.74,.6,1.34,1.34,1.34s1.34-.6,1.34-1.34-.6-1.34-1.34-1.34-1.34,.6-1.34,1.34Z"/>
          </g>
          <g>
            <path class="cls-7" d="M451.78,309.53c0,1.71,1.38,3.09,3.09,3.09s3.09-1.38,3.09-3.09-1.38-3.09-3.09-3.09-3.09,1.38-3.09,3.09Z"/>
            <circle class="cls-5" cx="454.87" cy="309.53" r="1.34"/>
          </g>
          <g>
            <circle class="cls-7" cx="395.98" cy="320.5" r="4.82"/>
            <path class="cls-5" d="M393.89,320.5c0,1.16,.94,2.09,2.09,2.09s2.09-.94,2.09-2.09-.94-2.09-2.09-2.09-2.09,.94-2.09,2.09Z"/>
          </g>
          <g>
            <path class="cls-7" d="M376.66,278.42c0,1.81,1.46,3.27,3.27,3.27s3.27-1.46,3.27-3.27-1.46-3.27-3.27-3.27-3.27,1.46-3.27,3.27Z"/>
            <path class="cls-5" d="M378.51,278.42c0,.78,.63,1.42,1.42,1.42s1.42-.64,1.42-1.42-.64-1.42-1.42-1.42-1.42,.64-1.42,1.42Z"/>
          </g>
          <g>
            <path class="cls-7" d="M328.84,98.18c0,1.71,1.38,3.09,3.09,3.09s3.09-1.38,3.09-3.09-1.38-3.09-3.09-3.09-3.09,1.38-3.09,3.09Z"/>
            <path class="cls-5" d="M330.59,98.18c0,.74,.6,1.34,1.34,1.34s1.34-.6,1.34-1.34-.6-1.34-1.34-1.34-1.34,.6-1.34,1.34Z"/>
          </g>
          <g>
            <path class="cls-7" d="M53.46,237.27c0,1.71,1.38,3.09,3.09,3.09s3.09-1.38,3.09-3.09-1.38-3.09-3.09-3.09-3.09,1.38-3.09,3.09Z"/>
            <path class="cls-5" d="M55.21,237.27c0,.74,.6,1.34,1.34,1.34s1.34-.6,1.34-1.34-.6-1.34-1.34-1.34-1.34,.6-1.34,1.34Z"/>
          </g>
        </g>
      </g>
    </g>
  </g>
</svg>