<?xml version="1.0" encoding="UTF-8"?>
<svg xmlns="http://www.w3.org/2000/svg" xmlns:xlink="http://www.w3.org/1999/xlink" viewBox="0 0 911.39 656.29">
  <defs>
    <style>
      .cls-1 {
        fill: url(#_Áåçûìÿííûé_ãðàäèåíò_377-5);
      }

      .cls-2 {
        fill: url(#_Áåçûìÿííûé_ãðàäèåíò_370);
      }

      .cls-2, .cls-3, .cls-4, .cls-5, .cls-6, .cls-7, .cls-8, .cls-9, .cls-10, .cls-11, .cls-12, .cls-13, .cls-14, .cls-15 {
        mix-blend-mode: lighten;
      }

      .cls-2, .cls-5, .cls-6, .cls-11 {
        opacity: .2;
      }

      .cls-16 {
        fill: url(#_Áåçûìÿííûé_ãðàäèåíò_422-4);
      }

      .cls-17 {
        fill: url(#_Áåçûìÿííûé_ãðàäèåíò_302-5);
      }

      .cls-18 {
        fill: url(#_Áåçûìÿííûé_ãðàäèåíò_302);
      }

      .cls-19 {
        fill: url(#_Áåçûìÿííûé_ãðàäèåíò_422);
      }

      .cls-20 {
        fill: url(#_Áåçûìÿííûé_ãðàäèåíò_377-4);
      }

      .cls-21 {
        fill: #267fe5;
      }

      .cls-22 {
        fill: url(#_Áåçûìÿííûé_ãðàäèåíò_300-3);
      }

      .cls-23 {
        fill: url(#_Áåçûìÿííûé_ãðàäèåíò_302-6);
      }

      .cls-24 {
        fill: #6de0f6;
      }

      .cls-25 {
        fill: url(#_Áåçûìÿííûé_ãðàäèåíò_377);
      }

      .cls-26 {
        fill: url(#_Áåçûìÿííûé_ãðàäèåíò_300-2);
      }

      .cls-3 {
        fill: url(#_Áåçûìÿííûé_ãðàäèåíò_371);
      }

      .cls-3, .cls-4, .cls-7, .cls-9, .cls-12, .cls-15 {
        opacity: .4;
      }

      .cls-27 {
        fill: url(#_Áåçûìÿííûé_ãðàäèåíò_388-4);
      }

      .cls-28 {
        fill: #70e8fc;
      }

      .cls-29 {
        clip-path: url(#clippath-2);
      }

      .cls-30 {
        isolation: isolate;
      }

      .cls-31 {
        opacity: .8;
      }

      .cls-31, .cls-32 {
        fill: #0c0f38;
      }

      .cls-33 {
        fill: url(#_Áåçûìÿííûé_ãðàäèåíò_388-10);
      }

      .cls-34 {
        fill: url(#_Áåçûìÿííûé_ãðàäèåíò_377-8);
      }

      .cls-35 {
        fill: #6ee8fc;
      }

      .cls-36 {
        fill: url(#_Áåçûìÿííûé_ãðàäèåíò_300-6);
      }

      .cls-37 {
        fill: url(#_Áåçûìÿííûé_ãðàäèåíò_377-6);
      }

      .cls-4 {
        fill: url(#_Áåçûìÿííûé_ãðàäèåíò_371-2);
      }

      .cls-38 {
        fill: url(#_Áåçûìÿííûé_ãðàäèåíò_300-4);
      }

      .cls-39 {
        fill: url(#_Áåçûìÿííûé_ãðàäèåíò_300-5);
      }

      .cls-40 {
        clip-path: url(#clippath-1);
      }

      .cls-41 {
        clip-path: url(#clippath-4);
      }

      .cls-42 {
        fill: url(#_Áåçûìÿííûé_ãðàäèåíò_388-8);
      }

      .cls-43 {
        fill: url(#_Áåçûìÿííûé_ãðàäèåíò_377-7);
      }

      .cls-44 {
        fill: #2c75e4;
      }

      .cls-5 {
        fill: url(#_Áåçûìÿííûé_ãðàäèåíò_370-2);
      }

      .cls-45 {
        opacity: .3;
      }

      .cls-6 {
        fill: url(#_Áåçûìÿííûé_ãðàäèåíò_370-4);
      }

      .cls-46 {
        fill: #480689;
      }

      .cls-7 {
        fill: url(#_Áåçûìÿííûé_ãðàäèåíò_370-5);
      }

      .cls-47 {
        fill: url(#_Áåçûìÿííûé_ãðàäèåíò_388-9);
      }

      .cls-8 {
        fill: url(#_Áåçûìÿííûé_ãðàäèåíò_384);
      }

      .cls-8, .cls-10, .cls-13, .cls-14 {
        opacity: .25;
      }

      .cls-9 {
        fill: url(#_Áåçûìÿííûé_ãðàäèåíò_370-6);
      }

      .cls-48 {
        fill: url(#_Áåçûìÿííûé_ãðàäèåíò_388);
      }

      .cls-49 {
        fill: url(#_Áåçûìÿííûé_ãðàäèåíò_302-2);
      }

      .cls-50 {
        clip-path: url(#clippath);
      }

      .cls-51 {
        fill: url(#_Áåçûìÿííûé_ãðàäèåíò_302-4);
      }

      .cls-52 {
        fill: #25bfec;
      }

      .cls-53 {
        fill: none;
      }

      .cls-10 {
        fill: url(#_Áåçûìÿííûé_ãðàäèåíò_384-3);
      }

      .cls-54 {
        clip-path: url(#clippath-3);
      }

      .cls-55 {
        fill: #d4088c;
      }

      .cls-56 {
        fill: url(#_Áåçûìÿííûé_ãðàäèåíò_422-2);
      }

      .cls-11 {
        fill: url(#_Áåçûìÿííûé_ãðàäèåíò_370-3);
      }

      .cls-57 {
        fill: url(#_Áåçûìÿííûé_ãðàäèåíò_388-7);
      }

      .cls-58 {
        fill: url(#_Áåçûìÿííûé_ãðàäèåíò_422-3);
      }

      .cls-59 {
        fill: url(#_Áåçûìÿííûé_ãðàäèåíò_377-2);
      }

      .cls-60 {
        fill: #4a0e91;
      }

      .cls-61 {
        fill: url(#_Áåçûìÿííûé_ãðàäèåíò_300);
      }

      .cls-62 {
        fill: #35047c;
      }

      .cls-63 {
        clip-path: url(#clippath-5);
      }

      .cls-64 {
        fill: url(#_Áåçûìÿííûé_ãðàäèåíò_377-3);
      }

      .cls-12 {
        fill: url(#_Áåçûìÿííûé_ãðàäèåíò_374);
      }

      .cls-65 {
        fill: #18d0f7;
      }

      .cls-66 {
        fill: url(#_Áåçûìÿííûé_ãðàäèåíò_302-3);
      }

      .cls-13 {
        fill: url(#_Áåçûìÿííûé_ãðàäèåíò_384-2);
      }

      .cls-32 {
        opacity: .6;
      }

      .cls-67 {
        fill: url(#_Áåçûìÿííûé_ãðàäèåíò_388-3);
      }

      .cls-68 {
        fill: url(#_Áåçûìÿííûé_ãðàäèåíò_388-2);
      }

      .cls-14 {
        fill: url(#_Áåçûìÿííûé_ãðàäèåíò_384-4);
      }

      .cls-69 {
        fill: url(#_Áåçûìÿííûé_ãðàäèåíò_388-6);
      }

      .cls-15 {
        fill: url(#_Áåçûìÿííûé_ãðàäèåíò_374-2);
      }

      .cls-70 {
        fill: url(#_Áåçûìÿííûé_ãðàäèåíò_388-5);
      }
    </style>
    <radialGradient id="_Áåçûìÿííûé_ãðàäèåíò_371" data-name="Áåçûìÿííûé ãðàäèåíò 371" cx="-2503" cy="12.65" fx="-2503" fy="12.65" r="172.43" gradientTransform="translate(2834.89 1670.95) rotate(30) scale(1 .87) skewX(-26.56)" gradientUnits="userSpaceOnUse">
      <stop offset=".01" stop-color="#25bfec"/>
      <stop offset=".05" stop-color="#23b4e1"/>
      <stop offset=".22" stop-color="#1e82af"/>
      <stop offset=".39" stop-color="#1a5986"/>
      <stop offset=".56" stop-color="#173a66"/>
      <stop offset=".72" stop-color="#14234f"/>
      <stop offset=".87" stop-color="#131541"/>
      <stop offset="1" stop-color="#13113d"/>
    </radialGradient>
    <radialGradient id="_Áåçûìÿííûé_ãðàäèåíò_371-2" data-name="Áåçûìÿííûé ãðàäèåíò 371" cx="-2379.86" cy="236.17" fx="-2379.86" fy="236.17" r="80.87" xlink:href="#_Áåçûìÿííûé_ãðàäèåíò_371"/>
    <radialGradient id="_Áåçûìÿííûé_ãðàäèåíò_374" data-name="Áåçûìÿííûé ãðàäèåíò 374" cx="-2432.11" cy="283.84" fx="-2432.11" fy="283.84" r="80.87" gradientTransform="translate(2834.89 1670.95) rotate(30) scale(1 .87) skewX(-26.56)" gradientUnits="userSpaceOnUse">
      <stop offset=".01" stop-color="#d4088c"/>
      <stop offset=".1" stop-color="#b70980"/>
      <stop offset=".26" stop-color="#850b6b"/>
      <stop offset=".42" stop-color="#5c0d5b"/>
      <stop offset=".58" stop-color="#3c0f4d"/>
      <stop offset=".73" stop-color="#251044"/>
      <stop offset=".87" stop-color="#17103e"/>
      <stop offset="1" stop-color="#13113d"/>
    </radialGradient>
    <radialGradient id="_Áåçûìÿííûé_ãðàäèåíò_374-2" data-name="Áåçûìÿííûé ãðàäèåíò 374" cx="-2770.8" cy="109.05" fx="-2770.8" fy="109.05" r="172.43" xlink:href="#_Áåçûìÿííûé_ãðàäèåíò_374"/>
    <linearGradient id="_Áåçûìÿííûé_ãðàäèåíò_422" data-name="Áåçûìÿííûé ãðàäèåíò 422" x1="44.75" y1="368.67" x2="238.39" y2="368.67" gradientUnits="userSpaceOnUse">
      <stop offset="0" stop-color="#6ee8fc"/>
      <stop offset=".22" stop-color="#6ee8fc"/>
      <stop offset=".49" stop-color="#6ee1f8"/>
      <stop offset=".77" stop-color="#d4088c"/>
      <stop offset="1" stop-color="#d4088c"/>
    </linearGradient>
    <linearGradient id="_Áåçûìÿííûé_ãðàäèåíò_388" data-name="Áåçûìÿííûé ãðàäèåíò 388" x1="454.99" y1="312.64" x2="620.8" y2="312.64" gradientUnits="userSpaceOnUse">
      <stop offset="0" stop-color="#d4088c"/>
      <stop offset=".23" stop-color="#d4088c"/>
      <stop offset=".51" stop-color="#6ee1f8"/>
      <stop offset=".78" stop-color="#6ee8fc"/>
      <stop offset="1" stop-color="#6ee8fc"/>
    </linearGradient>
    <linearGradient id="_Áåçûìÿííûé_ãðàäèåíò_377" data-name="Áåçûìÿííûé ãðàäèåíò 377" x1="454.92" y1="212.6" x2="624.95" y2="212.6" gradientUnits="userSpaceOnUse">
      <stop offset="0" stop-color="#a31fa9"/>
      <stop offset=".07" stop-color="#8a16a0"/>
      <stop offset=".15" stop-color="#740f98"/>
      <stop offset=".24" stop-color="#640a92"/>
      <stop offset=".34" stop-color="#5a068f"/>
      <stop offset=".48" stop-color="#58068e"/>
      <stop offset=".63" stop-color="#4d21a3"/>
      <stop offset=".94" stop-color="#3167d9"/>
      <stop offset="1" stop-color="#2c75e4"/>
    </linearGradient>
    <linearGradient id="_Áåçûìÿííûé_ãðàäèåíò_388-2" data-name="Áåçûìÿííûé ãðàäèåíò 388" x1="454.92" y1="264.74" x2="624.95" y2="264.74" xlink:href="#_Áåçûìÿííûé_ãðàäèåíò_388"/>
    <linearGradient id="_Áåçûìÿííûé_ãðàäèåíò_300" data-name="Áåçûìÿííûé ãðàäèåíò 300" x1="467.47" y1="500.97" x2="547.68" y2="431.51" gradientTransform="translate(563.11 -362.81) rotate(30) skewX(-30)" gradientUnits="userSpaceOnUse">
      <stop offset="0" stop-color="#8d139b"/>
      <stop offset=".17" stop-color="#841ba1"/>
      <stop offset=".43" stop-color="#6d32b1"/>
      <stop offset=".76" stop-color="#4958cc"/>
      <stop offset="1" stop-color="#2979e4"/>
    </linearGradient>
    <linearGradient id="_Áåçûìÿííûé_ãðàäèåíò_302" data-name="Áåçûìÿííûé ãðàäèåíò 302" x1="477.94" y1="491.91" x2="537.65" y2="440.2" gradientTransform="translate(563.11 -362.81) rotate(30) skewX(-30)" gradientUnits="userSpaceOnUse">
      <stop offset="0" stop-color="#630692"/>
      <stop offset=".23" stop-color="#5a0d93"/>
      <stop offset=".59" stop-color="#432299"/>
      <stop offset="1" stop-color="#2142a1"/>
    </linearGradient>
    <clipPath id="clippath">
      <path class="cls-53" d="M533.78,181.03l-31.99-18.47c-2.27-1.31-1.99-3.61,.64-5.12l30.71-17.73c2.63-1.52,6.6-1.68,8.87-.37l31.99,18.47c2.27,1.31,1.99,3.61-.64,5.12l-30.71,17.73c-2.63,1.52-6.6,1.68-8.87,.37Z"/>
    </clipPath>
    <linearGradient id="_Áåçûìÿííûé_ãðàäèåíò_370" data-name="Áåçûìÿííûé ãðàäèåíò 370" x1="537.92" y1="181.91" x2="537.92" y2="0" gradientUnits="userSpaceOnUse">
      <stop offset=".01" stop-color="#25bfec"/>
      <stop offset=".05" stop-color="#23b4e1"/>
      <stop offset=".22" stop-color="#1e82af"/>
      <stop offset=".39" stop-color="#1a5986"/>
      <stop offset=".56" stop-color="#173a66"/>
      <stop offset=".72" stop-color="#14234f"/>
      <stop offset=".87" stop-color="#131541"/>
      <stop offset="1" stop-color="#13113d"/>
    </linearGradient>
    <linearGradient id="_Áåçûìÿííûé_ãðàäèåíò_384" data-name="Áåçûìÿííûé ãðàäèåíò 384" x1="537.92" y1="179.93" x2="537.92" y2="15.29" gradientUnits="userSpaceOnUse">
      <stop offset=".01" stop-color="#70e8fc"/>
      <stop offset=".15" stop-color="#5ab5ce"/>
      <stop offset=".3" stop-color="#4483a2"/>
      <stop offset=".46" stop-color="#325a7e"/>
      <stop offset=".6" stop-color="#243a61"/>
      <stop offset=".75" stop-color="#1b234d"/>
      <stop offset=".88" stop-color="#151541"/>
      <stop offset="1" stop-color="#13113d"/>
    </linearGradient>
    <linearGradient id="_Áåçûìÿííûé_ãðàäèåíò_388-3" data-name="Áåçûìÿííûé ãðàäèåíò 388" x1="352.18" y1="376.51" x2="517.98" y2="376.51" xlink:href="#_Áåçûìÿííûé_ãðàäèåíò_388"/>
    <linearGradient id="_Áåçûìÿííûé_ãðàäèåíò_377-2" data-name="Áåçûìÿííûé ãðàäèåíò 377" x1="352.1" y1="276.47" x2="522.13" y2="276.47" xlink:href="#_Áåçûìÿííûé_ãðàäèåíò_377"/>
    <linearGradient id="_Áåçûìÿííûé_ãðàäèåíò_388-4" data-name="Áåçûìÿííûé ãðàäèåíò 388" x1="352.1" y1="328.61" x2="522.13" y2="328.61" xlink:href="#_Áåçûìÿííûé_ãðàäèåíò_388"/>
    <linearGradient id="_Áåçûìÿííûé_ãðàäèåíò_300-2" data-name="Áåçûìÿííûé ãðàäèåíò 300" x1="471.97" y1="607.68" x2="552.18" y2="538.23" xlink:href="#_Áåçûìÿííûé_ãðàäèåíò_300"/>
    <linearGradient id="_Áåçûìÿííûé_ãðàäèåíò_302-2" data-name="Áåçûìÿííûé ãðàäèåíò 302" x1="482.44" y1="598.62" x2="542.15" y2="546.91" xlink:href="#_Áåçûìÿííûé_ãðàäèåíò_302"/>
    <clipPath id="clippath-1">
      <path class="cls-53" d="M430.96,244.89l-31.99-18.47c-2.27-1.31-1.99-3.61,.64-5.12l30.71-17.73c2.63-1.52,6.6-1.68,8.87-.37l31.99,18.47c2.27,1.31,1.99,3.61-.64,5.12l-30.71,17.73c-2.63,1.52-6.6,1.68-8.87,.37Z"/>
    </clipPath>
    <linearGradient id="_Áåçûìÿííûé_ãðàäèåíò_370-2" data-name="Áåçûìÿííûé ãðàäèåíò 370" x1="435.11" y1="245.78" x2="435.11" y2="63.87" xlink:href="#_Áåçûìÿííûé_ãðàäèåíò_370"/>
    <linearGradient id="_Áåçûìÿííûé_ãðàäèåíò_384-2" data-name="Áåçûìÿííûé ãðàäèåíò 384" x1="435.11" y1="243.79" x2="435.11" y2="79.16" xlink:href="#_Áåçûìÿííûé_ãðàäèåíò_384"/>
    <linearGradient id="_Áåçûìÿííûé_ãðàäèåíò_388-5" data-name="Áåçûìÿííûé ãðàäèåíò 388" x1="556" y1="375.85" x2="721.8" y2="375.85" xlink:href="#_Áåçûìÿííûé_ãðàäèåíò_388"/>
    <linearGradient id="_Áåçûìÿííûé_ãðàäèåíò_377-3" data-name="Áåçûìÿííûé ãðàäèåíò 377" x1="555.92" y1="275.81" x2="725.95" y2="275.81" xlink:href="#_Áåçûìÿííûé_ãðàäèåíò_377"/>
    <linearGradient id="_Áåçûìÿííûé_ãðàäèåíò_388-6" data-name="Áåçûìÿííûé ãðàäèåíò 388" x1="555.92" y1="327.95" x2="725.95" y2="327.95" xlink:href="#_Áåçûìÿííûé_ãðàäèåíò_388"/>
    <linearGradient id="_Áåçûìÿííûé_ãðàäèåíò_300-3" data-name="Áåçûìÿííûé ãðàäèåíò 300" x1="589" y1="505.21" x2="669.2" y2="435.75" xlink:href="#_Áåçûìÿííûé_ãðàäèåíò_300"/>
    <linearGradient id="_Áåçûìÿííûé_ãðàäèåíò_302-3" data-name="Áåçûìÿííûé ãðàäèåíò 302" x1="599.46" y1="496.15" x2="659.17" y2="444.44" xlink:href="#_Áåçûìÿííûé_ãðàäèåíò_302"/>
    <clipPath id="clippath-2">
      <path class="cls-53" d="M634.78,244.24l-31.99-18.47c-2.27-1.31-1.99-3.61,.64-5.12l30.71-17.73c2.63-1.52,6.6-1.68,8.87-.37l31.99,18.47c2.27,1.31,1.99,3.61-.64,5.12l-30.71,17.73c-2.63,1.52-6.6,1.68-8.87,.37Z"/>
    </clipPath>
    <linearGradient id="_Áåçûìÿííûé_ãðàäèåíò_370-3" data-name="Áåçûìÿííûé ãðàäèåíò 370" x1="638.93" y1="245.12" x2="638.93" y2="63.21" xlink:href="#_Áåçûìÿííûé_ãðàäèåíò_370"/>
    <linearGradient id="_Áåçûìÿííûé_ãðàäèåíò_384-3" data-name="Áåçûìÿííûé ãðàäèåíò 384" x1="638.93" y1="243.14" x2="638.93" y2="78.5" xlink:href="#_Áåçûìÿííûé_ãðàäèåíò_384"/>
    <linearGradient id="_Áåçûìÿííûé_ãðàäèåíò_388-7" data-name="Áåçûìÿííûé ãðàäèåíò 388" x1="453.18" y1="439.72" x2="618.98" y2="439.72" xlink:href="#_Áåçûìÿííûé_ãðàäèåíò_388"/>
    <linearGradient id="_Áåçûìÿííûé_ãðàäèåíò_377-4" data-name="Áåçûìÿííûé ãðàäèåíò 377" x1="453.11" y1="339.68" x2="623.13" y2="339.68" xlink:href="#_Áåçûìÿííûé_ãðàäèåíò_377"/>
    <linearGradient id="_Áåçûìÿííûé_ãðàäèåíò_388-8" data-name="Áåçûìÿííûé ãðàäèåíò 388" x1="453.11" y1="391.82" x2="623.13" y2="391.82" xlink:href="#_Áåçûìÿííûé_ãðàäèåíò_388"/>
    <linearGradient id="_Áåçûìÿííûé_ãðàäèåíò_300-4" data-name="Áåçûìÿííûé ãðàäèåíò 300" x1="593.5" y1="611.92" x2="673.7" y2="542.46" xlink:href="#_Áåçûìÿííûé_ãðàäèåíò_300"/>
    <linearGradient id="_Áåçûìÿííûé_ãðàäèåíò_302-4" data-name="Áåçûìÿííûé ãðàäèåíò 302" x1="603.96" y1="602.86" x2="663.67" y2="551.15" xlink:href="#_Áåçûìÿííûé_ãðàäèåíò_302"/>
    <clipPath id="clippath-3">
      <path class="cls-53" d="M531.96,308.1l-31.99-18.47c-2.27-1.31-1.99-3.61,.64-5.12l30.71-17.73c2.63-1.52,6.6-1.68,8.87-.37l31.99,18.47c2.27,1.31,1.99,3.61-.64,5.12l-30.71,17.73c-2.63,1.52-6.6,1.68-8.87,.37Z"/>
    </clipPath>
    <linearGradient id="_Áåçûìÿííûé_ãðàäèåíò_370-4" data-name="Áåçûìÿííûé ãðàäèåíò 370" x1="536.11" y1="308.99" x2="536.11" y2="127.08" xlink:href="#_Áåçûìÿííûé_ãðàäèåíò_370"/>
    <linearGradient id="_Áåçûìÿííûé_ãðàäèåíò_384-4" data-name="Áåçûìÿííûé ãðàäèåíò 384" x1="536.11" y1="307" x2="536.11" y2="142.37" xlink:href="#_Áåçûìÿííûé_ãðàäèåíò_384"/>
    <linearGradient id="_Áåçûìÿííûé_ãðàäèåíò_422-2" data-name="Áåçûìÿííûé ãðàäèåíò 422" x1="524.91" y1="549.97" x2="539.75" y2="643.66" xlink:href="#_Áåçûìÿííûé_ãðàäèåíò_422"/>
    <linearGradient id="_Áåçûìÿííûé_ãðàäèåíò_377-5" data-name="Áåçûìÿííûé ãðàäèåíò 377" x1="449.94" y1="581.93" x2="618.77" y2="581.93" xlink:href="#_Áåçûìÿííûé_ãðàäèåíò_377"/>
    <linearGradient id="_Áåçûìÿííûé_ãðàäèåíò_388-9" data-name="Áåçûìÿííûé ãðàäèåíò 388" x1="449.94" y1="601.26" x2="618.77" y2="601.26" xlink:href="#_Áåçûìÿííûé_ãðàäèåíò_388"/>
    <linearGradient id="_Áåçûìÿííûé_ãðàäèåíò_300-5" data-name="Áåçûìÿííûé ãðàäèåíò 300" x1="866.68" y1="851.75" x2="946.32" y2="782.78" xlink:href="#_Áåçûìÿííûé_ãðàäèåíò_300"/>
    <linearGradient id="_Áåçûìÿííûé_ãðàäèåíò_302-5" data-name="Áåçûìÿííûé ãðàäèåíò 302" x1="877.07" y1="842.75" x2="936.36" y2="791.41" xlink:href="#_Áåçûìÿííûé_ãðàäèåíò_302"/>
    <clipPath id="clippath-4">
      <path class="cls-53" d="M528.24,583.03l-31.76-18.34c-2.26-1.3-1.98-3.58,.63-5.09l30.49-17.61c2.61-1.51,6.55-1.67,8.81-.37l31.76,18.34c2.26,1.3,1.98,3.58-.63,5.09l-30.49,17.61c-2.61,1.51-6.55,1.67-8.81,.37Z"/>
    </clipPath>
    <linearGradient id="_Áåçûìÿííûé_ãðàäèåíò_370-5" data-name="Áåçûìÿííûé ãðàäèåíò 370" x1="532.33" y1="583.91" x2="532.33" y2="509.2" xlink:href="#_Áåçûìÿííûé_ãðàäèåíò_370"/>
    <linearGradient id="_Áåçûìÿííûé_ãðàäèåíò_422-3" data-name="Áåçûìÿííûé ãðàäèåíò 422" x1="265.76" y1="144.47" x2="280.6" y2="238.17" xlink:href="#_Áåçûìÿííûé_ãðàäèåíò_422"/>
    <linearGradient id="_Áåçûìÿííûé_ãðàäèåíò_377-6" data-name="Áåçûìÿííûé ãðàäèåíò 377" x1="190.79" y1="176.44" x2="359.62" y2="176.44" xlink:href="#_Áåçûìÿííûé_ãðàäèåíò_377"/>
    <linearGradient id="_Áåçûìÿííûé_ãðàäèåíò_388-10" data-name="Áåçûìÿííûé ãðàäèåíò 388" x1="190.79" y1="195.76" x2="359.62" y2="195.76" xlink:href="#_Áåçûìÿííûé_ãðàäèåíò_388"/>
    <linearGradient id="_Áåçûìÿííûé_ãðàäèåíò_300-6" data-name="Áåçûìÿííûé ãðàäèåíò 300" x1="311.57" y1="630.17" x2="391.21" y2="561.21" xlink:href="#_Áåçûìÿííûé_ãðàäèåíò_300"/>
    <linearGradient id="_Áåçûìÿííûé_ãðàäèåíò_302-6" data-name="Áåçûìÿííûé ãðàäèåíò 302" x1="321.96" y1="621.18" x2="381.25" y2="569.83" xlink:href="#_Áåçûìÿííûé_ãðàäèåíò_302"/>
    <clipPath id="clippath-5">
      <path class="cls-53" d="M269.09,177.53l-31.76-18.34c-2.26-1.3-1.98-3.58,.63-5.09l30.49-17.61c2.61-1.51,6.55-1.67,8.81-.37l31.76,18.34c2.26,1.3,1.98,3.58-.63,5.09l-30.49,17.61c-2.61,1.51-6.55,1.67-8.81,.37Z"/>
    </clipPath>
    <linearGradient id="_Áåçûìÿííûé_ãðàäèåíò_370-6" data-name="Áåçûìÿííûé ãðàäèåíò 370" x1="273.18" y1="178.41" x2="273.18" y2="103.71" xlink:href="#_Áåçûìÿííûé_ãðàäèåíò_370"/>
    <linearGradient id="_Áåçûìÿííûé_ãðàäèåíò_422-4" data-name="Áåçûìÿííûé ãðàäèåíò 422" x1="48.76" y1="301.5" x2="180.82" y2="301.5" xlink:href="#_Áåçûìÿííûé_ãðàäèåíò_422"/>
    <linearGradient id="_Áåçûìÿííûé_ãðàäèåíò_377-7" data-name="Áåçûìÿííûé ãðàäèåíò 377" x1="108.41" y1="179.47" x2="174.03" y2="311.56" xlink:href="#_Áåçûìÿííûé_ãðàäèåíò_377"/>
    <linearGradient id="_Áåçûìÿííûé_ãðàäèåíò_377-8" data-name="Áåçûìÿííûé ãðàäèåíò 377" x1="-17.45" y1="181.09" x2="215.24" y2="292.28" xlink:href="#_Áåçûìÿííûé_ãðàäèåíò_377"/>
  </defs>
  <g class="cls-30">
    <g id="Layer_2" data-name="Layer 2">
      <g id="Layer_1-2" data-name="Layer 1">
        <g>
          <g class="cls-45">
            <g>
              <path class="cls-44" d="M341.28,219.61c-1.92,0-3.94-.47-5.55-1.4l-12.37-7.14c-1.68-.97-2.65-2.32-2.65-3.7,0-1.2,.71-2.27,1.99-3.01l59.82-34.54c2.6-1.5,6.96-1.33,9.92,.38l12.37,7.14c1.68,.97,2.65,2.32,2.65,3.7,0,1.2-.71,2.27-1.99,3.01l-59.82,34.54c-1.19,.69-2.75,1.03-4.37,1.03Zm-17.06-10.01l12.37,7.14c2.41,1.39,6.17,1.56,8.22,.38l59.82-34.54c.52-.3,1.15-.81,1.15-1.54s-.67-1.58-1.8-2.23l-12.36-7.14c-2.41-1.39-6.17-1.56-8.22-.38l-59.82,34.54c-.52,.3-1.14,.81-1.14,1.54s.67,1.58,1.8,2.23h0Z"/>
              <path class="cls-44" d="M358.84,305.77c-1.92,0-3.94-.47-5.55-1.4l-7.66-4.42c-1.68-.97-2.65-2.32-2.65-3.7,0-1.2,.71-2.27,1.99-3.01l30.38-17.54c2.6-1.5,6.96-1.33,9.92,.38l7.66,4.42c1.68,.97,2.65,2.32,2.65,3.7,0,1.2-.71,2.27-1.99,3.01l-30.38,17.54c-1.19,.69-2.75,1.03-4.38,1.03Zm20.87-29.39c-1.33,0-2.59,.26-3.5,.79l-30.38,17.54c-.52,.3-1.14,.81-1.15,1.54,0,.74,.67,1.58,1.8,2.23l7.66,4.42c2.4,1.39,6.17,1.56,8.22,.37l30.38-17.54c.52-.3,1.14-.81,1.15-1.54,0-.74-.67-1.58-1.8-2.23l-7.66-4.42c-1.33-.77-3.08-1.16-4.72-1.16Z"/>
              <path class="cls-44" d="M392.46,336.4c-1.78,0-3.56-.4-4.95-1.2l-164.16-94.78c-1.48-.86-2.3-2.05-2.3-3.35s.82-2.49,2.3-3.35l156.42-90.31c2.77-1.6,7.12-1.6,9.9,0l97.24,56.14c1.48,.86,2.3,2.05,2.3,3.35s-.82,2.49-2.3,3.35l-29.61,17.1c-.92,.53-1.45,1.22-1.45,1.88s.53,1.35,1.45,1.88l57.87,33.41c2.22,1.28,5.98,1.28,8.2,0l64.92-37.48c.92-.53,1.45-1.22,1.45-1.88s-.53-1.35-1.45-1.88L301.45,53.66c-2.22-1.28-5.98-1.28-8.2,0l-160.73,92.8c-.92,.53-1.45,1.22-1.45,1.88s.53,1.34,1.45,1.88l40.09,23.15-.85,1.47-40.09-23.15c-1.48-.86-2.3-2.05-2.3-3.35s.82-2.49,2.3-3.35L292.4,52.19c2.78-1.6,7.12-1.6,9.9,0l286.84,165.61c1.48,.86,2.3,2.05,2.3,3.35s-.82,2.49-2.3,3.35l-64.92,37.48c-2.78,1.6-7.12,1.6-9.9,0l-57.87-33.41c-1.48-.86-2.3-2.05-2.3-3.35s.82-2.49,2.3-3.35l29.61-17.1c.92-.53,1.45-1.22,1.45-1.88s-.53-1.34-1.45-1.88l-97.24-56.14c-2.22-1.28-5.98-1.28-8.2,0l-156.42,90.31c-.92,.53-1.45,1.22-1.45,1.88s.53,1.34,1.45,1.88l164.16,94.78c2.22,1.28,5.98,1.28,8.2,0l81.63-47.13c.92-.53,1.45-1.22,1.45-1.88s-.53-1.34-1.45-1.88l-94.61-54.63c-2.22-1.28-5.98-1.28-8.2,0l-41.4,23.9-.85-1.47,41.4-23.9c2.78-1.6,7.12-1.6,9.9,0l94.61,54.63c1.48,.86,2.3,2.05,2.3,3.35s-.82,2.49-2.3,3.35l-81.63,47.13c-1.39,.8-3.17,1.2-4.95,1.2Z"/>
              <path class="cls-44" d="M235.46,174.01c-1.78,0-3.56-.4-4.95-1.2l-19.06-11,99.43-57.41c2.78-1.6,7.12-1.6,9.9,0l13.26,7.65c1.48,.86,2.3,2.04,2.3,3.35s-.82,2.49-2.3,3.35h0l-93.63,54.06c-1.39,.8-3.17,1.2-4.95,1.2Zm-20.61-12.2l16.51,9.53c2.22,1.28,5.98,1.28,8.2,0l93.63-54.06c.92-.53,1.45-1.22,1.45-1.88s-.53-1.34-1.45-1.88l-13.26-7.65c-2.22-1.28-5.98-1.28-8.2,0l-96.88,55.94Z"/>
              <path class="cls-44" d="M291.77,394.53c-1.78,0-3.56-.4-4.95-1.2l-221.24-127.73c-1.48-.86-2.3-2.05-2.3-3.35s.82-2.49,2.3-3.35l127.16-73.42,.85,1.47-127.16,73.42c-.92,.53-1.45,1.22-1.45,1.88s.53,1.34,1.45,1.88l221.24,127.73c2.22,1.29,5.98,1.28,8.2,0l25.94-14.98c.92-.53,1.45-1.22,1.45-1.88s-.53-1.34-1.45-1.88l-34.69-20.03c-2.22-1.28-5.98-1.28-8.2,0l-12.38,7.15c-2.78,1.6-7.12,1.6-9.9,0l-156.72-90.48c-1.48-.86-2.3-2.05-2.3-3.35s.82-2.49,2.3-3.35l10.63-6.14c2.78-1.6,7.12-1.6,9.9,0l139.66,80.64c2.22,1.28,5.98,1.29,8.2,0l27.69-15.99c2.78-1.6,7.12-1.6,9.9,0l56.27,32.49-.85,1.47-56.27-32.49c-2.22-1.28-5.98-1.28-8.2,0l-27.69,15.99c-2.77,1.6-7.12,1.6-9.9,0l-139.66-80.64c-2.22-1.28-5.98-1.28-8.2,0l-10.63,6.14c-.92,.53-1.45,1.22-1.45,1.88s.53,1.34,1.45,1.88l156.72,90.48c2.22,1.28,5.98,1.28,8.2,0l12.38-7.15c2.78-1.6,7.12-1.6,9.9,0l34.69,20.03c1.48,.86,2.3,2.05,2.3,3.35s-.82,2.49-2.3,3.35l-25.94,14.98c-1.39,.8-3.17,1.2-4.95,1.2Z"/>
              <path class="cls-44" d="M259.61,320.32c-1.92,0-3.94-.47-5.55-1.4l-108.81-62.82c-1.68-.97-2.65-2.32-2.65-3.7,0-1.2,.71-2.27,1.99-3.01l25.75-14.87c2.6-1.5,6.96-1.33,9.92,.38l108.81,62.82c1.68,.97,2.65,2.32,2.65,3.7,0,1.2-.71,2.27-1.99,3.01l-25.75,14.87c-1.19,.69-2.75,1.02-4.37,1.02Zm-113.51-65.69l108.81,62.82c2.41,1.39,6.17,1.56,8.22,.38l25.75-14.87c.52-.3,1.14-.81,1.15-1.54,0-.74-.67-1.58-1.8-2.23l-108.81-62.82c-2.41-1.39-6.17-1.56-8.22-.38l-25.75,14.87c-.52,.3-1.14,.81-1.15,1.54,0,.74,.67,1.58,1.8,2.23h0Z"/>
              <path class="cls-44" d="M50.47,252.53c-1.78,0-3.56-.4-4.95-1.2L2.3,226.37c-1.48-.86-2.3-2.05-2.3-3.35s.82-2.49,2.3-3.35l107.31-61.96,.85,1.47L3.15,221.15c-.92,.53-1.45,1.22-1.45,1.88s.53,1.35,1.45,1.88l43.22,24.95c2.22,1.28,5.98,1.28,8.2,0l99.73-57.58c.92-.53,1.45-1.22,1.45-1.88s-.53-1.35-1.45-1.88l-17.09-9.86c-2.22-1.28-5.98-1.28-8.2,0l-69.83,40.32-.85-1.47,69.83-40.32c2.77-1.6,7.12-1.6,9.9,0l17.09,9.86c1.48,.86,2.3,2.05,2.3,3.35s-.82,2.49-2.3,3.35l-99.73,57.58c-1.39,.8-3.17,1.2-4.95,1.2Z"/>
              <path class="cls-44" d="M436.48,293.33c-1.93,0-3.94-.47-5.55-1.4l-7.66-4.42c-1.68-.97-2.65-2.32-2.65-3.7,0-1.2,.71-2.27,1.99-3.01l8.97-5.18c2.6-1.5,6.96-1.33,9.92,.38l7.66,4.42c1.68,.97,2.64,2.32,2.64,3.7,0,1.2-.71,2.27-1.99,3.01l-8.97,5.18c-1.19,.69-2.75,1.02-4.37,1.02Zm-.54-17.03c-1.33,0-2.58,.26-3.5,.79l-8.97,5.18c-.52,.3-1.14,.81-1.14,1.54s.67,1.58,1.8,2.23l7.66,4.42c2.41,1.39,6.17,1.56,8.22,.38l8.97-5.18c.52-.3,1.14-.81,1.14-1.54,0-.74-.67-1.58-1.79-2.23l-7.66-4.42c-1.33-.77-3.08-1.16-4.72-1.16Z"/>
              <path class="cls-44" d="M408.44,277.14c-1.92,0-3.94-.47-5.55-1.4l-7.66-4.42c-1.68-.97-2.65-2.32-2.65-3.7,0-1.2,.71-2.27,1.99-3.01l8.97-5.18c2.6-1.5,6.96-1.33,9.92,.38l7.66,4.42c1.68,.97,2.65,2.32,2.65,3.7,0,1.2-.71,2.27-2,3.01l-8.97,5.18c-1.19,.69-2.75,1.02-4.37,1.02Zm-.54-17.03c-1.33,0-2.59,.26-3.5,.79l-8.97,5.18c-.52,.3-1.15,.81-1.15,1.54,0,.75,.67,1.58,1.8,2.23l7.66,4.42c2.41,1.39,6.17,1.56,8.22,.38l8.97-5.18c.52-.3,1.15-.81,1.15-1.54s-.67-1.58-1.8-2.23l-7.66-4.42c-1.33-.77-3.08-1.16-4.72-1.16Z"/>
              <path class="cls-44" d="M380.4,260.95c-1.92,0-3.94-.47-5.55-1.4l-7.66-4.42c-1.68-.97-2.65-2.32-2.65-3.7,0-1.2,.71-2.27,1.99-3.01l8.97-5.18c2.6-1.5,6.96-1.34,9.92,.38l7.66,4.42c1.68,.97,2.65,2.32,2.65,3.7,0,1.2-.71,2.27-1.99,3.01l-8.97,5.18c-1.19,.69-2.75,1.03-4.37,1.03Zm-.54-17.03c-1.33,0-2.59,.26-3.5,.79l-8.97,5.18c-.52,.3-1.15,.81-1.15,1.54s.67,1.58,1.8,2.23l7.66,4.42c2.4,1.39,6.17,1.56,8.22,.38l8.97-5.18c.52-.3,1.15-.81,1.15-1.54,0-.75-.67-1.58-1.8-2.23l-7.66-4.42c-1.33-.77-3.08-1.16-4.72-1.16Z"/>
              <path class="cls-44" d="M408.3,309.6c-1.92,0-3.94-.47-5.55-1.4l-7.66-4.42c-1.68-.97-2.65-2.32-2.65-3.7,0-1.2,.71-2.27,1.99-3.01l8.97-5.18c2.59-1.5,6.95-1.34,9.92,.37l7.66,4.42c1.68,.97,2.65,2.32,2.65,3.7,0,1.2-.71,2.27-1.99,3.01l-8.97,5.18c-1.19,.69-2.75,1.02-4.37,1.02Zm-.54-17.03c-1.33,0-2.59,.26-3.5,.79l-8.97,5.18c-.52,.3-1.15,.81-1.15,1.54,0,.75,.67,1.58,1.8,2.23l7.66,4.42c2.41,1.39,6.17,1.56,8.22,.38l8.97-5.18c.52-.3,1.14-.81,1.14-1.54s-.67-1.58-1.8-2.23l-7.66-4.42c-1.33-.77-3.08-1.16-4.72-1.16Z"/>
              <path class="cls-44" d="M352.21,277.22c-1.92,0-3.94-.47-5.55-1.4l-7.66-4.42c-1.68-.97-2.65-2.32-2.65-3.7,0-1.2,.71-2.27,1.99-3.01l8.97-5.18c2.6-1.5,6.96-1.33,9.92,.38l7.66,4.42c1.68,.97,2.65,2.32,2.65,3.7,0,1.2-.71,2.27-1.99,3.01l-8.97,5.18c-1.19,.69-2.75,1.02-4.37,1.02Zm-.54-17.03c-1.33,0-2.59,.26-3.5,.79l-8.97,5.18c-.52,.3-1.15,.81-1.15,1.54,0,.75,.67,1.58,1.8,2.23l7.66,4.42c2.41,1.39,6.17,1.56,8.22,.38l8.97-5.18c.52-.3,1.14-.81,1.14-1.54s-.67-1.58-1.8-2.23l-7.66-4.42c-1.33-.77-3.08-1.16-4.72-1.16Z"/>
            </g>
            <g>
              <path class="cls-44" d="M588.39,389.53c-1.92,0-3.94-.47-5.55-1.4l-58.52-33.78c-1.68-.97-2.65-2.32-2.65-3.7,0-1.2,.71-2.27,2-3.01l13.67-7.89c2.59-1.5,6.95-1.34,9.92,.37l58.52,33.79c1.68,.97,2.65,2.32,2.65,3.7,0,1.2-.71,2.27-1.99,3.01l-13.67,7.89c-1.19,.69-2.75,1.03-4.38,1.03Zm-46.69-49.1c-1.33,0-2.59,.26-3.51,.79l-13.67,7.89c-.52,.3-1.15,.81-1.15,1.54s.67,1.58,1.8,2.23l58.52,33.78c2.4,1.39,6.17,1.56,8.22,.38l13.67-7.89c.52-.3,1.14-.81,1.14-1.54s-.67-1.58-1.8-2.23l-58.52-33.79c-1.33-.77-3.08-1.16-4.72-1.16Z"/>
              <path class="cls-44" d="M742.33,376.67c-1.92,0-3.94-.47-5.55-1.4l-29.08-16.79c-1.68-.97-2.65-2.32-2.65-3.7,0-1.2,.71-2.27,1.99-3.01l8.97-5.18c2.59-1.5,6.95-1.34,9.92,.38l29.08,16.79c1.68,.97,2.65,2.32,2.65,3.7,0,1.2-.71,2.27-1.99,3.01l-8.97,5.18c-1.19,.69-2.75,1.03-4.37,1.03Zm-21.96-29.39c-1.33,0-2.58,.26-3.5,.79l-8.97,5.18c-.52,.3-1.14,.81-1.14,1.54s.67,1.58,1.8,2.23l29.08,16.79c2.41,1.39,6.17,1.56,8.22,.38l8.97-5.18c.52-.3,1.14-.81,1.14-1.54s-.67-1.58-1.8-2.23l-29.08-16.79c-1.33-.77-3.08-1.16-4.72-1.16Z"/>
              <path class="cls-44" d="M485.6,500.01c-1.78,0-3.56-.4-4.95-1.2l-160.73-92.8c-1.48-.86-2.3-2.05-2.3-3.35s.82-2.49,2.3-3.35l286.85-165.62c2.78-1.6,7.12-1.6,9.9,0l64.92,37.48c1.48,.86,2.3,2.04,2.3,3.35s-.82,2.49-2.3,3.35l-57.87,33.41c-2.78,1.6-7.12,1.6-9.9,0l-29.61-17.1c-2.23-1.29-5.98-1.28-8.2,0l-97.24,56.14c-.92,.53-1.45,1.22-1.45,1.88s.53,1.35,1.45,1.88l156.42,90.31c2.22,1.28,5.98,1.28,8.2,0l164.16-94.78c.92-.53,1.45-1.22,1.45-1.88,0-.66-.53-1.34-1.45-1.88l-81.63-47.13c-2.23-1.29-5.98-1.28-8.2,0l-94.62,54.63c-.92,.53-1.45,1.22-1.45,1.88,0,.66,.53,1.35,1.45,1.88l41.4,23.9-.85,1.47-41.4-23.9c-1.48-.86-2.3-2.05-2.3-3.35s.82-2.49,2.3-3.35l94.62-54.63c2.77-1.6,7.12-1.6,9.9,0l81.63,47.13c1.48,.86,2.3,2.04,2.3,3.35s-.81,2.49-2.3,3.35l-164.16,94.78c-2.78,1.6-7.12,1.6-9.9,0l-156.42-90.31c-1.48-.86-2.3-2.05-2.3-3.35s.82-2.49,2.3-3.35l97.24-56.14c2.77-1.6,7.12-1.6,9.9,0l29.61,17.1c2.22,1.28,5.97,1.28,8.2,0l57.87-33.41c.92-.53,1.45-1.22,1.45-1.88s-.53-1.34-1.45-1.88l-64.92-37.48c-2.22-1.28-5.98-1.28-8.2,0l-286.85,165.62c-.92,.53-1.45,1.22-1.45,1.88s.53,1.34,1.45,1.88l160.73,92.8c2.22,1.28,5.98,1.28,8.2,0l40.09-23.15,.85,1.47-40.09,23.15c-1.39,.8-3.17,1.2-4.95,1.2Z"/>
              <path class="cls-44" d="M508.93,452.25l-1.29-.74-97.29-56.17c-1.48-.86-2.3-2.05-2.3-3.35s.82-2.49,2.3-3.35l13.26-7.65c2.78-1.6,7.12-1.6,9.9,0l93.63,54.06c1.48,.86,2.3,2.05,2.3,3.35s-.82,2.49-2.3,3.35l-18.21,10.51Zm-80.37-70.76c-1.5,0-2.99,.32-4.1,.96l-13.26,7.65c-.92,.53-1.45,1.22-1.45,1.88s.53,1.35,1.45,1.88l97.73,56.42,17.36-10.02c.92-.53,1.45-1.22,1.45-1.88s-.53-1.35-1.45-1.88l-93.63-54.06c-1.11-.64-2.6-.96-4.1-.96Z"/>
              <path class="cls-44" d="M682.9,538.16c-1.78,0-3.56-.4-4.95-1.2l-127.16-73.42,.85-1.47,127.16,73.42c2.22,1.28,5.97,1.28,8.2,0l221.24-127.74c.92-.53,1.45-1.22,1.45-1.88s-.53-1.34-1.45-1.88l-25.94-14.98c-2.22-1.28-5.98-1.29-8.2,0l-34.69,20.03c-.92,.53-1.45,1.22-1.45,1.88,0,.66,.53,1.34,1.45,1.88l12.38,7.15c1.48,.86,2.3,2.05,2.3,3.35,0,1.3-.81,2.49-2.3,3.35l-156.73,90.49c-2.78,1.6-7.12,1.6-9.9,0l-10.63-6.14c-1.48-.86-2.3-2.04-2.3-3.35s.82-2.49,2.3-3.35l139.67-80.64c.92-.53,1.45-1.22,1.45-1.88s-.53-1.35-1.45-1.88l-27.69-15.99c-1.48-.86-2.3-2.05-2.3-3.35s.82-2.49,2.3-3.35l56.27-32.49,.85,1.47-56.27,32.49c-.92,.53-1.45,1.22-1.45,1.88s.53,1.34,1.45,1.88l27.69,15.99c1.48,.86,2.3,2.04,2.3,3.35s-.82,2.49-2.3,3.35l-139.67,80.64c-.92,.53-1.45,1.22-1.45,1.88s.53,1.35,1.45,1.88l10.63,6.14c2.22,1.28,5.97,1.28,8.2,0l156.73-90.49c.92-.53,1.45-1.22,1.45-1.88s-.53-1.35-1.45-1.88l-12.38-7.15c-1.48-.86-2.3-2.04-2.3-3.35s.81-2.49,2.3-3.35l34.69-20.03c2.78-1.6,7.12-1.6,9.9,0l25.94,14.98c1.48,.86,2.3,2.05,2.3,3.35s-.82,2.49-2.3,3.35l-221.24,127.74c-1.39,.8-3.17,1.2-4.95,1.2Z"/>
              <path class="cls-44" d="M666.37,492.36c-1.92,0-3.94-.47-5.55-1.4l-24.44-14.11c-1.68-.97-2.65-2.32-2.65-3.7,0-1.2,.71-2.27,1.99-3.01l110.12-63.58c2.6-1.5,6.96-1.33,9.92,.38l24.45,14.11c1.68,.97,2.65,2.32,2.65,3.7,0,1.2-.71,2.27-2,3.01l-110.12,63.58c-1.19,.69-2.75,1.03-4.37,1.03Zm83.82-85.11c-1.33,0-2.59,.26-3.5,.79l-110.12,63.58c-.52,.3-1.14,.81-1.14,1.54s.67,1.58,1.8,2.23l24.44,14.11c2.41,1.39,6.17,1.56,8.22,.38l110.12-63.58c.52-.3,1.15-.81,1.15-1.54s-.67-1.58-1.8-2.23l-24.45-14.11c-1.33-.77-3.08-1.16-4.72-1.16Z"/>
              <path class="cls-44" d="M614.96,574.69c-1.78,0-3.56-.4-4.95-1.2l-107.31-61.96,.85-1.47,107.31,61.96c2.22,1.28,5.98,1.28,8.2,0l43.22-24.95c.92-.53,1.45-1.22,1.45-1.88s-.53-1.35-1.45-1.88l-99.72-57.58c-2.22-1.29-5.98-1.29-8.2,0l-17.09,9.87c-.92,.53-1.45,1.22-1.45,1.88s.53,1.34,1.45,1.88l69.83,40.32-.85,1.47-69.83-40.32c-1.48-.86-2.3-2.05-2.3-3.35s.82-2.49,2.3-3.35l17.09-9.87c2.78-1.6,7.12-1.6,9.9,0l99.72,57.58c1.48,.86,2.3,2.05,2.3,3.35s-.82,2.49-2.3,3.35l-43.22,24.95c-1.39,.8-3.17,1.2-4.95,1.2Z"/>
              <path class="cls-44" d="M720.78,331.84c-1.92,0-3.94-.47-5.55-1.4l-7.66-4.42c-1.68-.97-2.65-2.32-2.65-3.7,0-1.2,.71-2.27,2-3.01l8.97-5.18c2.6-1.5,6.96-1.33,9.92,.38l7.66,4.42c1.68,.97,2.65,2.32,2.65,3.7,0,1.2-.71,2.27-1.99,3.01l-8.97,5.18c-1.19,.69-2.75,1.03-4.37,1.03Zm-.54-17.03c-1.33,0-2.59,.26-3.5,.79l-8.97,5.18c-.52,.3-1.15,.81-1.15,1.54s.67,1.58,1.8,2.23l7.66,4.42c2.41,1.39,6.17,1.57,8.22,.38l8.97-5.18c.52-.3,1.14-.81,1.14-1.54s-.67-1.58-1.8-2.23l-7.66-4.42c-1.33-.77-3.08-1.16-4.72-1.16Z"/>
              <path class="cls-44" d="M692.74,348.03c-1.92,0-3.94-.47-5.55-1.4l-7.66-4.42c-1.68-.97-2.65-2.32-2.65-3.7,0-1.2,.71-2.27,2-3.01l8.97-5.18c2.6-1.5,6.96-1.33,9.92,.38l7.66,4.42c1.68,.97,2.65,2.32,2.65,3.7,0,1.2-.71,2.27-2,3.01l-8.97,5.18c-1.19,.69-2.75,1.03-4.37,1.03Zm-.54-17.03c-1.33,0-2.59,.26-3.5,.79l-8.97,5.18c-.52,.3-1.15,.81-1.15,1.54s.67,1.58,1.8,2.23l7.66,4.42c2.41,1.39,6.17,1.56,8.22,.37l8.97-5.18c.52-.3,1.15-.81,1.15-1.54s-.67-1.58-1.8-2.23l-7.66-4.42c-1.33-.77-3.08-1.16-4.72-1.16Z"/>
              <path class="cls-44" d="M664.69,364.22c-1.92,0-3.94-.47-5.55-1.4l-7.66-4.42c-1.68-.97-2.65-2.32-2.65-3.7,0-1.2,.71-2.27,1.99-3.01l8.97-5.18c2.6-1.5,6.96-1.33,9.92,.38l7.66,4.42c1.68,.97,2.65,2.32,2.65,3.7,0,1.2-.71,2.27-2,3.01l-8.97,5.18c-1.19,.69-2.75,1.03-4.38,1.03Zm-.54-17.03c-1.33,0-2.59,.26-3.5,.79l-8.97,5.18c-.52,.3-1.14,.81-1.14,1.54s.67,1.58,1.8,2.23l7.66,4.42c2.41,1.39,6.17,1.56,8.22,.37l8.97-5.18c.52-.3,1.15-.81,1.15-1.54s-.67-1.58-1.8-2.23l-7.66-4.42c-1.33-.77-3.08-1.16-4.72-1.16Z"/>
              <path class="cls-44" d="M748.96,348.11c-1.92,0-3.94-.47-5.55-1.4l-7.66-4.42c-1.68-.97-2.65-2.32-2.65-3.7,0-1.2,.71-2.27,2-3.01l8.97-5.18c2.59-1.5,6.95-1.34,9.92,.37l7.66,4.42c1.68,.97,2.65,2.32,2.65,3.7,0,1.2-.71,2.27-2,3.01l-8.97,5.18c-1.19,.69-2.75,1.03-4.37,1.03Zm-.54-17.03c-1.33,0-2.59,.26-3.51,.79l-8.97,5.18c-.52,.3-1.15,.81-1.15,1.54s.67,1.58,1.8,2.23l7.66,4.42c2.41,1.39,6.17,1.56,8.22,.38l8.97-5.18c.52-.3,1.15-.81,1.15-1.54s-.67-1.58-1.8-2.23l-7.66-4.42c-1.33-.77-3.08-1.16-4.72-1.16Z"/>
              <path class="cls-44" d="M692.88,380.49c-1.93,0-3.94-.47-5.55-1.4l-7.66-4.42c-1.68-.97-2.65-2.32-2.65-3.7,0-1.2,.71-2.27,1.99-3.01l8.97-5.18c2.6-1.5,6.96-1.34,9.92,.38l7.66,4.42c1.68,.97,2.64,2.32,2.64,3.7,0,1.2-.71,2.27-1.99,3.01l-8.97,5.18c-1.19,.69-2.75,1.02-4.37,1.02Zm-.54-17.03c-1.33,0-2.59,.26-3.5,.79l-8.97,5.18c-.52,.3-1.15,.81-1.14,1.54,0,.74,.67,1.58,1.8,2.23l7.66,4.42c2.41,1.39,6.17,1.56,8.22,.38l8.97-5.18c.52-.3,1.14-.81,1.14-1.54s-.67-1.58-1.79-2.23l-7.66-4.42c-1.33-.77-3.08-1.16-4.72-1.16Z"/>
            </g>
          </g>
          <ellipse class="cls-3" cx="656.34" cy="425.78" rx="211.18" ry="121.93"/>
          <ellipse class="cls-4" cx="569.41" cy="599.11" rx="99.04" ry="57.18"/>
          <ellipse class="cls-12" cx="482.88" cy="596.81" rx="99.04" ry="57.18"/>
          <ellipse class="cls-15" cx="340.93" cy="340.07" rx="211.18" ry="121.93"/>
          <g>
            <path class="cls-35" d="M308.99,434.02c-4,0-8.01-.88-11.06-2.64l-110.68-63.9c-3.12-1.8-4.84-4.25-4.84-6.9s1.72-5.1,4.84-6.9l169.68-97.97c2.54-1.47,3.94-3.36,3.94-5.34s-1.4-3.87-3.94-5.34l-44.08-25.45,.91-1.57,44.08,25.45c3.12,1.8,4.84,4.25,4.84,6.9s-1.72,5.1-4.84,6.9l-169.68,97.97c-2.54,1.47-3.94,3.36-3.94,5.34s1.4,3.87,3.94,5.34l110.68,63.9c5.6,3.23,14.7,3.23,20.3,0l43.46-25.09,.91,1.57-43.46,25.09c-3.05,1.76-7.05,2.64-11.05,2.64Z"/>
            <path class="cls-35" d="M556.33,580.04l-.91-1.57,147.57-85.2c3.04-1.75,4.71-4.03,4.71-6.41s-1.67-4.66-4.71-6.42l-61.62-35.57,.91-1.57,61.62,35.57c3.62,2.09,5.62,4.93,5.62,7.98s-2,5.89-5.62,7.98l-147.57,85.2Z"/>
            <path class="cls-35" d="M789.89,441.06c-4.42,0-8.84-.97-12.21-2.92l-62.33-35.98,.91-1.57,62.33,35.98c6.23,3.6,16.38,3.6,22.61,0l77.72-44.87c2.85-1.65,4.42-3.78,4.42-6s-1.57-4.36-4.42-6l-271.72-156.88c-3.43-1.98-5.32-4.67-5.32-7.57s1.89-5.59,5.32-7.57l43.83-25.3,.91,1.57-43.83,25.3c-2.85,1.64-4.42,3.78-4.42,6s1.57,4.36,4.42,6l271.72,156.88c3.43,1.98,5.32,4.67,5.32,7.57s-1.89,5.59-5.32,7.57l-77.72,44.87c-3.37,1.94-7.79,2.92-12.21,2.92Z"/>
            <path class="cls-35" d="M535,501.35c-4.83,0-9.44-.98-12.88-2.96l-194.59-112.35c-3.49-2.01-5.4-4.84-5.4-7.96,0-3.7,2.72-7.39,7.46-10.13l190.47-109.97c8.71-5.03,21.95-5.56,29.53-1.19l194.59,112.34c3.49,2.01,5.41,4.84,5.41,7.96,0,3.7-2.72,7.4-7.46,10.13l-190.47,109.97c-4.75,2.74-10.85,4.15-16.65,4.15Zm-11.97-4.53c7.07,4.08,19.51,3.55,27.72-1.19l190.47-109.97c4.16-2.41,6.55-5.53,6.55-8.57,0-2.45-1.6-4.72-4.5-6.39l-194.59-112.34c-7.07-4.08-19.51-3.55-27.72,1.19l-190.47,109.97c-4.17,2.41-6.55,5.53-6.55,8.56,0,2.45,1.6,4.72,4.5,6.39l194.59,112.35Z"/>
          </g>
          <path class="cls-19" d="M185.06,425.09c-2.42,0-4.83-.62-6.99-1.85L46.43,348.01c-1.04-.59-1.67-1.66-1.68-2.86-.01-1.2,.59-2.28,1.61-2.9l49.79-30.01,.72,1.19-49.79,30.01c-.6,.36-.95,.99-.94,1.69,0,.7,.37,1.32,.98,1.66l131.64,75.24c3.91,2.24,8.77,2.22,12.67-.04l46.26-26.84,.7,1.2-46.26,26.84c-2.18,1.26-4.63,1.9-7.07,1.9Z"/>
          <g class="cls-45">
            <path class="cls-35" d="M308.99,437.65c-4.63,0-9.26-1.04-12.87-3.12l-110.69-63.9c-4.23-2.44-6.66-6.11-6.66-10.05s2.43-7.61,6.66-10.05l169.68-97.97c1.68-.97,2.12-1.86,2.12-2.19s-.44-1.22-2.12-2.19l-44.08-25.45c-2.17-1.25-2.91-4.03-1.66-6.2,1.25-2.17,4.03-2.91,6.2-1.66l44.08,25.45c4.23,2.44,6.66,6.11,6.66,10.05s-2.43,7.61-6.66,10.05l-169.68,97.97c-1.68,.97-2.12,1.86-2.12,2.19s.44,1.22,2.12,2.19l110.68,63.9c4.44,2.56,12.23,2.56,16.67,0l43.46-25.09c2.17-1.25,4.95-.51,6.2,1.66,1.25,2.17,.51,4.94-1.66,6.2l-43.46,25.09c-3.61,2.08-8.24,3.12-12.87,3.12Z"/>
            <path class="cls-35" d="M555.88,583.8c-1.57,0-3.09-.81-3.93-2.27-1.25-2.17-.51-4.94,1.66-6.2l147.57-85.2c1.79-1.03,2.89-2.28,2.89-3.26s-1.11-2.24-2.9-3.27l-61.61-35.57c-2.17-1.25-2.91-4.03-1.66-6.2,1.25-2.17,4.03-2.91,6.2-1.66l61.62,35.57c4.73,2.73,7.43,6.78,7.43,11.13,0,4.34-2.71,8.4-7.43,11.12l-147.57,85.2c-.71,.41-1.49,.61-2.26,.61Z"/>
            <path class="cls-35" d="M789.89,444.7c-5.05,0-10.09-1.14-14.02-3.41l-62.33-35.98c-2.17-1.25-2.92-4.03-1.66-6.2,1.26-2.17,4.03-2.91,6.2-1.66l62.33,35.98c5.06,2.92,13.92,2.92,18.98,0l77.72-44.87c1.92-1.11,2.6-2.23,2.6-2.86s-.68-1.75-2.6-2.86l-271.72-156.88c-4.54-2.62-7.14-6.52-7.14-10.72s2.6-8.1,7.14-10.72l43.83-25.3c2.17-1.25,4.94-.51,6.2,1.66,1.25,2.17,.51,4.94-1.66,6.2l-43.83,25.3c-1.92,1.11-2.6,2.23-2.6,2.86s.68,1.75,2.6,2.86l271.72,156.88c4.54,2.62,7.14,6.53,7.14,10.72s-2.6,8.1-7.14,10.72l-77.72,44.87c-3.93,2.27-8.98,3.41-14.02,3.41Z"/>
            <path class="cls-35" d="M535.03,504.99c-5.46,0-10.71-1.14-14.73-3.46l-194.59-112.35c-4.66-2.69-7.22-6.63-7.22-11.11,0-5.03,3.38-9.87,9.28-13.28l190.47-109.97c9.87-5.7,24.44-6.22,33.16-1.19l194.59,112.34c4.66,2.69,7.22,6.63,7.22,11.11,0,5.03-3.38,9.87-9.28,13.28l-190.47,109.97c-5.33,3.08-12.02,4.64-18.43,4.64Zm-10.19-11.32c5.97,3.45,17,2.9,24.09-1.19l190.47-109.97c3.5-2.02,4.74-4.18,4.74-5.42,0-1.48-1.68-2.67-2.68-3.25l-194.59-112.34c-5.97-3.45-17-2.91-24.09,1.19l-190.47,109.97c-3.5,2.02-4.74,4.18-4.74,5.42,0,1.48,1.68,2.67,2.68,3.25l194.59,112.35Z"/>
          </g>
          <g>
            <g>
              <path class="cls-28" d="M341.98,417.67c-1.13-1.95-.47-4.44,1.47-5.56,1.94-1.12,4.43-.44,5.55,1.51,1.13,1.95,.47,4.44-1.47,5.56-1.94,1.12-4.43,.44-5.55-1.51Z"/>
              <path class="cls-28" d="M320.92,429.83c-1.13-1.95-.47-4.44,1.47-5.56,1.94-1.12,4.43-.44,5.55,1.51,1.13,1.95,.47,4.44-1.47,5.56-1.94,1.12-4.43,.44-5.55-1.51Z"/>
              <path class="cls-28" d="M297.73,430.22c.54-1,1.53-1.58,2.41-1.96,.88-.37,1.73-.46,2.57-.19,1.61,.56,2.89,2.56,2.62,4.8-.26,2.23-2.62,3.82-5.26,2.93-1.29-.42-2.27-1.4-2.68-2.46-.42-1.05-.19-2.13,.34-3.12Z"/>
              <path class="cls-28" d="M276.66,418.06c1.13-1.95,3.61-2.63,5.55-1.51,1.94,1.12,2.6,3.61,1.47,5.56-1.13,1.95-3.61,2.63-5.55,1.51-1.94-1.12-2.6-3.61-1.47-5.56Z"/>
              <path class="cls-28" d="M255.6,405.89c1.13-1.95,3.61-2.63,5.55-1.51,1.94,1.12,2.6,3.61,1.47,5.56-1.13,1.95-3.61,2.63-5.55,1.51-1.94-1.12-2.6-3.61-1.47-5.56Z"/>
              <path class="cls-28" d="M234.53,393.73c1.13-1.95,3.61-2.63,5.55-1.51,1.94,1.12,2.6,3.61,1.47,5.56-1.13,1.95-3.61,2.63-5.55,1.51-1.94-1.12-2.6-3.61-1.47-5.56Z"/>
              <path class="cls-28" d="M213.46,381.57c1.13-1.95,3.61-2.63,5.55-1.51,1.94,1.12,2.6,3.61,1.47,5.56-1.13,1.95-3.61,2.63-5.55,1.51-1.94-1.12-2.6-3.61-1.47-5.56Z"/>
              <path class="cls-28" d="M192.4,369.4c1.13-1.95,3.61-2.63,5.55-1.51,1.94,1.12,2.6,3.61,1.47,5.56-1.13,1.95-3.61,2.63-5.55,1.51-1.94-1.12-2.6-3.61-1.47-5.56Z"/>
              <path class="cls-28" d="M190.41,352.89c.56,.98,.68,2.09,.42,3.09-.13,.5-.36,.98-.68,1.4-.14,.21-.37,.42-.51,.57-.13,.15-.27,.27-.43,.38-.62,.42-1.34,.45-2.19,.35-.88-.13-1.91-.32-2.91-.87-.97-.53-1.63-1.57-1.55-2.81,.05-1.26,.84-2.61,2.08-3.44,.31-.2,.63-.37,.94-.5,.31-.12,.53-.15,.8-.19,.52-.06,1.05-.02,1.55,.11,1,.27,1.91,.93,2.47,1.91Z"/>
              <path class="cls-28" d="M211.48,340.72c1.13,1.95,.47,4.44-1.47,5.56-1.94,1.12-4.43,.44-5.55-1.51-1.13-1.95-.47-4.44,1.47-5.56,1.94-1.12,4.43-.44,5.55,1.51Z"/>
              <path class="cls-28" d="M232.55,328.56c1.13,1.95,.47,4.44-1.47,5.56-1.94,1.12-4.43,.44-5.55-1.51-1.13-1.95-.47-4.44,1.47-5.56,1.94-1.12,4.43-.44,5.55,1.51Z"/>
              <path class="cls-28" d="M253.61,316.4c1.13,1.95,.47,4.44-1.47,5.56s-4.43,.44-5.55-1.51c-1.13-1.95-.47-4.44,1.47-5.56,1.94-1.12,4.43-.44,5.55,1.51Z"/>
              <path class="cls-28" d="M274.68,304.23c1.13,1.95,.47,4.44-1.47,5.56-1.94,1.12-4.43,.44-5.55-1.51-1.13-1.95-.47-4.44,1.47-5.56,1.94-1.12,4.43-.44,5.55,1.51Z"/>
              <path class="cls-28" d="M295.75,292.07c1.13,1.95,.47,4.44-1.47,5.56-1.94,1.12-4.43,.44-5.55-1.51-1.13-1.95-.47-4.44,1.47-5.56,1.94-1.12,4.43-.44,5.55,1.51Z"/>
              <path class="cls-28" d="M316.81,279.91c1.13,1.95,.47,4.44-1.47,5.56-1.94,1.12-4.43,.44-5.55-1.51-1.13-1.95-.47-4.44,1.47-5.56,1.94-1.12,4.43-.44,5.55,1.51Z"/>
              <path class="cls-28" d="M337.88,267.74c1.13,1.95,.47,4.44-1.47,5.56-1.94,1.12-4.43,.44-5.55-1.51-1.13-1.95-.47-4.44,1.47-5.56,1.94-1.12,4.43-.44,5.55,1.51Z"/>
              <path class="cls-28" d="M358.87,255.47c.7,.86,.96,2.03,.59,3.12-.09,.28-.21,.55-.37,.82-.12,.24-.25,.46-.41,.67-.32,.42-.72,.79-1.21,1.07-1.94,1.12-4.43,.44-5.55-1.51-1.13-1.95-.47-4.44,1.47-5.56,2.09-1.17,3.96-.24,5.48,1.39Z"/>
              <path class="cls-28" d="M348.41,239.06c1.13-1.95,3.61-2.63,5.55-1.51,1.94,1.12,2.6,3.61,1.47,5.56-1.13,1.95-3.61,2.63-5.55,1.51-1.94-1.12-2.6-3.61-1.47-5.56Z"/>
              <path class="cls-28" d="M327.34,226.9c1.13-1.95,3.61-2.63,5.55-1.51,1.94,1.12,2.6,3.61,1.47,5.56-1.13,1.95-3.61,2.63-5.55,1.51-1.94-1.12-2.6-3.61-1.47-5.56Z"/>
            </g>
            <g>
              <path class="cls-28" d="M737.24,413.75c-1.13,1.95-3.64,2.61-5.61,1.47-1.97-1.14-2.66-3.65-1.53-5.6,1.13-1.95,3.64-2.61,5.61-1.47,1.97,1.14,2.66,3.64,1.53,5.6Z"/>
              <path class="cls-28" d="M758.66,426.12c-1.13,1.95-3.64,2.61-5.61,1.47-1.97-1.14-2.66-3.65-1.53-5.6,1.13-1.95,3.64-2.61,5.61-1.47,1.97,1.14,2.66,3.64,1.53,5.6Z"/>
              <path class="cls-28" d="M780.16,438.35c-.43,1.03-1.28,1.83-2.39,2.08-.53,.14-1.23,.13-1.75,.06-.53-.07-1.06-.24-1.55-.52-1.97-1.14-2.66-3.65-1.53-5.6,1.13-1.95,3.64-2.61,5.61-1.47,.49,.28,.91,.65,1.23,1.08,.33,.43,.43,.8,.56,1.29,.21,.95,.25,2.03-.19,3.08Z"/>
              <path class="cls-28" d="M803.86,436.09c.56,.98,.67,2.09,.4,3.1-.14,.51-.37,.99-.7,1.41-.41,.45-.97,.89-1.6,1.18-2.6,1.19-5.14-.19-5.61-2.37-.48-2.22,.64-4.32,2.18-5.04,.4-.19,.79-.28,1.26-.28,.53-.07,1.06-.03,1.57,.1,1.02,.27,1.93,.92,2.49,1.9Z"/>
              <path class="cls-28" d="M825.28,423.72c1.13,1.95,.44,4.46-1.53,5.6-1.97,1.14-4.48,.48-5.61-1.47-1.13-1.95-.44-4.46,1.53-5.6,1.97-1.14,4.48-.48,5.61,1.47Z"/>
              <path class="cls-28" d="M846.71,411.35c1.13,1.95,.44,4.46-1.53,5.6-1.97,1.14-4.48,.48-5.61-1.47-1.13-1.95-.44-4.46,1.53-5.6,1.97-1.14,4.48-.48,5.61,1.47Z"/>
              <path class="cls-28" d="M868.13,398.98c1.13,1.95,.44,4.46-1.53,5.6-1.97,1.14-4.48,.48-5.61-1.47-1.13-1.95-.44-4.46,1.53-5.6,1.97-1.14,4.48-.48,5.61,1.47Z"/>
              <path class="cls-28" d="M883.46,382.82c.99-.56,2.14-.59,3.23,.21,1.03,.79,1.83,2.61,1.44,4.56-.37,1.96-1.71,3.17-2.86,3.55-1.21,.37-2.3,.02-3.11-.78-.79-.78-1.25-1.8-1.55-2.62-.33-.84-.51-1.42-.48-1.72,.05-.3,.48-.56,1.09-1.19,.55-.59,1.3-1.46,2.26-2Z"/>
              <path class="cls-28" d="M862.9,369.41c1.13-1.95,3.64-2.61,5.61-1.47,1.97,1.14,2.66,3.64,1.53,5.6-1.13,1.95-3.64,2.61-5.61,1.47-1.97-1.14-2.66-3.64-1.53-5.6Z"/>
              <path class="cls-28" d="M841.47,357.04c1.13-1.95,3.64-2.61,5.61-1.47,1.97,1.14,2.66,3.64,1.53,5.6-1.13,1.95-3.64,2.61-5.61,1.47-1.97-1.14-2.66-3.64-1.53-5.6Z"/>
              <path class="cls-28" d="M820.05,344.67c1.13-1.95,3.64-2.61,5.61-1.47,1.97,1.14,2.66,3.64,1.53,5.6-1.13,1.95-3.64,2.61-5.61,1.47-1.97-1.14-2.66-3.64-1.53-5.6Z"/>
              <path class="cls-28" d="M798.62,332.3c1.13-1.95,3.64-2.61,5.61-1.47,1.97,1.14,2.66,3.64,1.53,5.6-1.13,1.95-3.64,2.61-5.61,1.47-1.97-1.14-2.66-3.65-1.53-5.6Z"/>
              <path class="cls-28" d="M777.2,319.93c1.13-1.95,3.64-2.61,5.61-1.47,1.97,1.14,2.66,3.64,1.53,5.6-1.13,1.95-3.64,2.61-5.61,1.47-1.97-1.14-2.66-3.65-1.53-5.6Z"/>
              <path class="cls-28" d="M755.77,307.56c1.13-1.95,3.64-2.61,5.61-1.47,1.97,1.14,2.66,3.64,1.53,5.6-1.13,1.95-3.64,2.61-5.61,1.47-1.97-1.14-2.66-3.65-1.53-5.6Z"/>
              <path class="cls-28" d="M734.35,295.19c1.13-1.95,3.64-2.61,5.61-1.47,1.97,1.14,2.66,3.64,1.53,5.6-1.13,1.95-3.64,2.61-5.61,1.47-1.97-1.14-2.66-3.64-1.53-5.6Z"/>
              <path class="cls-28" d="M712.92,282.82c1.13-1.95,3.64-2.61,5.61-1.47,1.97,1.14,2.66,3.64,1.53,5.6s-3.64,2.61-5.61,1.47c-1.97-1.14-2.66-3.64-1.53-5.6Z"/>
              <path class="cls-28" d="M691.5,270.45c1.13-1.95,3.64-2.61,5.61-1.47,1.97,1.14,2.66,3.64,1.53,5.6-1.13,1.95-3.64,2.61-5.61,1.47-1.97-1.14-2.66-3.64-1.53-5.6Z"/>
              <path class="cls-28" d="M670.08,258.08c1.13-1.95,3.64-2.61,5.61-1.47,1.97,1.14,2.66,3.64,1.53,5.6-1.13,1.95-3.64,2.61-5.61,1.47-1.97-1.14-2.66-3.64-1.53-5.6Z"/>
              <path class="cls-28" d="M648.65,245.71c1.13-1.95,3.64-2.61,5.61-1.47,1.97,1.14,2.66,3.64,1.53,5.6-1.13,1.95-3.64,2.61-5.61,1.47-1.97-1.14-2.66-3.65-1.53-5.6Z"/>
              <path class="cls-28" d="M627.23,233.34c1.13-1.95,3.64-2.61,5.61-1.47,1.97,1.14,2.66,3.65,1.53,5.6-1.13,1.95-3.64,2.61-5.61,1.47-1.97-1.14-2.66-3.65-1.53-5.6Z"/>
              <path class="cls-28" d="M605.89,220.83c.73-.88,1.66-1.38,2.57-1.69,.82-.33,1.95-.21,2.95,.36,1.97,1.14,2.66,3.65,1.53,5.6-1.13,1.95-3.64,2.61-5.61,1.47-.97-.56-1.64-1.46-2.06-2.62-.36-1.09-.09-2.27,.62-3.12Z"/>
              <path class="cls-28" d="M615.76,203.77c1.13,1.95,.44,4.46-1.53,5.6s-4.48,.48-5.61-1.47c-1.13-1.95-.44-4.46,1.53-5.6,1.97-1.14,4.48-.48,5.61,1.47Z"/>
              <path class="cls-28" d="M637.19,191.41c1.13,1.95,.44,4.46-1.53,5.6-1.97,1.14-4.48,.48-5.61-1.47-1.13-1.95-.44-4.46,1.53-5.6,1.97-1.14,4.48-.48,5.61,1.47Z"/>
            </g>
            <g>
              <path class="cls-28" d="M662.94,456.29c-1.13,1.95-3.62,2.63-5.56,1.5-1.94-1.12-2.61-3.62-1.48-5.57,1.13-1.95,3.62-2.63,5.56-1.5,1.94,1.12,2.61,3.62,1.48,5.57Z"/>
              <path class="cls-28" d="M684.06,468.48c-1.13,1.95-3.62,2.63-5.56,1.5-1.94-1.12-2.61-3.61-1.48-5.57,1.13-1.95,3.62-2.63,5.56-1.5,1.94,1.12,2.61,3.61,1.48,5.57Z"/>
              <path class="cls-28" d="M705.1,480.79c-.71,.89-1.63,1.42-2.54,1.74-.81,.33-1.97,.21-2.94-.35-1.94-1.12-2.61-3.62-1.48-5.57,1.13-1.95,3.62-2.63,5.56-1.5,.97,.57,1.59,1.42,2,2.58,.35,1.07,.09,2.23-.6,3.11Z"/>
              <path class="cls-28" d="M696.65,497.98c-1.13-1.95-.47-4.45,1.48-5.57,1.94-1.13,4.44-.44,5.55,1.49,1.14,1.97,.47,4.45-1.47,5.58-1.94,1.12-4.43,.45-5.56-1.5Z"/>
              <path class="cls-28" d="M675.54,510.17c-1.13-1.95-.47-4.45,1.48-5.57,1.94-1.12,4.43-.45,5.56,1.5,1.13,1.95,.47,4.45-1.48,5.57-1.94,1.12-4.43,.45-5.56-1.5Z"/>
              <path class="cls-28" d="M654.42,522.37c-1.13-1.95-.47-4.45,1.48-5.57,1.94-1.12,4.43-.45,5.56,1.5,1.13,1.95,.47,4.45-1.48,5.57-1.94,1.12-4.43,.45-5.56-1.5Z"/>
              <path class="cls-28" d="M633.3,534.56c-1.13-1.95-.47-4.45,1.48-5.57,1.94-1.12,4.43-.45,5.56,1.5,1.13,1.95,.47,4.45-1.48,5.57-1.94,1.12-4.43,.45-5.56-1.5Z"/>
              <path class="cls-28" d="M612.19,546.75c-1.13-1.95-.47-4.45,1.48-5.57,1.94-1.12,4.43-.45,5.56,1.5,1.13,1.95,.47,4.45-1.48,5.57-1.94,1.12-4.43,.45-5.56-1.5Z"/>
              <path class="cls-28" d="M591.07,558.94c-1.13-1.95-.47-4.45,1.48-5.57,1.94-1.12,4.43-.45,5.56,1.5,1.13,1.95,.47,4.45-1.48,5.57-1.94,1.12-4.43,.45-5.56-1.5Z"/>
              <path class="cls-28" d="M569.96,571.13c-1.13-1.95-.47-4.45,1.48-5.57,1.94-1.12,4.43-.45,5.56,1.5,1.13,1.95,.47,4.45-1.48,5.57-1.94,1.12-4.43,.45-5.56-1.5Z"/>
            </g>
          </g>
          <g>
            <g>
              <g>
                <path class="cls-31" d="M530.26,351.29l-59.3-34.24c-4.22-2.43-3.69-6.69,1.18-9.5l56.94-32.87c4.87-2.81,12.23-3.12,16.45-.68l59.3,34.24c4.22,2.43,3.69,6.69-1.18,9.5l-56.94,32.87c-4.87,2.81-12.23,3.12-16.45,.68Z"/>
                <path class="cls-48" d="M537.32,360.79c-3.28,0-6.42-.66-8.76-2.02l-69.86-40.33c-2.39-1.38-3.7-3.32-3.7-5.46,0-2.54,1.86-5.07,5.09-6.94l67.07-38.72c5.92-3.41,14.93-3.78,20.08-.8l69.85,40.33c2.39,1.38,3.7,3.32,3.7,5.46,0,2.54-1.86,5.07-5.09,6.94l-67.07,38.72c-3.23,1.86-7.37,2.82-11.31,2.82Zm-8.06-3.23c4.77,2.75,13.14,2.39,18.68-.8l67.07-38.72c2.79-1.61,4.39-3.7,4.39-5.72,0-1.62-1.07-3.13-3-4.25l-69.85-40.33c-4.77-2.75-13.15-2.39-18.68,.8l-67.07,38.72c-2.79,1.61-4.39,3.7-4.39,5.72,0,1.62,1.07,3.13,3,4.25l69.86,40.33Z"/>
                <path class="cls-25" d="M607.68,160.18h-29.41l-32.74-18.9c-4.22-2.43-11.58-2.13-16.45,.68l-31.56,18.22h-29.39v85.09h0c-.12,1.65,.8,3.24,2.82,4.41l59.3,34.24c4.22,2.43,11.58,2.13,16.45-.68l56.94-32.87c2.53-1.46,3.88-3.31,4.01-5.09h.02v-85.09Z"/>
                <path class="cls-68" d="M603.65,249.01l-56.94,32.87c-4.87,2.81-12.23,3.12-16.45,.68l-59.3-34.24c-2.03-1.17-2.94-2.76-2.82-4.41h0v1.36h0c-.12,1.65,.8,3.24,2.82,4.41l59.3,34.24c4.22,2.43,11.58,2.13,16.45-.68l56.94-32.87c2.53-1.46,3.88-3.31,4.01-5.09h.02v-1.36h-.02c-.13,1.78-1.48,3.63-4.01,5.09Z"/>
                <path class="cls-55" d="M469.99,246.64h0v-85.09h29.39l31.56-18.22c4.87-2.81,12.23-3.12,16.45-.68l32.74,18.9h27.55v-1.36h-29.41l-32.74-18.9c-4.22-2.43-11.58-2.13-16.45,.68l-31.56,18.22h-29.39v85.09h0c-.12,1.65,.8,3.24,2.82,4.41l.33,.19c-.95-.97-1.39-2.09-1.3-3.24Z"/>
                <path class="cls-35" d="M606.01,161.77v85h-.02c-.07,1.01-.55,2.04-1.4,3.01,1.93-1.35,2.96-2.95,3.07-4.5h.02v-84.89c-.6,.39-1.17,.84-1.67,1.38Z"/>
                <path class="cls-61" d="M530.26,198.83l-59.3-34.24c-4.22-2.43-3.69-6.69,1.18-9.5l56.94-32.87c4.87-2.81,12.23-3.12,16.45-.68l59.3,34.24c4.22,2.43,3.69,6.69-1.18,9.5l-56.94,32.87c-4.87,2.81-12.23,3.12-16.45,.68Z"/>
                <path class="cls-35" d="M604.83,155.78l-59.3-34.24c-2.18-1.26-5.21-1.78-8.3-1.6,2.25,.14,4.35,.66,5.98,1.6l59.3,34.24c4.22,2.43,3.69,6.69-1.18,9.5l-56.94,32.87c-2.35,1.36-5.27,2.12-8.15,2.29,3.56,.21,7.48-.56,10.47-2.29l56.94-32.87c4.87-2.81,5.4-7.06,1.18-9.5Z"/>
                <path class="cls-18" d="M532.21,188.95l-44.15-25.49c-3.14-1.81-2.75-4.98,.88-7.07l42.39-24.47c3.62-2.09,9.11-2.32,12.25-.51l44.15,25.49c3.14,1.81,2.75,4.98-.88,7.07l-42.39,24.47c-3.62,2.09-9.11,2.32-12.25,.51Z"/>
                <path class="cls-24" d="M533.78,181.03l-31.99-18.47c-2.27-1.31-1.99-3.61,.64-5.12l30.71-17.73c2.63-1.52,6.6-1.68,8.87-.37l31.99,18.47c2.27,1.31,1.99,3.61-.64,5.12l-30.71,17.73c-2.63,1.52-6.6,1.68-8.87,.37Z"/>
                <path class="cls-55" d="M532.92,198.83l-59.3-34.24c-4.22-2.43-3.69-6.69,1.18-9.5l56.94-32.87c2.31-1.33,5.19-2.1,8.02-2.28-3.62-.26-7.63,.52-10.68,2.28l-56.94,32.87c-4.87,2.81-5.4,7.06-1.18,9.5l59.3,34.24c2.21,1.28,5.3,1.79,8.43,1.59-2.17-.15-4.19-.68-5.77-1.59Z"/>
                <g class="cls-50">
                  <path class="cls-21" d="M502.42,159.94l30.72-17.74c2.63-1.52,6.6-1.68,8.88-.37l32,18.47c.5,.29,.86,.64,1.12,1.01,.77-1.25,.44-2.61-1.12-3.5l-32-18.47c-2.27-1.31-6.25-1.15-8.88,.37l-30.72,17.74c-2.04,1.18-2.65,2.83-1.76,4.12,.36-.58,.92-1.14,1.76-1.62Z"/>
                  <path class="cls-52" d="M502.42,162.95l30.72-17.74c2.63-1.52,6.6-1.68,8.88-.37l32,18.47c.4,.23,.69,.5,.94,.78,1.02-1.33,.74-2.83-.94-3.8l-32-18.47c-2.27-1.31-6.25-1.15-8.88,.37l-30.72,17.74c-2.16,1.25-2.71,3.02-1.57,4.34,.36-.47,.88-.93,1.57-1.33Z"/>
                  <path class="cls-65" d="M501.15,167.62c.34-.35,.74-.69,1.26-.99l30.72-17.74c2.63-1.52,6.6-1.68,8.88-.37l32,18.47c.24,.14,.44,.3,.63,.46,1.35-1.41,1.2-3.08-.63-4.13l-32-18.47c-2.27-1.31-6.25-1.15-8.88,.37l-30.72,17.74c-2.35,1.35-2.81,3.33-1.26,4.67Z"/>
                </g>
                <g>
                  <path class="cls-24" d="M558.34,261.52l-3.29,1.9c-.85,.49-1.53-.03-1.53-1.16v-45.92c0-1.13,.69-2.44,1.53-2.93l3.29-1.9c.85-.49,1.53,.03,1.53,1.16v45.92c0,1.13-.69,2.44-1.53,2.93Z"/>
                  <path class="cls-21" d="M558.34,211.51l-.79,.45v45.09c0,1.13-.69,2.44-1.53,2.93l-2.5,1.44v.83c0,1.13,.69,1.65,1.53,1.16l3.29-1.9c.85-.49,1.53-1.8,1.53-2.93v-45.92c0-1.13-.69-1.65-1.53-1.16Z"/>
                  <path class="cls-24" d="M570.46,254.52l-3.29,1.9c-.85,.49-1.53-.03-1.53-1.16v-45.92c0-1.13,.69-2.44,1.53-2.93l3.29-1.9c.85-.49,1.53,.03,1.53,1.16v45.92c0,1.13-.69,2.44-1.53,2.93Z"/>
                  <path class="cls-24" d="M582.58,247.53l-3.29,1.9c-.85,.49-1.53-.03-1.53-1.16v-45.92c0-1.13,.69-2.44,1.53-2.93l3.29-1.9c.85-.49,1.53,.03,1.53,1.16v45.92c0,1.13-.69,2.44-1.53,2.93Z"/>
                  <path class="cls-24" d="M594.69,240.53l-3.29,1.9c-.85,.49-1.53-.03-1.53-1.16v-45.92c0-1.13,.69-2.44,1.53-2.93l3.29-1.9c.85-.49,1.53,.03,1.53,1.16v45.92c0,1.13-.69,2.44-1.53,2.93Z"/>
                  <path class="cls-21" d="M570.46,204.51l-.79,.45v45.09c0,1.13-.69,2.44-1.53,2.93l-2.5,1.44v.83c0,1.13,.69,1.65,1.53,1.16l3.29-1.9c.85-.49,1.53-1.8,1.53-2.93v-45.92c0-1.13-.69-1.65-1.53-1.16Z"/>
                  <path class="cls-21" d="M582.58,197.52l-.79,.45v45.09c0,1.13-.69,2.44-1.53,2.93l-2.5,1.44v.83c0,1.13,.69,1.65,1.53,1.16l3.29-1.9c.85-.49,1.53-1.8,1.53-2.93v-45.92c0-1.13-.69-1.65-1.53-1.16Z"/>
                  <path class="cls-21" d="M594.69,190.52l-.79,.45v45.09c0,1.13-.69,2.44-1.53,2.93l-2.5,1.44v.83c0,1.13,.69,1.65,1.53,1.16l3.29-1.9c.85-.49,1.53-1.8,1.53-2.93v-45.92c0-1.13-.69-1.65-1.53-1.16Z"/>
                </g>
                <path class="cls-46" d="M525.37,267.16c-.39,0-.8-.12-1.21-.36l-42.83-24.73c-1.49-.86-2.65-3.06-2.65-5.02v-48.59c0-1.11,.39-1.98,1.08-2.38,.6-.34,1.33-.3,2.07,.13l42.83,24.72c1.49,.86,2.65,3.06,2.65,5.02v48.59c0,1.11-.39,1.98-1.08,2.38-.27,.15-.56,.23-.87,.23Zm-44.73-80.29c-.13,0-.25,.03-.37,.1-.36,.21-.58,.77-.58,1.5v48.59c0,1.57,.98,3.47,2.14,4.14l42.83,24.73c.29,.17,.71,.33,1.06,.13,.36-.21,.58-.77,.58-1.5v-48.59c0-1.57-.98-3.47-2.15-4.15l-42.83-24.72c-.2-.11-.45-.22-.7-.22Z"/>
                <g>
                  <path class="cls-24" d="M487.07,197.99c0,1.33-.93,1.87-2.08,1.2-1.15-.66-2.08-2.28-2.08-3.61s.93-1.87,2.08-1.2c1.15,.66,2.08,2.28,2.08,3.61Z"/>
                  <path class="cls-24" d="M487.07,204.75c0,1.33-.93,1.87-2.08,1.2-1.15-.66-2.08-2.28-2.08-3.61s.93-1.87,2.08-1.2c1.15,.66,2.08,2.28,2.08,3.61Z"/>
                  <path class="cls-24" d="M487.07,211.51c0,1.33-.93,1.87-2.08,1.2-1.15-.66-2.08-2.28-2.08-3.61s.93-1.87,2.08-1.2c1.15,.66,2.08,2.28,2.08,3.61Z"/>
                  <path class="cls-21" d="M486.02,211.89c-1.15-.66-2.08-2.28-2.08-3.61,0-.25,.04-.46,.1-.65-.68,0-1.15,.54-1.15,1.48,0,1.33,.93,2.95,2.08,3.61,.94,.54,1.72,.28,1.98-.55-.28,0-.6-.08-.94-.27Z"/>
                  <path class="cls-21" d="M486.02,205.12c-1.15-.66-2.08-2.28-2.08-3.61,0-.25,.04-.46,.1-.65-.68,0-1.15,.54-1.15,1.48,0,1.33,.93,2.95,2.08,3.61,.94,.54,1.72,.28,1.98-.55-.28,0-.6-.08-.94-.27Z"/>
                  <path class="cls-21" d="M486.02,198.36c-1.15-.66-2.08-2.28-2.08-3.61,0-.25,.04-.46,.1-.65-.68,0-1.15,.54-1.15,1.48,0,1.33,.93,2.95,2.08,3.61,.94,.54,1.72,.28,1.98-.55-.28,0-.6-.08-.94-.27Z"/>
                </g>
                <path class="cls-46" d="M521.51,242.9l-1.38-.8c-.43-.25-.78-.91-.78-1.48v-6.63c0-.57,.35-.83,.78-.59l1.38,.8c.43,.25,.78,.91,.78,1.48v6.63c0,.57-.35,.83-.78,.59Z"/>
              </g>
              <path class="cls-2" d="M575.53,0h-75.22V160.36h0c0,.83,.5,1.62,1.53,2.21l31.96,18.45c2.27,1.31,6.24,1.15,8.87-.37l30.69-17.72c1.36-.79,2.09-1.78,2.16-2.74h.01V0Z"/>
              <path class="cls-8" d="M571.96,15.29h-68.08V160.42h0c0,.75,.46,1.47,1.38,2l28.93,16.7c2.06,1.19,5.65,1.04,8.02-.33l27.77-16.03c1.23-.71,1.89-1.61,1.95-2.48h.01V15.29Z"/>
              <g>
                <path class="cls-24" d="M522.88,146.92c0,1.55-1.25,2.8-2.8,2.8s-2.8-1.25-2.8-2.8,1.25-2.8,2.8-2.8,2.8,1.25,2.8,2.8Z"/>
                <circle class="cls-24" cx="541.2" cy="128.14" r="4.78"/>
                <path class="cls-24" d="M536.53,125.09c0,.68-.55,1.23-1.23,1.23s-1.23-.55-1.23-1.23,.55-1.23,1.23-1.23,1.23,.55,1.23,1.23Z"/>
                <circle class="cls-24" cx="556.19" cy="101.07" r="2.39"/>
                <circle class="cls-24" cx="543.59" cy="80.77" r="1.69"/>
                <path class="cls-24" d="M525.94,67.82c0,1.69-1.37,3.06-3.06,3.06s-3.06-1.37-3.06-3.06,1.37-3.06,3.06-3.06,3.06,1.37,3.06,3.06Z"/>
                <circle class="cls-24" cx="531.87" cy="42.18" r="1.71"/>
                <circle class="cls-24" cx="544.77" cy="53.56" r="2.01"/>
                <path class="cls-24" d="M548.28,49.36c0,.54-.44,.97-.97,.97s-.97-.44-.97-.97,.44-.97,.97-.97,.97,.44,.97,.97Z"/>
                <path class="cls-24" d="M560.92,28.44c0,1.55-1.26,2.81-2.81,2.81s-2.81-1.26-2.81-2.81,1.26-2.81,2.81-2.81,2.81,1.26,2.81,2.81Z"/>
              </g>
            </g>
            <g>
              <g>
                <path class="cls-32" d="M427.44,415.15l-59.3-34.24c-4.22-2.43-3.69-6.69,1.18-9.5l56.94-32.87c4.87-2.81,12.23-3.12,16.45-.68l59.3,34.24c4.22,2.43,3.69,6.69-1.18,9.5l-56.94,32.87c-4.87,2.81-12.23,3.12-16.45,.68Z"/>
                <path class="cls-67" d="M434.5,424.65c-3.28,0-6.42-.66-8.76-2.02l-69.85-40.33c-2.39-1.38-3.7-3.32-3.7-5.46,0-2.54,1.86-5.07,5.1-6.94l67.07-38.72c5.92-3.42,14.92-3.78,20.08-.8l69.86,40.33c2.39,1.38,3.7,3.32,3.7,5.46,0,2.54-1.86,5.07-5.09,6.94l-67.07,38.72c-3.23,1.86-7.37,2.82-11.31,2.82Zm-8.06-3.23c4.77,2.75,13.14,2.39,18.68-.8l67.07-38.72c2.79-1.61,4.39-3.7,4.39-5.72,0-1.62-1.07-3.13-3-4.25l-69.86-40.33c-4.77-2.75-13.14-2.39-18.68,.8l-67.07,38.72c-2.79,1.61-4.39,3.7-4.39,5.72,0,1.62,1.07,3.13,3,4.25l69.85,40.33Z"/>
                <path class="cls-59" d="M504.86,224.05h-29.41l-32.74-18.9c-4.22-2.43-11.58-2.13-16.45,.68l-31.56,18.22h-29.39v85.09h0c-.12,1.65,.8,3.24,2.82,4.41l59.3,34.24c4.22,2.43,11.58,2.13,16.45-.68l56.94-32.87c2.53-1.46,3.88-3.31,4.01-5.09h.02v-85.09Z"/>
                <path class="cls-27" d="M500.83,312.87l-56.94,32.87c-4.87,2.81-12.23,3.12-16.45,.68l-59.3-34.24c-2.03-1.17-2.94-2.76-2.82-4.41h0v1.36h0c-.12,1.65,.8,3.24,2.82,4.41l59.3,34.24c4.22,2.43,11.58,2.13,16.45-.68l56.94-32.87c2.53-1.46,3.88-3.31,4.01-5.09h.02v-1.36h-.02c-.13,1.78-1.48,3.63-4.01,5.09Z"/>
                <path class="cls-55" d="M367.18,310.51h0v-85.09h29.39l31.56-18.22c4.87-2.81,12.23-3.12,16.45-.68l32.74,18.9h27.55v-1.36h-29.41l-32.74-18.9c-4.22-2.43-11.58-2.13-16.45,.68l-31.56,18.22h-29.39v85.09h0c-.12,1.65,.8,3.24,2.82,4.41l.33,.19c-.95-.97-1.39-2.09-1.3-3.24Z"/>
                <path class="cls-35" d="M503.19,225.63v85h-.02c-.07,1.01-.55,2.04-1.4,3.01,1.93-1.35,2.96-2.95,3.07-4.49h.02v-84.89c-.6,.39-1.17,.84-1.67,1.38Z"/>
                <path class="cls-26" d="M427.44,262.69l-59.3-34.24c-4.22-2.43-3.69-6.69,1.18-9.5l56.94-32.87c4.87-2.81,12.23-3.12,16.45-.68l59.3,34.24c4.22,2.43,3.69,6.69-1.18,9.5l-56.94,32.87c-4.87,2.81-12.23,3.12-16.45,.68Z"/>
                <path class="cls-35" d="M502.01,219.64l-59.3-34.24c-2.18-1.26-5.21-1.78-8.3-1.6,2.25,.14,4.35,.66,5.98,1.6l59.3,34.24c4.22,2.43,3.69,6.69-1.18,9.5l-56.94,32.87c-2.35,1.36-5.27,2.12-8.15,2.29,3.56,.21,7.48-.56,10.47-2.29l56.94-32.87c4.87-2.81,5.4-7.06,1.18-9.5Z"/>
                <path class="cls-49" d="M429.4,252.82l-44.15-25.49c-3.14-1.81-2.75-4.98,.88-7.07l42.39-24.47c3.62-2.09,9.11-2.32,12.25-.51l44.15,25.49c3.14,1.81,2.75,4.98-.88,7.07l-42.39,24.47c-3.62,2.09-9.11,2.32-12.25,.51Z"/>
                <path class="cls-24" d="M430.96,244.89l-31.99-18.47c-2.27-1.31-1.99-3.61,.64-5.12l30.71-17.73c2.63-1.52,6.6-1.68,8.87-.37l31.99,18.47c2.27,1.31,1.99,3.61-.64,5.12l-30.71,17.73c-2.63,1.52-6.6,1.68-8.87,.37Z"/>
                <path class="cls-55" d="M430.1,262.69l-59.3-34.24c-4.22-2.43-3.69-6.69,1.18-9.5l56.94-32.87c2.31-1.33,5.19-2.1,8.02-2.28-3.62-.26-7.63,.52-10.68,2.28l-56.94,32.87c-4.87,2.81-5.4,7.06-1.18,9.5l59.3,34.24c2.21,1.28,5.3,1.79,8.43,1.6-2.17-.15-4.19-.68-5.77-1.6Z"/>
                <g class="cls-40">
                  <path class="cls-21" d="M399.6,223.8l30.72-17.74c2.63-1.52,6.6-1.68,8.88-.37l32,18.47c.5,.29,.86,.64,1.12,1.01,.77-1.25,.44-2.61-1.12-3.5l-32-18.47c-2.28-1.31-6.25-1.15-8.88,.37l-30.72,17.74c-2.04,1.18-2.65,2.83-1.76,4.12,.36-.58,.92-1.14,1.76-1.62Z"/>
                  <path class="cls-52" d="M399.6,226.82l30.72-17.74c2.63-1.52,6.6-1.68,8.88-.37l32,18.47c.4,.23,.69,.5,.94,.78,1.02-1.33,.74-2.83-.94-3.8l-32-18.47c-2.28-1.31-6.25-1.15-8.88,.37l-30.72,17.74c-2.16,1.25-2.71,3.02-1.57,4.34,.36-.47,.88-.93,1.57-1.33Z"/>
                  <path class="cls-65" d="M398.34,231.48c.34-.35,.74-.69,1.26-.99l30.72-17.74c2.63-1.52,6.6-1.68,8.88-.37l32,18.47c.24,.14,.44,.3,.63,.46,1.35-1.41,1.2-3.08-.63-4.13l-32-18.47c-2.28-1.31-6.25-1.15-8.88,.37l-30.72,17.74c-2.35,1.36-2.81,3.33-1.26,4.67Z"/>
                </g>
                <g>
                  <path class="cls-24" d="M455.53,325.39l-3.29,1.9c-.85,.49-1.53-.03-1.53-1.16v-45.92c0-1.13,.69-2.44,1.53-2.93l3.29-1.9c.85-.49,1.53,.03,1.53,1.16v45.92c0,1.13-.69,2.44-1.53,2.93Z"/>
                  <path class="cls-21" d="M455.52,275.38l-.79,.45v45.09c0,1.13-.69,2.44-1.53,2.93l-2.5,1.44v.83c0,1.13,.69,1.65,1.53,1.16l3.29-1.9c.85-.49,1.53-1.8,1.53-2.93v-45.92c0-1.13-.69-1.65-1.53-1.16Z"/>
                  <path class="cls-24" d="M467.64,318.39l-3.29,1.9c-.85,.49-1.53-.03-1.53-1.16v-45.92c0-1.13,.69-2.44,1.53-2.93l3.29-1.9c.85-.49,1.53,.03,1.53,1.16v45.92c0,1.13-.69,2.44-1.53,2.93Z"/>
                  <path class="cls-24" d="M479.76,311.4l-3.29,1.9c-.85,.49-1.53-.03-1.53-1.16v-45.92c0-1.13,.69-2.44,1.53-2.93l3.29-1.9c.85-.49,1.53,.03,1.53,1.16v45.92c0,1.13-.69,2.44-1.53,2.93Z"/>
                  <path class="cls-24" d="M491.88,304.4l-3.29,1.9c-.85,.49-1.53-.03-1.53-1.16v-45.92c0-1.13,.69-2.44,1.53-2.93l3.29-1.9c.85-.49,1.53,.03,1.53,1.16v45.92c0,1.13-.69,2.44-1.53,2.93Z"/>
                  <path class="cls-21" d="M467.64,268.38l-.79,.45v45.09c0,1.13-.69,2.44-1.53,2.93l-2.5,1.44v.83c0,1.13,.69,1.65,1.53,1.16l3.29-1.9c.85-.49,1.53-1.8,1.53-2.93v-45.92c0-1.13-.69-1.65-1.53-1.16Z"/>
                  <path class="cls-21" d="M479.76,261.39l-.79,.45v45.09c0,1.13-.69,2.44-1.53,2.93l-2.5,1.44v.83c0,1.13,.69,1.65,1.53,1.16l3.29-1.9c.85-.49,1.53-1.8,1.53-2.93v-45.92c0-1.13-.69-1.65-1.53-1.16Z"/>
                  <path class="cls-21" d="M491.88,254.39l-.79,.45v45.09c0,1.13-.69,2.44-1.53,2.93l-2.5,1.44v.83c0,1.13,.69,1.65,1.53,1.16l3.29-1.9c.85-.49,1.53-1.8,1.53-2.93v-45.92c0-1.13-.69-1.65-1.53-1.16Z"/>
                </g>
                <path class="cls-46" d="M422.55,331.02c-.39,0-.79-.12-1.2-.36l-42.83-24.73c-1.48-.86-2.65-3.06-2.65-5.02v-48.59c0-1.11,.39-1.98,1.08-2.38,.6-.34,1.33-.3,2.07,.13l42.83,24.72c1.49,.86,2.65,3.06,2.65,5.02v48.59c0,1.11-.39,1.98-1.08,2.37-.27,.15-.56,.23-.87,.23Zm-.7-1.23c.3,.17,.72,.33,1.07,.13,.36-.21,.58-.77,.58-1.5v-48.59c0-1.57-.98-3.47-2.15-4.15l-42.83-24.72c-.29-.17-.71-.33-1.07-.13-.36,.21-.58,.77-.58,1.5v48.59c0,1.57,.98,3.47,2.15,4.14l42.83,24.73Z"/>
                <g>
                  <path class="cls-24" d="M384.25,261.85c0,1.33-.93,1.87-2.08,1.2-1.15-.66-2.08-2.28-2.08-3.61s.93-1.87,2.08-1.2c1.15,.66,2.08,2.28,2.08,3.61Z"/>
                  <path class="cls-24" d="M384.25,268.61c0,1.33-.93,1.87-2.08,1.2-1.15-.66-2.08-2.28-2.08-3.61s.93-1.87,2.08-1.2c1.15,.66,2.08,2.28,2.08,3.61Z"/>
                  <path class="cls-24" d="M384.25,275.38c0,1.33-.93,1.87-2.08,1.2-1.15-.66-2.08-2.28-2.08-3.61s.93-1.87,2.08-1.2c1.15,.66,2.08,2.28,2.08,3.61Z"/>
                  <path class="cls-21" d="M383.21,275.76c-1.15-.66-2.08-2.28-2.08-3.61,0-.25,.04-.46,.1-.65-.68,0-1.15,.54-1.15,1.48,0,1.33,.93,2.95,2.08,3.61,.94,.54,1.72,.28,1.98-.55-.28,0-.6-.08-.94-.27Z"/>
                  <path class="cls-21" d="M383.21,268.99c-1.15-.66-2.08-2.28-2.08-3.61,0-.25,.04-.46,.1-.65-.68,0-1.15,.54-1.15,1.48,0,1.33,.93,2.95,2.08,3.61,.94,.54,1.72,.28,1.98-.55-.28,0-.6-.08-.94-.27Z"/>
                  <path class="cls-21" d="M383.21,262.22c-1.15-.66-2.08-2.28-2.08-3.61,0-.25,.04-.46,.1-.65-.68,0-1.15,.54-1.15,1.48,0,1.33,.93,2.95,2.08,3.61,.94,.54,1.72,.28,1.98-.55-.28,0-.6-.08-.94-.27Z"/>
                </g>
                <path class="cls-46" d="M418.7,306.76l-1.38-.8c-.43-.25-.78-.91-.78-1.48v-6.63c0-.57,.35-.83,.78-.59l1.38,.8c.43,.25,.78,.91,.78,1.48v6.63c0,.57-.35,.83-.78,.59Z"/>
              </g>
              <path class="cls-5" d="M472.72,63.87h-75.22V224.23h0c0,.83,.5,1.62,1.53,2.21l31.96,18.45c2.27,1.31,6.24,1.15,8.87-.37l30.69-17.72c1.36-.79,2.09-1.78,2.16-2.74h.01V63.87Z"/>
              <path class="cls-13" d="M469.14,79.16h-68.08V224.29h0c0,.75,.46,1.47,1.38,2l28.93,16.7c2.06,1.19,5.65,1.04,8.02-.33l27.77-16.03c1.23-.71,1.89-1.61,1.95-2.48h.01V79.16Z"/>
              <g>
                <circle class="cls-24" cx="417.26" cy="210.79" r="2.8"/>
                <circle class="cls-24" cx="438.38" cy="192.01" r="4.78"/>
                <circle class="cls-24" cx="432.49" cy="188.96" r="1.23"/>
                <circle class="cls-24" cx="453.37" cy="164.94" r="2.39"/>
                <circle class="cls-24" cx="440.77" cy="144.64" r="1.69"/>
                <circle class="cls-24" cx="420.06" cy="131.69" r="3.06"/>
                <path class="cls-24" d="M430.76,106.05c0,.94-.76,1.71-1.71,1.71s-1.71-.76-1.71-1.71,.76-1.71,1.71-1.71,1.71,.76,1.71,1.71Z"/>
                <path class="cls-24" d="M443.97,117.42c0,1.11-.9,2.01-2.01,2.01s-2.01-.9-2.01-2.01,.9-2.01,2.01-2.01,2.01,.9,2.01,2.01Z"/>
                <path class="cls-24" d="M445.47,113.22c0,.54-.44,.97-.97,.97s-.97-.44-.97-.97,.44-.97,.97-.97,.97,.44,.97,.97Z"/>
                <path class="cls-24" d="M458.1,92.31c0,1.55-1.26,2.81-2.81,2.81s-2.81-1.26-2.81-2.81,1.26-2.81,2.81-2.81,2.81,1.26,2.81,2.81Z"/>
              </g>
            </g>
            <g>
              <g>
                <path class="cls-32" d="M631.27,414.5l-59.3-34.24c-4.22-2.43-3.69-6.69,1.18-9.5l56.94-32.87c4.87-2.81,12.23-3.12,16.45-.68l59.3,34.24c4.22,2.43,3.69,6.69-1.18,9.5l-56.94,32.87c-4.87,2.81-12.23,3.12-16.45,.68Z"/>
                <path class="cls-70" d="M638.32,424c-3.28,0-6.42-.66-8.76-2.02l-69.86-40.33c-2.39-1.38-3.7-3.32-3.7-5.47,0-2.54,1.86-5.06,5.09-6.93l67.07-38.72c5.92-3.42,14.93-3.78,20.08-.8l69.86,40.33c2.39,1.38,3.7,3.32,3.7,5.47,0,2.54-1.86,5.07-5.09,6.93l-67.07,38.72c-3.23,1.86-7.37,2.82-11.31,2.82Zm-8.06-3.23c4.77,2.75,13.14,2.39,18.68-.8l67.07-38.72c2.79-1.61,4.39-3.7,4.39-5.72,0-1.62-1.07-3.13-3-4.25l-69.86-40.33c-4.76-2.75-13.14-2.39-18.68,.8l-67.07,38.73c-2.79,1.61-4.39,3.7-4.39,5.72,0,1.62,1.07,3.13,3,4.25l69.86,40.33Z"/>
                <path class="cls-64" d="M708.68,223.39h-29.41l-32.74-18.9c-4.22-2.43-11.58-2.13-16.45,.68l-31.56,18.22h-29.39v85.09h0c-.12,1.65,.8,3.24,2.82,4.41l59.3,34.24c4.22,2.43,11.58,2.13,16.45-.68l56.94-32.87c2.53-1.46,3.88-3.31,4.01-5.09h.02v-85.09Z"/>
                <path class="cls-69" d="M704.65,312.22l-56.94,32.87c-4.87,2.81-12.23,3.12-16.45,.68l-59.3-34.24c-2.03-1.17-2.94-2.76-2.82-4.41h0v1.36h0c-.12,1.65,.8,3.24,2.82,4.41l59.3,34.24c4.22,2.43,11.58,2.13,16.45-.68l56.94-32.87c2.53-1.46,3.88-3.31,4.01-5.09h.02v-1.36h-.02c-.13,1.78-1.48,3.63-4.01,5.09Z"/>
                <path class="cls-55" d="M571,309.85h0v-85.09h29.39l31.56-18.22c4.87-2.81,12.23-3.12,16.45-.68l32.74,18.9h27.55v-1.36h-29.41l-32.74-18.9c-4.22-2.43-11.58-2.13-16.45,.68l-31.56,18.22h-29.39v85.09h0c-.12,1.65,.8,3.24,2.82,4.41l.33,.19c-.95-.97-1.39-2.09-1.3-3.24Z"/>
                <path class="cls-35" d="M707.01,224.98v85h-.02c-.07,1.01-.55,2.04-1.4,3.01,1.93-1.35,2.96-2.95,3.07-4.49h.02v-84.89c-.6,.39-1.17,.84-1.67,1.38Z"/>
                <path class="cls-22" d="M631.27,262.04l-59.3-34.24c-4.22-2.43-3.69-6.69,1.18-9.5l56.94-32.87c4.87-2.81,12.23-3.12,16.45-.68l59.3,34.24c4.22,2.43,3.69,6.69-1.18,9.5l-56.94,32.87c-4.87,2.81-12.23,3.12-16.45,.68Z"/>
                <path class="cls-35" d="M705.83,218.99l-59.3-34.24c-2.18-1.26-5.21-1.78-8.3-1.6,2.25,.14,4.35,.66,5.98,1.6l59.3,34.24c4.22,2.43,3.69,6.69-1.18,9.5l-56.94,32.87c-2.35,1.35-5.27,2.12-8.15,2.29,3.56,.21,7.48-.56,10.47-2.29l56.94-32.87c4.87-2.81,5.4-7.06,1.18-9.5Z"/>
                <path class="cls-66" d="M633.22,252.16l-44.15-25.49c-3.14-1.81-2.75-4.98,.88-7.07l42.39-24.47c3.62-2.09,9.11-2.32,12.25-.51l44.15,25.49c3.14,1.81,2.75,4.98-.88,7.07l-42.39,24.47c-3.62,2.09-9.11,2.32-12.25,.51Z"/>
                <path class="cls-24" d="M634.78,244.24l-31.99-18.47c-2.27-1.31-1.99-3.61,.64-5.12l30.71-17.73c2.63-1.52,6.6-1.68,8.87-.37l31.99,18.47c2.27,1.31,1.99,3.61-.64,5.12l-30.71,17.73c-2.63,1.52-6.6,1.68-8.87,.37Z"/>
                <path class="cls-55" d="M633.93,262.04l-59.3-34.24c-4.22-2.43-3.69-6.69,1.18-9.5l56.94-32.87c2.31-1.33,5.19-2.1,8.02-2.28-3.62-.26-7.63,.52-10.68,2.28l-56.94,32.87c-4.87,2.81-5.4,7.06-1.18,9.5l59.3,34.24c2.21,1.28,5.3,1.79,8.43,1.59-2.17-.15-4.19-.68-5.77-1.59Z"/>
                <g class="cls-29">
                  <path class="cls-21" d="M603.42,223.15l30.72-17.74c2.63-1.52,6.6-1.68,8.88-.37l32,18.47c.5,.29,.86,.64,1.12,1.01,.77-1.25,.44-2.61-1.12-3.5l-32-18.47c-2.27-1.31-6.25-1.15-8.88,.37l-30.72,17.74c-2.04,1.18-2.65,2.83-1.76,4.12,.36-.58,.92-1.14,1.76-1.62Z"/>
                  <path class="cls-52" d="M603.42,226.16l30.72-17.74c2.63-1.52,6.6-1.68,8.88-.37l32,18.47c.4,.23,.69,.5,.94,.78,1.02-1.33,.74-2.83-.94-3.8l-32-18.47c-2.27-1.31-6.25-1.15-8.88,.37l-30.72,17.74c-2.16,1.25-2.71,3.02-1.57,4.34,.36-.48,.88-.93,1.57-1.33Z"/>
                  <path class="cls-65" d="M602.16,230.83c.34-.35,.74-.69,1.26-.99l30.72-17.74c2.63-1.52,6.6-1.68,8.88-.37l32,18.47c.24,.14,.44,.3,.63,.46,1.35-1.41,1.2-3.08-.63-4.13l-32-18.47c-2.27-1.31-6.25-1.15-8.88,.37l-30.72,17.74c-2.35,1.35-2.81,3.33-1.26,4.67Z"/>
                </g>
                <g>
                  <path class="cls-24" d="M659.35,324.73l-3.29,1.9c-.85,.49-1.53-.03-1.53-1.16v-45.92c0-1.13,.69-2.44,1.53-2.93l3.29-1.9c.85-.49,1.53,.03,1.53,1.16v45.92c0,1.13-.69,2.44-1.53,2.93Z"/>
                  <path class="cls-21" d="M659.35,274.72l-.79,.45v45.09c0,1.13-.69,2.44-1.53,2.93l-2.5,1.44v.83c0,1.13,.69,1.65,1.53,1.16l3.29-1.9c.85-.49,1.53-1.8,1.53-2.93v-45.92c0-1.13-.69-1.65-1.53-1.16Z"/>
                  <path class="cls-24" d="M671.46,317.73l-3.29,1.9c-.85,.49-1.53-.03-1.53-1.16v-45.92c0-1.13,.69-2.44,1.53-2.93l3.29-1.9c.85-.49,1.53,.03,1.53,1.16v45.92c0,1.13-.69,2.44-1.53,2.93Z"/>
                  <path class="cls-24" d="M683.58,310.74l-3.29,1.9c-.85,.49-1.53-.03-1.53-1.16v-45.92c0-1.13,.69-2.44,1.53-2.93l3.29-1.9c.85-.49,1.53,.03,1.53,1.16v45.92c0,1.13-.69,2.44-1.53,2.93Z"/>
                  <path class="cls-24" d="M695.7,303.74l-3.29,1.9c-.85,.49-1.53-.03-1.53-1.16v-45.92c0-1.13,.69-2.44,1.53-2.93l3.29-1.9c.85-.49,1.53,.03,1.53,1.16v45.92c0,1.13-.69,2.44-1.53,2.93Z"/>
                  <path class="cls-21" d="M671.46,267.72l-.79,.45v45.09c0,1.13-.69,2.44-1.53,2.93l-2.5,1.44v.83c0,1.13,.69,1.65,1.53,1.16l3.29-1.9c.85-.49,1.53-1.8,1.53-2.93v-45.92c0-1.13-.69-1.65-1.53-1.16Z"/>
                  <path class="cls-21" d="M683.58,260.73l-.79,.45v45.09c0,1.13-.69,2.44-1.53,2.93l-2.5,1.44v.83c0,1.13,.69,1.65,1.53,1.16l3.29-1.9c.85-.49,1.53-1.8,1.53-2.93v-45.92c0-1.13-.69-1.65-1.53-1.16Z"/>
                  <path class="cls-21" d="M695.7,253.73l-.79,.45v45.09c0,1.13-.69,2.44-1.53,2.93l-2.5,1.44v.83c0,1.13,.69,1.65,1.53,1.16l3.29-1.9c.85-.49,1.53-1.8,1.53-2.93v-45.92c0-1.13-.69-1.65-1.53-1.16Z"/>
                </g>
                <path class="cls-46" d="M626.37,330.37c-.39,0-.8-.12-1.21-.36l-42.82-24.73c-1.49-.86-2.65-3.06-2.65-5.02v-48.59c0-1.11,.39-1.98,1.08-2.38,.6-.34,1.33-.3,2.07,.13l42.82,24.72c1.49,.86,2.65,3.06,2.65,5.02v48.59c0,1.11-.39,1.98-1.08,2.38-.27,.15-.56,.23-.87,.23Zm-44.73-80.29c-.13,0-.25,.03-.37,.1-.36,.21-.58,.77-.58,1.5v48.59c0,1.57,.98,3.47,2.14,4.14l42.83,24.73c.29,.17,.71,.33,1.07,.13,.36-.21,.58-.77,.58-1.5v-48.59c0-1.57-.98-3.47-2.15-4.15l-42.82-24.72c-.2-.11-.45-.22-.7-.22Z"/>
                <g>
                  <path class="cls-24" d="M588.07,261.2c0,1.33-.93,1.87-2.08,1.2-1.15-.66-2.08-2.28-2.08-3.61s.93-1.87,2.08-1.2c1.15,.66,2.08,2.28,2.08,3.61Z"/>
                  <path class="cls-24" d="M588.07,267.96c0,1.33-.93,1.87-2.08,1.2-1.15-.66-2.08-2.28-2.08-3.61s.93-1.87,2.08-1.2c1.15,.66,2.08,2.28,2.08,3.61Z"/>
                  <path class="cls-24" d="M588.07,274.72c0,1.33-.93,1.87-2.08,1.2-1.15-.66-2.08-2.28-2.08-3.61s.93-1.87,2.08-1.2c1.15,.66,2.08,2.28,2.08,3.61Z"/>
                  <path class="cls-21" d="M587.03,275.1c-1.15-.66-2.08-2.28-2.08-3.61,0-.25,.04-.46,.1-.65-.68,0-1.15,.54-1.15,1.48,0,1.33,.93,2.95,2.08,3.61,.94,.54,1.72,.28,1.98-.55-.28,0-.6-.08-.94-.27Z"/>
                  <path class="cls-21" d="M587.03,268.33c-1.15-.66-2.08-2.28-2.08-3.61,0-.25,.04-.46,.1-.65-.68,0-1.15,.54-1.15,1.48,0,1.33,.93,2.95,2.08,3.61,.94,.54,1.72,.28,1.98-.55-.28,0-.6-.08-.94-.27Z"/>
                  <path class="cls-21" d="M587.03,261.57c-1.15-.66-2.08-2.28-2.08-3.61,0-.25,.04-.46,.1-.65-.68,0-1.15,.54-1.15,1.48,0,1.33,.93,2.95,2.08,3.61,.94,.54,1.72,.28,1.98-.55-.28,0-.6-.08-.94-.27Z"/>
                </g>
                <path class="cls-46" d="M622.52,306.11l-1.38-.8c-.43-.25-.78-.91-.78-1.48v-6.63c0-.57,.35-.83,.78-.59l1.38,.8c.43,.25,.78,.91,.78,1.48v6.63c0,.57-.35,.83-.78,.59Z"/>
              </g>
              <path class="cls-11" d="M676.54,63.21h-75.22V223.57h0c0,.83,.5,1.62,1.53,2.21l31.96,18.45c2.27,1.31,6.24,1.15,8.87-.37l30.69-17.72c1.36-.79,2.09-1.78,2.16-2.74h.01V63.21Z"/>
              <path class="cls-10" d="M672.97,78.5h-68.08V223.63h0c0,.75,.46,1.47,1.38,2l28.93,16.7c2.06,1.19,5.65,1.04,8.02-.33l27.77-16.03c1.23-.71,1.89-1.61,1.95-2.48h.01V78.5Z"/>
              <g>
                <path class="cls-24" d="M623.88,210.13c0,1.55-1.25,2.8-2.8,2.8s-2.8-1.25-2.8-2.8,1.25-2.8,2.8-2.8,2.8,1.25,2.8,2.8Z"/>
                <circle class="cls-24" cx="642.2" cy="191.35" r="4.78"/>
                <path class="cls-24" d="M637.54,188.3c0,.68-.55,1.23-1.23,1.23s-1.23-.55-1.23-1.23,.55-1.23,1.23-1.23,1.23,.55,1.23,1.23Z"/>
                <circle class="cls-24" cx="657.19" cy="164.28" r="2.39"/>
                <circle class="cls-24" cx="644.59" cy="143.98" r="1.69"/>
                <path class="cls-24" d="M626.95,131.03c0,1.69-1.37,3.06-3.06,3.06s-3.06-1.37-3.06-3.06,1.37-3.06,3.06-3.06,3.06,1.37,3.06,3.06Z"/>
                <path class="cls-24" d="M634.58,105.39c0,.94-.76,1.71-1.71,1.71s-1.71-.76-1.71-1.71,.76-1.71,1.71-1.71,1.71,.76,1.71,1.71Z"/>
                <circle class="cls-24" cx="645.78" cy="116.77" r="2.01"/>
                <path class="cls-24" d="M649.29,112.57c0,.54-.44,.97-.97,.97s-.97-.44-.97-.97,.44-.97,.97-.97,.97,.44,.97,.97Z"/>
                <path class="cls-24" d="M661.92,91.65c0,1.55-1.26,2.81-2.81,2.81s-2.81-1.26-2.81-2.81,1.26-2.81,2.81-2.81,2.81,1.26,2.81,2.81Z"/>
              </g>
            </g>
            <g>
              <g>
                <path class="cls-32" d="M528.45,478.36l-59.3-34.24c-4.22-2.43-3.69-6.69,1.18-9.5l56.94-32.87c4.87-2.81,12.23-3.12,16.45-.68l59.3,34.24c4.22,2.43,3.69,6.69-1.18,9.5l-56.94,32.87c-4.87,2.81-12.23,3.12-16.45,.68Z"/>
                <path class="cls-57" d="M535.5,487.86c-3.28,0-6.42-.66-8.76-2.02l-69.86-40.33c-2.39-1.38-3.7-3.32-3.7-5.46,0-2.54,1.86-5.07,5.09-6.94l67.07-38.72c5.92-3.42,14.92-3.78,20.08-.8l69.86,40.33c2.39,1.38,3.7,3.32,3.7,5.46,0,2.54-1.86,5.07-5.09,6.94l-67.07,38.72c-3.23,1.86-7.37,2.82-11.31,2.82Zm-8.06-3.23c4.77,2.75,13.14,2.39,18.68-.8l67.07-38.72c2.79-1.61,4.39-3.7,4.39-5.72,0-1.62-1.07-3.13-3-4.25l-69.86-40.33c-4.77-2.75-13.14-2.39-18.68,.8l-67.07,38.72c-2.79,1.61-4.39,3.7-4.39,5.72,0,1.62,1.07,3.13,3,4.25l69.86,40.33Z"/>
                <path class="cls-20" d="M605.86,287.26h-29.41l-32.74-18.9c-4.22-2.43-11.58-2.13-16.45,.68l-31.56,18.22h-29.39v85.09h0c-.12,1.65,.8,3.24,2.82,4.41l59.3,34.24c4.22,2.43,11.58,2.13,16.45-.68l56.94-32.87c2.53-1.46,3.88-3.31,4.01-5.09h.02v-85.09Z"/>
                <path class="cls-42" d="M601.83,376.08l-56.94,32.87c-4.87,2.81-12.23,3.12-16.45,.68l-59.3-34.24c-2.03-1.17-2.94-2.76-2.82-4.41h0v1.36h0c-.12,1.65,.8,3.24,2.82,4.41l59.3,34.24c4.22,2.43,11.58,2.13,16.45-.68l56.94-32.87c2.53-1.46,3.88-3.31,4.01-5.09h.02v-1.36h-.02c-.13,1.78-1.48,3.63-4.01,5.09Z"/>
                <path class="cls-55" d="M468.18,373.72h0v-85.09h29.39l31.56-18.22c4.87-2.81,12.23-3.12,16.45-.68l32.74,18.9h27.55v-1.36h-29.41l-32.74-18.9c-4.22-2.43-11.58-2.13-16.45,.68l-31.56,18.22h-29.39v85.09h0c-.12,1.65,.8,3.24,2.82,4.41l.33,.19c-.95-.97-1.39-2.09-1.3-3.24Z"/>
                <path class="cls-35" d="M604.19,288.84v85h-.02c-.07,1.01-.55,2.04-1.4,3.01,1.93-1.35,2.96-2.95,3.07-4.49h.02v-84.89c-.6,.39-1.17,.84-1.67,1.38Z"/>
                <path class="cls-38" d="M528.45,325.9l-59.3-34.24c-4.22-2.43-3.69-6.69,1.18-9.5l56.94-32.87c4.87-2.81,12.23-3.12,16.45-.68l59.3,34.24c4.22,2.43,3.69,6.69-1.18,9.5l-56.94,32.87c-4.87,2.81-12.23,3.12-16.45,.68Z"/>
                <path class="cls-35" d="M603.02,282.85l-59.3-34.24c-2.18-1.26-5.21-1.78-8.3-1.6,2.25,.14,4.35,.66,5.98,1.6l59.3,34.24c4.22,2.43,3.69,6.69-1.18,9.5l-56.94,32.87c-2.35,1.36-5.27,2.12-8.15,2.29,3.56,.21,7.48-.56,10.47-2.29l56.94-32.87c4.87-2.81,5.4-7.06,1.18-9.5Z"/>
                <path class="cls-51" d="M530.4,316.03l-44.15-25.49c-3.14-1.81-2.75-4.98,.88-7.07l42.39-24.47c3.62-2.09,9.11-2.32,12.25-.51l44.15,25.49c3.14,1.81,2.75,4.98-.88,7.07l-42.39,24.47c-3.62,2.09-9.11,2.32-12.25,.51Z"/>
                <path class="cls-24" d="M531.96,308.1l-31.99-18.47c-2.27-1.31-1.99-3.61,.64-5.12l30.71-17.73c2.63-1.52,6.6-1.68,8.87-.37l31.99,18.47c2.27,1.31,1.99,3.61-.64,5.12l-30.71,17.73c-2.63,1.52-6.6,1.68-8.87,.37Z"/>
                <path class="cls-55" d="M531.11,325.9l-59.3-34.24c-4.22-2.43-3.69-6.69,1.18-9.5l56.94-32.87c2.31-1.33,5.19-2.1,8.02-2.28-3.62-.26-7.63,.52-10.68,2.28l-56.94,32.87c-4.87,2.81-5.4,7.06-1.18,9.5l59.3,34.24c2.21,1.28,5.3,1.79,8.43,1.59-2.17-.15-4.19-.68-5.77-1.59Z"/>
                <g class="cls-54">
                  <path class="cls-21" d="M500.6,287.01l30.72-17.74c2.63-1.52,6.6-1.68,8.88-.37l32,18.47c.5,.29,.86,.64,1.12,1.01,.77-1.25,.44-2.61-1.12-3.5l-32-18.47c-2.28-1.31-6.25-1.15-8.88,.37l-30.72,17.74c-2.04,1.18-2.65,2.83-1.76,4.12,.36-.58,.92-1.14,1.76-1.62Z"/>
                  <path class="cls-52" d="M500.6,290.03l30.72-17.74c2.63-1.52,6.6-1.68,8.88-.37l32,18.47c.4,.23,.69,.5,.94,.78,1.02-1.33,.74-2.83-.94-3.8l-32-18.47c-2.28-1.31-6.25-1.15-8.88,.37l-30.72,17.74c-2.16,1.25-2.71,3.02-1.57,4.34,.36-.47,.88-.93,1.57-1.33Z"/>
                  <path class="cls-65" d="M499.34,294.69c.34-.35,.74-.69,1.26-.99l30.72-17.74c2.63-1.52,6.6-1.68,8.88-.37l32,18.47c.24,.14,.44,.3,.63,.46,1.35-1.41,1.2-3.08-.63-4.13l-32-18.47c-2.28-1.31-6.25-1.15-8.88,.37l-30.72,17.74c-2.35,1.36-2.81,3.33-1.26,4.67Z"/>
                </g>
                <g>
                  <path class="cls-24" d="M556.53,388.6l-3.29,1.9c-.85,.49-1.53-.03-1.53-1.16v-45.92c0-1.13,.69-2.44,1.53-2.93l3.29-1.9c.85-.49,1.53,.03,1.53,1.16v45.92c0,1.13-.69,2.44-1.53,2.93Z"/>
                  <path class="cls-21" d="M556.53,338.59l-.79,.45v45.09c0,1.13-.69,2.44-1.53,2.93l-2.5,1.44v.83c0,1.13,.69,1.65,1.53,1.16l3.29-1.9c.85-.49,1.53-1.8,1.53-2.93v-45.92c0-1.13-.69-1.65-1.53-1.16Z"/>
                  <path class="cls-24" d="M568.65,381.6l-3.29,1.9c-.85,.49-1.53-.03-1.53-1.16v-45.92c0-1.13,.69-2.44,1.53-2.93l3.29-1.9c.85-.49,1.53,.03,1.53,1.16v45.92c0,1.13-.69,2.44-1.53,2.93Z"/>
                  <path class="cls-24" d="M580.76,374.61l-3.29,1.9c-.85,.49-1.53-.03-1.53-1.16v-45.92c0-1.13,.69-2.44,1.53-2.93l3.29-1.9c.85-.49,1.53,.03,1.53,1.16v45.92c0,1.13-.69,2.44-1.53,2.93Z"/>
                  <path class="cls-24" d="M592.88,367.61l-3.29,1.9c-.85,.49-1.53-.03-1.53-1.16v-45.92c0-1.13,.69-2.44,1.53-2.93l3.29-1.9c.85-.49,1.53,.03,1.53,1.16v45.92c0,1.13-.69,2.44-1.53,2.93Z"/>
                  <path class="cls-21" d="M568.65,331.59l-.79,.45v45.09c0,1.13-.69,2.44-1.53,2.93l-2.5,1.44v.83c0,1.13,.69,1.65,1.53,1.16l3.29-1.9c.85-.49,1.53-1.8,1.53-2.93v-45.92c0-1.13-.69-1.65-1.53-1.16Z"/>
                  <path class="cls-21" d="M580.76,324.6l-.79,.45v45.09c0,1.13-.69,2.44-1.53,2.93l-2.5,1.44v.83c0,1.13,.69,1.65,1.53,1.16l3.29-1.9c.85-.49,1.53-1.8,1.53-2.93v-45.92c0-1.13-.69-1.65-1.53-1.16Z"/>
                  <path class="cls-21" d="M592.88,317.6l-.79,.45v45.09c0,1.13-.69,2.44-1.53,2.93l-2.5,1.44v.83c0,1.13,.69,1.65,1.53,1.16l3.29-1.9c.85-.49,1.53-1.8,1.53-2.93v-45.92c0-1.13-.69-1.65-1.53-1.16Z"/>
                </g>
                <path class="cls-46" d="M523.56,394.23c-.39,0-.79-.12-1.21-.36l-42.83-24.73c-1.49-.86-2.65-3.06-2.65-5.02v-48.59c0-1.11,.39-1.98,1.08-2.38,.6-.34,1.33-.3,2.07,.13l42.83,24.72c1.49,.86,2.65,3.06,2.65,5.02v48.59c0,1.11-.39,1.98-1.08,2.37-.27,.15-.56,.23-.87,.23Zm-44.73-80.29c-.13,0-.25,.03-.37,.1-.36,.21-.58,.77-.58,1.5v48.59c0,1.57,.98,3.47,2.14,4.14l42.83,24.73c.29,.17,.72,.33,1.06,.13,.36-.21,.58-.77,.58-1.5v-48.59c0-1.57-.98-3.47-2.15-4.15l-42.83-24.72c-.2-.11-.45-.22-.7-.22Z"/>
                <g>
                  <path class="cls-24" d="M485.25,325.06c0,1.33-.93,1.87-2.08,1.2-1.15-.66-2.08-2.28-2.08-3.61s.93-1.87,2.08-1.2c1.15,.66,2.08,2.28,2.08,3.61Z"/>
                  <path class="cls-24" d="M485.25,331.82c0,1.33-.93,1.87-2.08,1.2-1.15-.66-2.08-2.28-2.08-3.61s.93-1.87,2.08-1.2c1.15,.66,2.08,2.28,2.08,3.61Z"/>
                  <path class="cls-24" d="M485.25,338.59c0,1.33-.93,1.87-2.08,1.2-1.15-.66-2.08-2.28-2.08-3.61s.93-1.87,2.08-1.2c1.15,.66,2.08,2.28,2.08,3.61Z"/>
                  <path class="cls-21" d="M484.21,338.97c-1.15-.66-2.08-2.28-2.08-3.61,0-.25,.04-.46,.1-.65-.68,0-1.15,.54-1.15,1.48,0,1.33,.93,2.95,2.08,3.61,.94,.54,1.72,.28,1.98-.55-.28,0-.6-.08-.94-.27Z"/>
                  <path class="cls-21" d="M484.21,332.2c-1.15-.66-2.08-2.28-2.08-3.61,0-.25,.04-.46,.1-.65-.68,0-1.15,.54-1.15,1.48,0,1.33,.93,2.95,2.08,3.61,.94,.54,1.72,.28,1.98-.55-.28,0-.6-.08-.94-.27Z"/>
                  <path class="cls-21" d="M484.21,325.43c-1.15-.66-2.08-2.28-2.08-3.61,0-.25,.04-.46,.1-.65-.68,0-1.15,.54-1.15,1.48,0,1.33,.93,2.95,2.08,3.61,.94,.54,1.72,.28,1.98-.55-.28,0-.6-.08-.94-.27Z"/>
                </g>
                <path class="cls-46" d="M519.7,369.97l-1.38-.8c-.43-.25-.78-.91-.78-1.48v-6.63c0-.57,.35-.83,.78-.59l1.38,.8c.43,.25,.78,.91,.78,1.48v6.63c0,.57-.35,.83-.78,.59Z"/>
              </g>
              <path class="cls-6" d="M573.72,127.08h-75.22v160.36h0c0,.83,.5,1.62,1.53,2.21l31.96,18.45c2.27,1.31,6.24,1.15,8.87-.37l30.69-17.72c1.36-.79,2.09-1.78,2.16-2.74h.01V127.08Z"/>
              <path class="cls-14" d="M570.15,142.37h-68.08v145.13h0c0,.75,.46,1.47,1.38,2l28.93,16.7c2.06,1.19,5.65,1.04,8.02-.33l27.77-16.03c1.23-.71,1.89-1.61,1.95-2.48h.01V142.37Z"/>
              <g>
                <circle class="cls-24" cx="518.27" cy="274" r="2.8"/>
                <circle class="cls-24" cx="539.38" cy="255.21" r="4.78"/>
                <circle class="cls-24" cx="533.49" cy="252.17" r="1.23"/>
                <circle class="cls-24" cx="554.37" cy="228.15" r="2.39"/>
                <circle class="cls-24" cx="541.77" cy="207.85" r="1.69"/>
                <circle class="cls-24" cx="521.07" cy="194.9" r="3.06"/>
                <circle class="cls-24" cx="537.97" cy="173.2" r="6.2"/>
                <path class="cls-24" d="M531.76,169.26c0,.94-.76,1.71-1.71,1.71s-1.71-.76-1.71-1.71,.76-1.71,1.71-1.71,1.71,.76,1.71,1.71Z"/>
                <path class="cls-24" d="M544.97,180.63c0,1.11-.9,2.01-2.01,2.01s-2.01-.9-2.01-2.01,.9-2.01,2.01-2.01,2.01,.9,2.01,2.01Z"/>
                <circle class="cls-24" cx="545.5" cy="176.43" r=".97"/>
                <path class="cls-24" d="M559.1,155.52c0,1.55-1.26,2.81-2.81,2.81s-2.81-1.26-2.81-2.81,1.26-2.81,2.81-2.81,2.81,1.26,2.81,2.81Z"/>
              </g>
            </g>
          </g>
          <g>
            <g>
              <path class="cls-32" d="M524.75,635.19l-58.88-34c-4.19-2.42-3.66-6.64,1.17-9.43l56.54-32.64c4.83-2.79,12.15-3.09,16.33-.68l58.88,34c4.19,2.42,3.66,6.64-1.17,9.43l-56.54,32.64c-4.83,2.79-12.15,3.09-16.33,.68Z"/>
              <path class="cls-56" d="M531.75,644.62c-3.26,0-6.38-.66-8.7-2l-69.36-40.05c-2.37-1.37-3.68-3.3-3.68-5.43,0-2.52,1.84-5.03,5.06-6.89l66.6-38.45c5.88-3.39,14.82-3.75,19.94-.8l69.36,40.05c2.37,1.37,3.68,3.3,3.68,5.43,0,2.52-1.84,5.03-5.06,6.89l-66.6,38.45c-3.21,1.85-7.32,2.8-11.24,2.8Zm1.15-94.24c-3.66,0-7.52,.89-10.54,2.63l-66.6,38.45c-2.77,1.6-4.36,3.67-4.36,5.68,0,1.61,1.06,3.11,2.98,4.22l69.36,40.05c4.73,2.73,13.05,2.38,18.55-.8l66.6-38.45c2.77-1.6,4.36-3.67,4.36-5.68,0-1.61-1.06-3.11-2.98-4.22l-69.36-40.05c-2.14-1.23-5-1.84-8.01-1.84Z"/>
              <path class="cls-1" d="M601.62,562.33h-29.2l-32.51-18.77c-4.19-2.42-11.5-2.11-16.33,.68l-31.33,18.09h-29.19v19.6h0c-.12,1.64,.79,3.21,2.8,4.38l58.88,34c4.19,2.42,11.5,2.11,16.33-.68l56.54-32.64c2.51-1.45,3.85-3.29,3.98-5.05h.02v-19.6Z"/>
              <path class="cls-47" d="M597.62,585.64l-56.54,32.64c-4.83,2.79-12.15,3.09-16.33,.68l-58.88-34c-2.01-1.16-2.92-2.74-2.8-4.38h0v1.35h0c-.12,1.64,.79,3.21,2.8,4.38l58.88,34c4.19,2.42,11.5,2.11,16.33-.68l56.54-32.64c2.51-1.45,3.85-3.29,3.98-5.05h.02v-1.35h-.02c-.13,1.77-1.47,3.6-3.98,5.05Z"/>
              <path class="cls-55" d="M464.9,583.28h0v-19.6h29.19l31.33-18.09c4.83-2.79,12.15-3.09,16.33-.68l32.51,18.77h27.36v-1.35h-29.2l-32.51-18.77c-4.19-2.42-11.5-2.11-16.33,.68l-31.33,18.09h-29.19v19.6h0c-.12,1.64,.79,3.21,2.8,4.38l.33,.19c-.94-.96-1.38-2.07-1.29-3.22Z"/>
              <path class="cls-35" d="M599.96,563.9v19.51h-.02c-.07,1-.55,2.03-1.39,2.99,1.91-1.34,2.94-2.93,3.05-4.46h.02v-19.4c-.6,.39-1.16,.84-1.66,1.37Z"/>
              <path class="cls-39" d="M524.75,600.7l-58.88-34c-4.19-2.42-3.66-6.64,1.17-9.43l56.54-32.64c4.83-2.79,12.15-3.09,16.33-.68l58.88,34c4.19,2.42,3.66,6.64-1.17,9.43l-56.54,32.64c-4.83,2.79-12.15,3.09-16.33,.68Z"/>
              <path class="cls-35" d="M598.79,557.95l-58.88-34c-2.17-1.25-5.18-1.77-8.24-1.59,2.23,.13,4.32,.66,5.94,1.59l58.88,34c4.19,2.42,3.66,6.64-1.17,9.43l-56.54,32.64c-2.33,1.35-5.24,2.11-8.09,2.27,3.54,.21,7.43-.56,10.39-2.27l56.54-32.64c4.83-2.79,5.36-7.01,1.17-9.43Z"/>
              <path class="cls-17" d="M526.68,590.9l-43.84-25.31c-3.12-1.8-2.73-4.94,.87-7.02l42.09-24.3c3.6-2.08,9.04-2.3,12.16-.5l43.84,25.31c3.12,1.8,2.73,4.94-.87,7.02l-42.09,24.3c-3.6,2.08-9.04,2.3-12.16,.5Z"/>
              <path class="cls-24" d="M528.24,583.03l-31.76-18.34c-2.26-1.3-1.98-3.58,.63-5.09l30.49-17.61c2.61-1.51,6.55-1.67,8.81-.37l31.76,18.34c2.26,1.3,1.98,3.58-.63,5.09l-30.49,17.61c-2.61,1.51-6.55,1.67-8.81,.37Z"/>
              <path class="cls-55" d="M527.39,600.7l-58.88-34c-4.19-2.42-3.66-6.64,1.17-9.43l56.54-32.64c2.3-1.33,5.15-2.08,7.96-2.26-3.59-.26-7.58,.52-10.6,2.26l-56.54,32.64c-4.83,2.79-5.36,7.01-1.17,9.43l58.88,34c2.2,1.27,5.26,1.78,8.37,1.58-2.15-.15-4.16-.68-5.73-1.58Z"/>
              <g class="cls-41">
                <path class="cls-21" d="M497.1,562.08l30.51-17.61c2.61-1.51,6.55-1.67,8.81-.37l31.77,18.34c.5,.29,.86,.63,1.11,1,.76-1.24,.43-2.59-1.11-3.48l-31.77-18.34c-2.26-1.3-6.21-1.14-8.81,.37l-30.51,17.61c-2.03,1.17-2.63,2.81-1.74,4.09,.35-.58,.92-1.13,1.74-1.61Z"/>
                <path class="cls-52" d="M497.1,565.07l30.51-17.61c2.61-1.51,6.55-1.67,8.81-.37l31.77,18.34c.4,.23,.69,.5,.93,.78,1.01-1.32,.74-2.81-.93-3.77l-31.77-18.34c-2.26-1.3-6.21-1.14-8.81,.37l-30.51,17.61c-2.15,1.24-2.69,3-1.56,4.31,.36-.47,.88-.92,1.56-1.32Z"/>
                <path class="cls-65" d="M495.84,569.71c.33-.35,.73-.68,1.25-.98l30.51-17.61c2.61-1.51,6.55-1.67,8.81-.37l31.77,18.34c.24,.14,.44,.29,.62,.45,1.34-1.4,1.19-3.06-.62-4.1l-31.77-18.34c-2.26-1.3-6.21-1.14-8.81,.37l-30.51,17.61c-2.33,1.35-2.79,3.3-1.25,4.64Z"/>
              </g>
            </g>
            <path class="cls-7" d="M569.7,509.2h-74.75v53.28h0c0,.83,.5,1.61,1.52,2.2l31.76,18.34c2.26,1.3,6.2,1.14,8.81-.37l30.49-17.61c1.35-.78,2.07-1.77,2.15-2.72h.01v-53.13Z"/>
          </g>
          <g>
            <g>
              <path class="cls-32" d="M265.6,229.69l-58.88-34c-4.19-2.42-3.66-6.64,1.17-9.43l56.54-32.64c4.83-2.79,12.15-3.09,16.33-.68l58.88,34c4.19,2.42,3.66,6.64-1.17,9.43l-56.54,32.64c-4.83,2.79-12.15,3.09-16.33,.68Z"/>
              <path class="cls-58" d="M272.6,239.12c-3.26,0-6.37-.66-8.7-2h0l-69.36-40.05c-2.37-1.37-3.68-3.3-3.68-5.43,0-2.52,1.84-5.03,5.06-6.89l66.6-38.45c5.88-3.39,14.82-3.75,19.94-.8l69.36,40.05c2.37,1.37,3.68,3.3,3.68,5.43,0,2.52-1.84,5.03-5.06,6.89l-66.6,38.45c-3.2,1.85-7.32,2.8-11.24,2.8Zm-8-3.21c4.74,2.73,13.06,2.37,18.55-.8l66.6-38.45c2.77-1.6,4.36-3.67,4.36-5.68,0-1.61-1.06-3.11-2.98-4.22l-69.36-40.05c-4.73-2.73-13.05-2.37-18.55,.8l-66.6,38.45c-2.77,1.6-4.36,3.67-4.36,5.68,0,1.61,1.06,3.11,2.98,4.22l69.36,40.05h0Z"/>
              <path class="cls-37" d="M342.47,156.83h-29.2l-32.51-18.77c-4.19-2.42-11.5-2.11-16.33,.68l-31.33,18.09h-29.19v19.6h0c-.12,1.64,.79,3.21,2.8,4.38l58.88,34c4.19,2.42,11.5,2.11,16.33-.68l56.54-32.64c2.51-1.45,3.85-3.29,3.98-5.05h.02v-19.6Z"/>
              <path class="cls-33" d="M338.47,180.14l-56.54,32.64c-4.83,2.79-12.15,3.09-16.33,.68l-58.88-34c-2.01-1.16-2.92-2.74-2.8-4.38h0v1.35h0c-.12,1.64,.79,3.21,2.8,4.38l58.88,34c4.19,2.42,11.5,2.11,16.33-.68l56.54-32.64c2.51-1.45,3.85-3.29,3.98-5.05h.02v-1.35h-.02c-.13,1.77-1.47,3.6-3.98,5.05Z"/>
              <path class="cls-55" d="M205.75,177.79h0v-19.6h29.19l31.33-18.09c4.83-2.79,12.15-3.09,16.33-.68l32.51,18.77h27.36v-1.35h-29.2l-32.51-18.77c-4.19-2.42-11.5-2.11-16.33,.68l-31.33,18.09h-29.19v19.6h0c-.12,1.64,.79,3.21,2.8,4.38l.33,.19c-.95-.96-1.38-2.07-1.29-3.22Z"/>
              <path class="cls-35" d="M340.81,158.4v19.51h-.02c-.07,1-.55,2.03-1.39,2.99,1.91-1.34,2.94-2.93,3.05-4.46h.02v-19.4c-.6,.39-1.16,.84-1.66,1.37Z"/>
              <path class="cls-36" d="M265.6,195.21l-58.88-34c-4.19-2.42-3.66-6.64,1.17-9.43l56.54-32.64c4.83-2.79,12.15-3.09,16.33-.68l58.88,34c4.19,2.42,3.66,6.64-1.17,9.43l-56.54,32.64c-4.83,2.79-12.15,3.09-16.33,.68Z"/>
              <path class="cls-35" d="M339.64,152.46l-58.88-34c-2.17-1.25-5.18-1.77-8.24-1.59,2.23,.13,4.32,.66,5.94,1.59l58.88,34c4.19,2.42,3.66,6.64-1.17,9.43l-56.54,32.64c-2.33,1.35-5.24,2.11-8.09,2.27,3.54,.21,7.43-.56,10.4-2.27l56.54-32.64c4.83-2.79,5.36-7.01,1.17-9.43Z"/>
              <path class="cls-23" d="M267.54,185.4l-43.84-25.31c-3.12-1.8-2.73-4.94,.87-7.02l42.09-24.3c3.6-2.08,9.04-2.3,12.16-.5l43.84,25.31c3.12,1.8,2.73,4.94-.87,7.02l-42.09,24.3c-3.6,2.08-9.04,2.3-12.16,.5Z"/>
              <path class="cls-24" d="M269.09,177.53l-31.76-18.34c-2.26-1.3-1.98-3.58,.63-5.09l30.49-17.61c2.61-1.51,6.55-1.67,8.81-.37l31.76,18.34c2.26,1.3,1.98,3.58-.63,5.09l-30.49,17.61c-2.61,1.51-6.55,1.67-8.81,.37Z"/>
              <path class="cls-55" d="M268.24,195.21l-58.88-34c-4.19-2.42-3.66-6.64,1.17-9.43l56.54-32.64c2.3-1.33,5.15-2.08,7.96-2.26-3.59-.26-7.58,.52-10.6,2.26l-56.54,32.64c-4.83,2.79-5.36,7.01-1.17,9.43l58.88,34c2.2,1.27,5.26,1.78,8.37,1.58-2.15-.15-4.16-.68-5.73-1.58Z"/>
              <g class="cls-63">
                <path class="cls-21" d="M237.95,156.59l30.51-17.61c2.61-1.51,6.55-1.67,8.81-.37l31.77,18.34c.5,.29,.86,.63,1.11,1,.76-1.24,.43-2.59-1.11-3.48l-31.77-18.34c-2.26-1.3-6.21-1.14-8.81,.37l-30.51,17.61c-2.03,1.17-2.63,2.81-1.74,4.09,.35-.58,.92-1.13,1.74-1.61Z"/>
                <path class="cls-52" d="M237.95,159.58l30.51-17.61c2.61-1.51,6.55-1.67,8.81-.37l31.77,18.34c.4,.23,.69,.5,.93,.78,1.01-1.32,.74-2.81-.93-3.77l-31.77-18.34c-2.26-1.3-6.21-1.14-8.81,.37l-30.51,17.61c-2.15,1.24-2.69,3-1.56,4.31,.36-.47,.88-.92,1.56-1.32Z"/>
                <path class="cls-65" d="M236.7,164.22c.33-.35,.73-.68,1.25-.98l30.51-17.61c2.61-1.51,6.55-1.67,8.81-.37l31.77,18.34c.24,.14,.44,.29,.62,.45,1.34-1.4,1.19-3.06-.62-4.1l-31.77-18.34c-2.26-1.3-6.21-1.14-8.81,.37l-30.51,17.61c-2.33,1.35-2.79,3.3-1.25,4.64Z"/>
              </g>
            </g>
            <path class="cls-9" d="M310.55,103.71h-74.75v53.28h0c0,.83,.5,1.61,1.52,2.2l31.76,18.34c2.26,1.3,6.2,1.14,8.81-.37l30.49-17.61c1.35-.78,2.07-1.77,2.15-2.72h.01v-53.13Z"/>
          </g>
          <path class="cls-32" d="M133.28,331.91l-71.16-41.09c-8.18-4.72-7.15-12.96,2.29-18.41h0c9.44-5.45,23.72-6.04,31.89-1.32l71.16,41.09c8.18,4.72,7.15,12.96-2.29,18.41h0c-9.44,5.45-23.72,6.04-31.89,1.32Z"/>
          <path class="cls-16" d="M151.1,339.9c-5.96,0-11.65-1.2-15.9-3.65l-79.9-46.13c-4.22-2.44-6.54-5.84-6.54-9.58,0-4.47,3.32-8.95,9.11-12.3,10.77-6.22,27.15-6.89,36.5-1.49l79.9,46.13c4.22,2.44,6.54,5.84,6.54,9.58,0,4.47-3.32,8.95-9.12,12.3-5.88,3.4-13.44,5.14-20.61,5.14Zm-72.61-75.43c-6.92,0-14.22,1.68-19.91,4.97-5.35,3.09-8.42,7.13-8.42,11.09,0,3.22,2.08,6.2,5.85,8.38l79.9,46.13c8.97,5.18,24.72,4.51,35.11-1.48,5.35-3.09,8.42-7.13,8.42-11.09,0-3.22-2.08-6.2-5.85-8.38l-79.9-46.13c-4.06-2.34-9.5-3.49-15.2-3.49Z"/>
          <g>
            <path class="cls-60" d="M163.99,312.84l-9.47-1.76-87.77-50.93-9.17-8.42-9.17-13.46-4.9-13.88-1.21-11.65,2.23-8.92,5.2-7.02,7.43-1.78,37.94-20.66s44.33,30.45,46.14,31.11c1.82,.66,30.39,59.47,30.39,59.47l6.28,39.65-7.05,6.47-6.88,1.78Z"/>
            <path class="cls-43" d="M216.97,274.09c0-15.19-10.66-33.66-23.82-41.25-3.2-1.85-6.25-2.88-9.04-3.16-1.35-13.66-10.85-29.12-22.37-35.77-1.59-.92-3.13-1.62-4.63-2.12-3.49-11.17-11.41-22.14-20.63-27.47-6.5-3.75-12.35-3.95-16.46-1.25h0s-16.73,9.15-16.73,9.15c-4.37-1.08-8.3-.7-11.52,.94v-.03s-.34,.19-.34,.19c-.01,0-.02,.01-.04,.02l-41.3,22.35,10.55-.24,12.83,4.85,.94-8.31,5.12-5.78,4.35-1.86,1.6-.17,6.6,2.28c.15-.9,1.56-.47,2.1-.47,3.3,1.98,5.29,5.29,7.93,7.27,7.93,5.29,7.93,17.39,14.54,22.01,10.57,7.93,20.48,18.96,25.77,30.85,.34,.67-.01,1.17-.52,1.59l1.07,5.95,9.31,2.53,8.81,7.1,8.04,10.19,2.75,6.22,3.12,8.53,.74,8.59-.74,6.55-5.85,9.47,40.32-23.06h.02s-.36,.17-.36,.17c4.83-2.24,7.87-7.76,7.87-15.86Z"/>
            <path class="cls-55" d="M96.69,171.72c-1.77,.2-3.43,.67-4.92,1.44v-.03s-.34,.19-.34,.19c-.01,0-.02,.01-.04,.02l-41.3,22.35,2.31-.05c.89-.69,1.79-1.54,2.68-1.49l40.55-21.94s.02-.01,.04-.02l.35-.19v.03c.21-.11,.44-.2,.67-.31Z"/>
            <path class="cls-35" d="M216.97,274.09c0-15.19-10.66-33.66-23.82-41.25-.64-.37-1.28-.7-1.9-1,13.34,7.76,24.13,26.49,24.13,41.9,0,8.24-3.1,13.85-8.01,16.13l.37-.18h-.02s-37.58,21.5-37.58,21.5l-1.02,1.65,40.32-23.06h.02s-.36,.17-.36,.17c4.83-2.24,7.87-7.76,7.87-15.86Z"/>
            <path class="cls-62" d="M142.4,246.11c-5.29-11.89-13.66-26.87-26.87-30.95-1.98-5.95-5.51-16.63-13.44-21.91-2.64-1.98-4.63-5.29-7.93-7.27-.54,0-1.95-.44-2.1,.47l.2,.07c.08,17.92,12.65,39.63,28.14,48.57l21.43,12.37,.04,.24c.51-.42,.86-.92,.52-1.59Z"/>
            <path class="cls-34" d="M152.64,255.54c-3.22-1.86-6.3-2.9-9.1-3.18-1.36-13.75-10.92-29.32-22.52-36.01-1.6-.92-3.15-1.63-4.66-2.13-3.51-11.25-11.49-22.29-20.77-27.65-12.52-7.23-22.66-1.38-22.69,13.04-.96-.66-1.93-1.28-2.91-1.85-15.65-9.04-28.34-1.71-28.34,16.36s12.69,40.04,28.34,49.08l82.65,47.72c13.24,7.65,23.98,1.45,23.98-13.84s-10.73-33.88-23.98-41.53Z"/>
            <path class="cls-35" d="M152.64,255.54c-.74-.43-1.47-.8-2.19-1.14,13.22,7.67,24.47,27.4,24.47,42.67,0,10.39-4.97,16.57-12.3,17.07,8.25,.39,14-5.9,14-17.07,0-15.29-10.73-33.88-23.98-41.53Z"/>
            <path class="cls-55" d="M42.75,214.64c0-14.53,8.11-22.16,19.38-20.12-11.82-2.89-20.48,4.67-20.48,19.59,0,16.18,10.18,35.45,23.53,45.8-12.83-10.71-22.44-29.46-22.44-45.27Z"/>
          </g>
          <g>
            <path class="cls-24" d="M87.95,240.32c0,3.93-2.76,5.53-6.17,3.56-3.41-1.97-6.17-6.75-6.17-10.69s2.76-5.53,6.17-3.56c3.41,1.97,6.17,6.75,6.17,10.69Z"/>
            <path class="cls-21" d="M84.84,242.35c-3.41-1.97-6.17-6.75-6.17-10.69,0-1.19,.28-2.13,.72-2.86-2.22-.2-3.78,1.43-3.78,4.39,0,3.94,2.76,8.72,6.17,10.69,2.38,1.37,4.42,.98,5.45-.7-.74-.07-1.54-.34-2.39-.83Z"/>
            <path class="cls-24" d="M106.9,251.26c0,3.93-2.76,5.53-6.17,3.56-3.41-1.97-6.17-6.75-6.17-10.69s2.76-5.53,6.17-3.56c3.41,1.97,6.17,6.75,6.17,10.69Z"/>
            <path class="cls-24" d="M125.85,262.2c0,3.93-2.76,5.53-6.17,3.56-3.41-1.97-6.17-6.75-6.17-10.69s2.76-5.53,6.17-3.56c3.41,1.97,6.17,6.75,6.17,10.69Z"/>
            <path class="cls-21" d="M103.79,253.3c-3.41-1.97-6.17-6.75-6.17-10.69,0-1.19,.28-2.13,.72-2.86-2.22-.2-3.78,1.43-3.78,4.39,0,3.94,2.76,8.72,6.17,10.69,2.38,1.37,4.42,.98,5.45-.7-.74-.07-1.54-.34-2.39-.83Z"/>
            <path class="cls-21" d="M122.74,264.25c-3.41-1.97-6.17-6.75-6.17-10.69,0-1.19,.28-2.13,.72-2.86-2.22-.2-3.78,1.43-3.78,4.39,0,3.94,2.76,8.72,6.17,10.69,2.38,1.37,4.42,.98,5.45-.7-.74-.07-1.54-.33-2.39-.82Z"/>
          </g>
        </g>
      </g>
    </g>
  </g>
</svg>